<svg width="42" height="42" viewBox="0 0 42 42" fill="none" xmlns="http://www.w3.org/2000/svg">
<path d="M40.6875 34.1258C40.6875 34.4739 40.5492 34.8078 40.3031 35.0539C40.0569 35.3 39.7231 35.4383 39.375 35.4383H2.625C2.2769 35.4383 1.94306 35.3 1.69692 35.0539C1.45078 34.8078 1.3125 34.4739 1.3125 34.1258C1.3125 33.7777 1.45078 33.4439 1.69692 33.1977C1.94306 32.9516 2.2769 32.8133 2.625 32.8133H39.375C39.7231 32.8133 40.0569 32.9516 40.3031 33.1977C40.5492 33.4439 40.6875 33.7777 40.6875 34.1258ZM2.67422 16.1085C2.59615 15.8332 2.61017 15.54 2.71412 15.2735C2.81807 15.0069 3.00628 14.7816 3.25008 14.6319L20.3126 4.13192C20.5193 4.0048 20.7573 3.9375 21 3.9375C21.2427 3.9375 21.4807 4.0048 21.6874 4.13192L38.7499 14.6319C38.9938 14.7815 39.1821 15.0066 39.2863 15.273C39.3904 15.5395 39.4047 15.8326 39.3268 16.1079C39.249 16.3832 39.0834 16.6255 38.8551 16.798C38.6269 16.9704 38.3486 17.0636 38.0625 17.0633H34.125V27.5633H36.75C37.0981 27.5633 37.4319 27.7016 37.6781 27.9477C37.9242 28.1939 38.0625 28.5277 38.0625 28.8758C38.0625 29.2239 37.9242 29.5578 37.6781 29.8039C37.4319 30.05 37.0981 30.1883 36.75 30.1883H5.25C4.9019 30.1883 4.56806 30.05 4.32192 29.8039C4.07578 29.5578 3.9375 29.2239 3.9375 28.8758C3.9375 28.5277 4.07578 28.1939 4.32192 27.9477C4.56806 27.7016 4.9019 27.5633 5.25 27.5633H7.875V17.0633H3.9375C3.65168 17.0634 3.37365 16.9702 3.14564 16.7979C2.91763 16.6255 2.7521 16.3835 2.67422 16.1085ZM23.625 26.2508C23.625 26.5989 23.7633 26.9328 24.0094 27.1789C24.2556 27.425 24.5894 27.5633 24.9375 27.5633C25.2856 27.5633 25.6194 27.425 25.8656 27.1789C26.1117 26.9328 26.25 26.5989 26.25 26.2508V18.3758C26.25 18.0277 26.1117 17.6939 25.8656 17.4477C25.6194 17.2016 25.2856 17.0633 24.9375 17.0633C24.5894 17.0633 24.2556 17.2016 24.0094 17.4477C23.7633 17.6939 23.625 18.0277 23.625 18.3758V26.2508ZM15.75 26.2508C15.75 26.5989 15.8883 26.9328 16.1344 27.1789C16.3806 27.425 16.7144 27.5633 17.0625 27.5633C17.4106 27.5633 17.7444 27.425 17.9906 27.1789C18.2367 26.9328 18.375 26.5989 18.375 26.2508V18.3758C18.375 18.0277 18.2367 17.6939 17.9906 17.4477C17.7444 17.2016 17.4106 17.0633 17.0625 17.0633C16.7144 17.0633 16.3806 17.2016 16.1344 17.4477C15.8883 17.6939 15.75 18.0277 15.75 18.3758V26.2508Z" fill="black"/>
</svg>
