<svg width="32" height="33" viewBox="0 0 32 33" fill="none" xmlns="http://www.w3.org/2000/svg">
<path d="M22 10.5C22 10.2348 22.1054 9.98043 22.2929 9.79289C22.4804 9.60536 22.7348 9.5 23 9.5H27C27.2652 9.5 27.5196 9.60536 27.7071 9.79289C27.8946 9.98043 28 10.2348 28 10.5C28 10.7652 27.8946 11.0196 27.7071 11.2071C27.5196 11.3946 27.2652 11.5 27 11.5H23C22.7348 11.5 22.4804 11.3946 22.2929 11.2071C22.1054 11.0196 22 10.7652 22 10.5ZM5 11.5H18V13.5C18 13.7652 18.1054 14.0196 18.2929 14.2071C18.4804 14.3946 18.7348 14.5 19 14.5C19.2652 14.5 19.5196 14.3946 19.7071 14.2071C19.8946 14.0196 20 13.7652 20 13.5V7.5C20 7.23478 19.8946 6.98043 19.7071 6.79289C19.5196 6.60536 19.2652 6.5 19 6.5C18.7348 6.5 18.4804 6.60536 18.2929 6.79289C18.1054 6.98043 18 7.23478 18 7.5V9.5H5C4.73478 9.5 4.48043 9.60536 4.29289 9.79289C4.10536 9.98043 4 10.2348 4 10.5C4 10.7652 4.10536 11.0196 4.29289 11.2071C4.48043 11.3946 4.73478 11.5 5 11.5ZM27 21.5H15C14.7348 21.5 14.4804 21.6054 14.2929 21.7929C14.1054 21.9804 14 22.2348 14 22.5C14 22.7652 14.1054 23.0196 14.2929 23.2071C14.4804 23.3946 14.7348 23.5 15 23.5H27C27.2652 23.5 27.5196 23.3946 27.7071 23.2071C27.8946 23.0196 28 22.7652 28 22.5C28 22.2348 27.8946 21.9804 27.7071 21.7929C27.5196 21.6054 27.2652 21.5 27 21.5ZM11 18.5C10.7348 18.5 10.4804 18.6054 10.2929 18.7929C10.1054 18.9804 10 19.2348 10 19.5V21.5H5C4.73478 21.5 4.48043 21.6054 4.29289 21.7929C4.10536 21.9804 4 22.2348 4 22.5C4 22.7652 4.10536 23.0196 4.29289 23.2071C4.48043 23.3946 4.73478 23.5 5 23.5H10V25.5C10 25.7652 10.1054 26.0196 10.2929 26.2071C10.4804 26.3946 10.7348 26.5 11 26.5C11.2652 26.5 11.5196 26.3946 11.7071 26.2071C11.8946 26.0196 12 25.7652 12 25.5V19.5C12 19.2348 11.8946 18.9804 11.7071 18.7929C11.5196 18.6054 11.2652 18.5 11 18.5Z" fill="#3D3066"/>
</svg>
