<svg width="100" height="100" viewBox="0 0 100 100" fill="none" xmlns="http://www.w3.org/2000/svg">
<rect width="100" height="100" rx="8" fill="#0443AE"/>
<path d="M64 36.5H36C35.0734 36.5053 34.1862 36.8757 33.5309 37.5309C32.8757 38.1862 32.5053 39.0734 32.5 40V60C32.5053 60.9266 32.8757 61.8138 33.5309 62.4691C34.1862 63.1243 35.0734 63.4947 36 63.5H64C64.9266 63.4947 65.8138 63.1243 66.4691 62.4691C67.1243 61.8138 67.4947 60.9266 67.5 60V40C67.4947 39.0734 67.1243 38.1862 66.4691 37.5309C65.8138 36.8757 64.9266 36.5053 64 36.5ZM64.5 40V43.34H64.08C63.8409 43.3689 63.5991 43.3689 63.36 43.34H63.1C62.8747 43.2925 62.6538 43.2255 62.44 43.14H62.2C61.9146 43.0013 61.657 42.8115 61.44 42.58C61.1433 42.2871 60.9075 41.9384 60.7462 41.5539C60.5848 41.1695 60.5012 40.7569 60.5 40.34C60.5019 40.0624 60.5423 39.7865 60.62 39.52H64C64.1292 39.5199 64.2535 39.5698 64.3467 39.6593C64.4399 39.7488 64.4948 39.8709 64.5 40ZM36 39.5H39.38C39.4577 39.7665 39.4981 40.0424 39.5 40.32C39.4988 40.7369 39.4152 41.1495 39.2538 41.5339C39.0925 41.9184 38.8567 42.2671 38.56 42.56C38.3378 42.7856 38.0813 42.9746 37.8 43.12H37.54C37.3444 43.2171 37.1354 43.2845 36.92 43.32H36.64C36.4009 43.3489 36.1591 43.3489 35.92 43.32H35.5V40C35.5 39.8674 35.5527 39.7402 35.6464 39.6464C35.7402 39.5527 35.8674 39.5 36 39.5ZM35.5 60V56.66H35.92C36.1591 56.6311 36.4009 56.6311 36.64 56.66H36.9C37.1279 56.6971 37.3499 56.7643 37.56 56.86H37.8C38.0813 57.0054 38.3378 57.1944 38.56 57.42C38.8567 57.7129 39.0925 58.0616 39.2538 58.4461C39.4152 58.8305 39.4988 59.2431 39.5 59.66C39.4981 59.9376 39.4577 60.2135 39.38 60.48H36C35.8708 60.4801 35.7465 60.4302 35.6533 60.3407C35.5601 60.2512 35.5052 60.1291 35.5 60ZM42.44 60.5C42.4587 60.227 42.4587 59.953 42.44 59.68C42.4475 58.8679 42.2901 58.0628 41.9772 57.3133C41.6644 56.5639 41.2026 55.8857 40.62 55.32C40.326 55.0215 39.9969 54.7596 39.64 54.54L39.3 54.32C39.0673 54.1977 38.8268 54.0908 38.58 54L38.18 53.84C37.8333 53.7378 37.4788 53.6642 37.12 53.62C36.9138 53.5999 36.7062 53.5999 36.5 53.62H35.5V46.44H37.2C37.4709 46.3918 37.7382 46.3249 38 46.24L38.44 46.1C38.7456 45.9954 39.0403 45.8614 39.32 45.7L39.64 45.52C40.0134 45.2748 40.3618 44.9935 40.68 44.68C41.2626 44.1143 41.7244 43.4361 42.0372 42.6867C42.3501 41.9372 42.5075 41.1321 42.5 40.32C42.5187 40.047 42.5187 39.773 42.5 39.5H57.62C57.6013 39.773 57.6013 40.047 57.62 40.32C57.6125 41.1321 57.7699 41.9372 58.0828 42.6867C58.3956 43.4361 58.8574 44.1143 59.44 44.68C59.7543 44.9979 60.1031 45.2796 60.48 45.52L60.8 45.7C61.0797 45.8614 61.3744 45.9954 61.68 46.1L62.12 46.24C62.3888 46.3191 62.6628 46.3792 62.94 46.42H64.62V53.54H63.62C63.4138 53.5199 63.2062 53.5199 63 53.54C62.6412 53.5842 62.2867 53.6578 61.94 53.76L61.54 53.92C61.2717 54.0212 61.0111 54.1415 60.76 54.28L60.42 54.5C60.0631 54.7196 59.734 54.9815 59.44 55.28C58.8574 55.8457 58.3956 56.5239 58.0828 57.2733C57.7699 58.0228 57.6125 58.8279 57.62 59.64C57.6013 59.913 57.6013 60.187 57.62 60.46L42.44 60.5ZM64 60.5H60.62C60.5423 60.2335 60.5019 59.9576 60.5 59.68C60.5012 59.2631 60.5848 58.8505 60.7462 58.4661C60.9075 58.0816 61.1433 57.7329 61.44 57.44C61.657 57.2085 61.9146 57.0187 62.2 56.88H62.44C62.6538 56.7945 62.8747 56.7275 63.1 56.68H63.36C63.5991 56.6511 63.8409 56.6511 64.08 56.68H64.5V60C64.5 60.1326 64.4473 60.2598 64.3536 60.3536C64.2598 60.4473 64.1326 60.5 64 60.5Z" fill="white"/>
<path d="M50 43C48.6155 43 47.2622 43.4105 46.111 44.1797C44.9599 44.9489 44.0627 46.0421 43.5328 47.3212C43.003 48.6003 42.8644 50.0078 43.1345 51.3656C43.4046 52.7235 44.0713 53.9708 45.0503 54.9497C46.0292 55.9287 47.2765 56.5954 48.6344 56.8655C49.9922 57.1356 51.3997 56.997 52.6788 56.4672C53.9579 55.9373 55.0511 55.0401 55.8203 53.889C56.5895 52.7378 57 51.3845 57 50C57 48.1435 56.2625 46.363 54.9498 45.0503C53.637 43.7375 51.8565 43 50 43ZM50 54C49.2089 54 48.4355 53.7654 47.7777 53.3259C47.1199 52.8864 46.6072 52.2616 46.3045 51.5307C46.0017 50.7998 45.9225 49.9956 46.0769 49.2196C46.2312 48.4437 46.6122 47.731 47.1716 47.1716C47.731 46.6122 48.4437 46.2312 49.2196 46.0769C49.9956 45.9225 50.7998 46.0017 51.5307 46.3045C52.2616 46.6072 52.8864 47.1199 53.3259 47.7777C53.7654 48.4355 54 49.2089 54 50C54 51.0609 53.5786 52.0783 52.8284 52.8284C52.0783 53.5786 51.0609 54 50 54Z" fill="white"/>
</svg>
