<svg width="20" height="19" viewBox="0 0 20 19" fill="none" xmlns="http://www.w3.org/2000/svg">
<path d="M19.375 2V17C19.375 17.4973 19.1775 17.9742 18.8258 18.3258C18.4742 18.6775 17.9973 18.875 17.5 18.875H11.125C10.8267 18.875 10.5405 18.7565 10.3295 18.5455C10.1185 18.3345 10 18.0484 10 17.75C10 17.4516 10.1185 17.1655 10.3295 16.9545C10.5405 16.7435 10.8267 16.625 11.125 16.625H17.125V2.375H2.87502V10.625C2.87502 10.9234 2.75649 11.2095 2.54552 11.4205C2.33454 11.6315 2.04839 11.75 1.75002 11.75C1.45165 11.75 1.1655 11.6315 0.954525 11.4205C0.743547 11.2095 0.62502 10.9234 0.62502 10.625V2C0.62502 1.50272 0.822564 1.02581 1.1742 0.674175C1.52583 0.322544 2.00274 0.125 2.50002 0.125H17.5C17.9973 0.125 18.4742 0.322544 18.8258 0.674175C19.1775 1.02581 19.375 1.50272 19.375 2ZM10.046 11.7041C9.94144 11.5992 9.81725 11.516 9.6805 11.4592C9.54376 11.4024 9.39715 11.3732 9.24908 11.3732C9.10102 11.3732 8.95441 11.4024 8.81766 11.4592C8.68092 11.516 8.55672 11.5992 8.45221 11.7041L4.00002 16.1563L2.54596 14.7041C2.44131 14.5994 2.31708 14.5164 2.18035 14.4598C2.04362 14.4031 1.89708 14.374 1.74908 14.374C1.60109 14.374 1.45455 14.4031 1.31782 14.4598C1.18109 14.5164 1.05685 14.5994 0.952208 14.7041C0.847561 14.8087 0.76455 14.9329 0.707915 15.0697C0.651281 15.2064 0.622131 15.3529 0.622131 15.5009C0.622131 15.6489 0.651281 15.7955 0.707915 15.9322C0.76455 16.0689 0.847561 16.1932 0.952208 16.2978L3.20221 18.5478C3.30672 18.6527 3.43092 18.7359 3.56766 18.7927C3.70441 18.8495 3.85102 18.8787 3.99908 18.8787C4.14715 18.8787 4.29376 18.8495 4.4305 18.7927C4.56725 18.7359 4.69144 18.6527 4.79596 18.5478L10.046 13.2978C10.1508 13.1933 10.2341 13.0691 10.2908 12.9324C10.3476 12.7956 10.3768 12.649 10.3768 12.5009C10.3768 12.3529 10.3476 12.2063 10.2908 12.0695C10.2341 11.9328 10.1508 11.8086 10.046 11.7041Z" fill="white"/>
</svg>
