<svg width="26" height="26" viewBox="0 0 26 26" fill="none" xmlns="http://www.w3.org/2000/svg">
<path d="M21.9375 2.84375H8.9375C8.61427 2.84375 8.30427 2.97215 8.07571 3.20071C7.84715 3.42927 7.71875 3.73927 7.71875 4.0625V7.71875H4.0625C3.73927 7.71875 3.42927 7.84715 3.20071 8.07571C2.97215 8.30427 2.84375 8.61427 2.84375 8.9375V21.9375C2.84375 22.2607 2.97215 22.5707 3.20071 22.7993C3.42927 23.0278 3.73927 23.1562 4.0625 23.1562H17.0625C17.3857 23.1562 17.6957 23.0278 17.9243 22.7993C18.1528 22.5707 18.2812 22.2607 18.2812 21.9375V18.2812H21.9375C22.2607 18.2812 22.5707 18.1528 22.7993 17.9243C23.0278 17.6957 23.1562 17.3857 23.1562 17.0625V4.0625C23.1562 3.73927 23.0278 3.42927 22.7993 3.20071C22.5707 2.97215 22.2607 2.84375 21.9375 2.84375ZM15.8438 20.7188H5.28125V10.1562H15.8438V20.7188ZM20.7188 15.8438H18.2812V8.9375C18.2812 8.61427 18.1528 8.30427 17.9243 8.07571C17.6957 7.84715 17.3857 7.71875 17.0625 7.71875H10.1562V5.28125H20.7188V15.8438Z" fill="#3D3066"/>
</svg>
