<svg width="18" height="18" viewBox="0 0 18 18" fill="none" xmlns="http://www.w3.org/2000/svg">
<path d="M16.875 6.58125H15.9188V6.01875C15.9188 5.03437 15.1313 4.24688 14.1469 4.24688H14.1188V3.15C14.1188 2.3625 13.4719 1.6875 12.6563 1.6875H3.82501C2.95313 1.6875 2.25001 2.39063 2.25001 3.2625V3.6V7.425C1.18126 8.35313 0.506256 9.73125 0.506256 11.25C0.506256 14.0344 2.78438 16.3125 5.54063 16.3125C7.50938 16.3125 9.22501 15.1594 10.0406 13.5281H14.1469C15.1313 13.5281 15.9188 12.7406 15.9188 11.7562V10.4062H16.875C17.2125 10.4062 17.4938 10.125 17.4938 9.7875V7.22813C17.4938 6.8625 17.2125 6.58125 16.875 6.58125ZM3.48751 3.2625C3.48751 3.09375 3.62813 2.95312 3.79688 2.95312H12.6563C12.7688 2.95312 12.8813 3.0375 12.8813 3.17813V4.275H3.82501C3.65626 4.275 3.51563 4.13438 3.51563 3.96563V3.2625H3.48751ZM5.54063 15.0469C3.45938 15.0469 1.77188 13.3313 1.77188 11.25C1.77188 9.16875 3.45938 7.45312 5.54063 7.45312C7.62188 7.45312 9.30938 9.14062 9.30938 11.25C9.30938 13.3594 7.62188 15.0469 5.54063 15.0469ZM14.6531 11.7281C14.6531 12.0094 14.4281 12.2344 14.1469 12.2344H10.4906C10.5469 11.8969 10.6031 11.5875 10.6031 11.2219C10.6031 8.4375 8.32501 6.15937 5.56876 6.15937C4.83751 6.15937 4.16251 6.32812 3.51563 6.58125V5.45625C3.62813 5.48438 3.71251 5.48438 3.82501 5.48438H14.175C14.4563 5.48438 14.6813 5.70937 14.6813 5.99062V6.55312H13.8656C12.9938 6.55312 12.2906 7.25625 12.2906 8.12812V8.80312C12.2906 9.675 12.9938 10.3781 13.8656 10.3781H14.6813V11.7281H14.6531ZM16.2563 9.14062H13.8656C13.6969 9.14062 13.5563 9 13.5563 8.83125V8.15625C13.5563 7.9875 13.6969 7.84687 13.8656 7.84687H16.2563V9.14062Z" fill="white" fill-opacity="0.5"/>
<path d="M5.20323 10.2658H6.69386C7.03136 10.2658 7.31261 9.98457 7.31261 9.64707C7.31261 9.30957 7.03136 9.0002 6.69386 9.0002H6.41261V8.94394C6.41261 8.60644 6.13136 8.3252 5.79386 8.3252C5.45636 8.3252 5.17511 8.60644 5.17511 8.94394V9.0002C4.41573 9.02832 3.79698 9.64707 3.79698 10.4346C3.79698 11.2221 4.44386 11.8689 5.23136 11.8689H5.90636C5.99073 11.8689 6.07511 11.9533 6.07511 12.0377C6.07511 12.1221 5.99073 12.2064 5.90636 12.2064H4.41573C4.07823 12.2064 3.79698 12.4877 3.79698 12.8252C3.79698 13.1627 4.07823 13.4439 4.41573 13.4439H5.14698V13.5002C5.14698 13.8377 5.42823 14.1189 5.76573 14.1189C6.10323 14.1189 6.38448 13.8377 6.38448 13.5002V13.3596C6.91886 13.1627 7.31261 12.6283 7.31261 12.0377C7.31261 11.2502 6.66573 10.6033 5.87823 10.6033H5.20323C5.11886 10.6033 5.03448 10.5189 5.03448 10.4346C5.03448 10.3502 5.09073 10.2658 5.20323 10.2658Z" fill="white" fill-opacity="0.5"/>
</svg>
