<svg width="24" height="25" viewBox="0 0 24 25" fill="none" xmlns="http://www.w3.org/2000/svg">
<path d="M15.0459 13.2959L13.5938 14.75L15.0487 16.2041C15.2601 16.4154 15.3788 16.7021 15.3788 17.0009C15.3788 17.2998 15.2601 17.5865 15.0487 17.7978C14.8374 18.0092 14.5508 18.1279 14.2519 18.1279C13.953 18.1279 13.6663 18.0092 13.455 17.7978L12 16.3438L10.5459 17.7987C10.3346 18.0101 10.0479 18.1288 9.74906 18.1288C9.45018 18.1288 9.16353 18.0101 8.95219 17.7987C8.74084 17.5874 8.62211 17.3008 8.62211 17.0019C8.62211 16.703 8.74084 16.4163 8.95219 16.205L10.4062 14.75L8.95406 13.2959C8.84942 13.1913 8.7664 13.0671 8.70977 12.9303C8.65314 12.7936 8.62399 12.6471 8.62399 12.4991C8.62399 12.3511 8.65314 12.2045 8.70977 12.0678C8.7664 11.9311 8.84942 11.8068 8.95406 11.7022C9.05871 11.5975 9.18294 11.5145 9.31967 11.4579C9.4564 11.4013 9.60294 11.3721 9.75094 11.3721C9.89893 11.3721 10.0455 11.4013 10.1822 11.4579C10.3189 11.5145 10.4432 11.5975 10.5478 11.7022L12 13.1562L13.4541 11.7013C13.5587 11.5966 13.6829 11.5136 13.8197 11.457C13.9564 11.4003 14.1029 11.3712 14.2509 11.3712C14.3989 11.3712 14.5455 11.4003 14.6822 11.457C14.8189 11.5136 14.9432 11.5966 15.0478 11.7013C15.1525 11.8059 15.2355 11.9301 15.2921 12.0669C15.3487 12.2036 15.3779 12.3501 15.3779 12.4981C15.3779 12.6461 15.3487 12.7927 15.2921 12.9294C15.2355 13.0661 15.1525 13.1904 15.0478 13.295L15.0459 13.2959ZM21.375 5V20C21.375 20.4973 21.1775 20.9742 20.8258 21.3258C20.4742 21.6775 19.9973 21.875 19.5 21.875H4.5C4.00272 21.875 3.52581 21.6775 3.17417 21.3258C2.82254 20.9742 2.625 20.4973 2.625 20V5C2.625 4.50272 2.82254 4.02581 3.17417 3.67417C3.52581 3.32254 4.00272 3.125 4.5 3.125H6.375V2.75C6.375 2.45163 6.49353 2.16548 6.7045 1.9545C6.91548 1.74353 7.20163 1.625 7.5 1.625C7.79837 1.625 8.08452 1.74353 8.2955 1.9545C8.50647 2.16548 8.625 2.45163 8.625 2.75V3.125H15.375V2.75C15.375 2.45163 15.4935 2.16548 15.7045 1.9545C15.9155 1.74353 16.2016 1.625 16.5 1.625C16.7984 1.625 17.0845 1.74353 17.2955 1.9545C17.5065 2.16548 17.625 2.45163 17.625 2.75V3.125H19.5C19.9973 3.125 20.4742 3.32254 20.8258 3.67417C21.1775 4.02581 21.375 4.50272 21.375 5ZM4.875 5.375V7.625H19.125V5.375H17.625C17.625 5.67337 17.5065 5.95952 17.2955 6.1705C17.0845 6.38147 16.7984 6.5 16.5 6.5C16.2016 6.5 15.9155 6.38147 15.7045 6.1705C15.4935 5.95952 15.375 5.67337 15.375 5.375H8.625C8.625 5.67337 8.50647 5.95952 8.2955 6.1705C8.08452 6.38147 7.79837 6.5 7.5 6.5C7.20163 6.5 6.91548 6.38147 6.7045 6.1705C6.49353 5.95952 6.375 5.67337 6.375 5.375H4.875ZM19.125 19.625V9.875H4.875V19.625H19.125Z" fill="white"/>
</svg>
