<svg width="360" height="90" viewBox="0 0 360 90" fill="none" xmlns="http://www.w3.org/2000/svg">
<path d="M64.5854 66.4438H58.0101V16H64.5854V39.7161C66.0214 34.0694 69.9515 29.2509 77.1314 29.2509C84.3114 29.2509 88.7705 33.5424 88.7705 41.2972V66.4438H82.2708V42.8783C82.2708 38.135 80.3813 34.8223 74.1839 34.8223C67.1551 34.8223 64.5854 39.7161 64.5854 45.8146V66.4438Z" fill="white"/>
<path d="M109.943 67.1967C102.763 67.1967 98.3034 62.9052 98.3034 55.2257V30.0038H104.803V53.6446C104.803 58.3126 106.693 61.7006 112.89 61.7006C119.994 61.7006 122.564 56.7315 122.564 50.7084V30.0038H129.064V66.4438H122.564V56.5056C121.204 62.2276 117.274 67.1967 109.943 67.1967Z" fill="white"/>
<path d="M145.626 66.4438H139.05V16H145.626V39.4903C146.91 33.9188 150.387 29.2509 157.416 29.2509C166.712 29.2509 172.456 36.7798 172.456 48.2991C172.456 59.8184 166.712 67.3473 157.416 67.3473C150.387 67.3473 146.91 62.6794 145.626 57.1079V66.4438ZM145.626 50.9342C145.626 56.9574 148.195 61.8512 155.148 61.8512C161.044 61.8512 165.805 57.635 165.805 48.2991C165.805 39.0385 161.044 34.8223 155.148 34.8223C148.195 34.8223 145.626 39.7161 145.626 45.7393V50.9342Z" fill="white"/>
<path d="M193.853 67.1967C186.219 67.1967 179.266 63.884 176.772 57.1079L181.534 53.4188C182.818 57.5597 186.824 61.7006 194.08 61.7006C198.388 61.7006 201.26 60.0442 201.26 56.8068C201.26 53.4941 197.934 52.44 193.626 51.4612L188.789 50.3319C183.574 49.1273 177.906 46.6427 177.906 39.942C177.906 33.3165 183.045 29.2509 190.981 29.2509C198.69 29.2509 204.056 33.3165 206.097 38.135L201.108 41.8242C199.294 37.5327 195.818 34.8223 190.603 34.8223C186.824 34.8223 184.103 36.4787 184.103 39.5655C184.103 42.803 186.522 43.9323 191.51 45.1369L196.196 46.3416C204.434 48.2991 207.155 51.6871 207.155 56.7315C207.155 63.9593 200.957 67.1967 193.853 67.1967Z" fill="white"/>
<path d="M226.208 67.272C220.237 67.272 216.005 63.357 216.005 57.1079V35.1235H210.11V30.0038H216.005V25.3359L222.58 20.5174V30.0038H234.597V35.1235H222.58V55.1504C222.58 59.8184 224.772 60.9477 227.644 60.9477C230.894 60.9477 233.161 58.2373 234.144 55.9786L236.336 62.4535C234.748 64.938 231.272 67.272 226.208 67.272Z" fill="white"/>
<path d="M249.274 67.1967C243.076 67.1967 239.6 63.6581 239.6 58.8396C239.6 53.9458 243.303 50.8589 248.518 48.525L261.744 42.6524C261.517 38.3609 259.477 35.1988 253.733 35.1988C248.518 35.1988 245.041 38.2103 243.152 42.2007L238.693 37.608C240.884 33.8436 246.326 29.2509 254.489 29.2509C263.482 29.2509 268.319 34.5965 268.319 43.2547V58.2373C268.319 59.9689 269 60.496 270.36 60.496H272.703V66.4438H268.471C264.692 66.4438 261.971 64.6369 261.971 59.5172V56.9574C260.762 61.7759 256.831 67.1967 249.274 67.1967ZM246.251 57.7855C246.251 60.2701 247.989 61.7759 251.39 61.7759C257.587 61.7759 261.971 57.7103 261.971 52.44V47.3956L251.314 52.3647C247.838 54.0211 246.251 55.5269 246.251 57.7855Z" fill="white"/>
<path d="M295.361 67.1967C284.855 67.1967 278.129 59.8184 278.129 48.2238C278.129 36.7046 284.855 29.2509 295.361 29.2509C304.883 29.2509 310.476 34.747 312.215 42.0501L305.79 44.6852C305.035 38.8879 302.011 34.747 295.436 34.747C288.785 34.747 284.78 39.6408 284.78 48.2238C284.78 56.8068 288.785 61.7759 295.436 61.7759C302.011 61.7759 305.035 57.5597 305.79 51.7624L312.215 54.3975C310.476 61.7006 304.883 67.1967 295.361 67.1967Z" fill="white"/>
<path d="M326.379 66.4438H319.804V16H326.379V41.5984L326.152 46.718L331.518 41.4478L343.535 30.0038H351.773L336.733 44.1582L352 66.4438H344.064L332.198 48.2238L326.379 53.7199V66.4438Z" fill="white"/>
<path d="M32.9371 59.1365H43.0142V69.5208L40.6732 73H27.7534V62.3486L32.9371 59.1365Z" fill="white"/>
<path d="M32.7951 22.6783H43.0142V33.2103L40.6416 36.7367H27.5389V25.9375L32.7951 22.6783Z" fill="white"/>
<path d="M14.2563 22.6783H24.4754V33.2103L22.1028 36.7367H9V25.9375L14.2563 22.6783Z" fill="white"/>
<path d="M32.7951 40.6497H43.0142V51.1785L40.6416 54.7081H27.5389V43.9057L32.7951 40.6497Z" fill="white"/>
<path d="M14.2563 40.6497H24.4754V51.1785L22.1028 54.7081H9V43.9057L14.2563 40.6497Z" fill="white"/>
</svg>
