<svg width="364" height="89" viewBox="0 0 364 89" fill="none" xmlns="http://www.w3.org/2000/svg">
    <path d="M54.7312 46.8288V71H48.5576V17.4258H54.7312V37.0976H55.2544C56.1961 35.0222 57.6088 33.3742 59.4922 32.1534C61.3931 30.9152 63.9219 30.2961 67.0784 30.2961C69.8164 30.2961 72.2144 30.8455 74.2722 31.9442C76.3301 33.0254 77.9258 34.6909 79.0594 36.9406C80.2104 39.1729 80.7859 42.0155 80.7859 45.4685V71H74.6123V45.8871C74.6123 42.6956 73.7839 40.2279 72.1272 38.484C70.4878 36.7226 68.212 35.8419 65.2996 35.8419C63.2766 35.8419 61.4629 36.2692 59.8584 37.1237C58.2715 37.9782 57.0158 39.2252 56.0915 40.8645C55.1847 42.5038 54.7312 44.4919 54.7312 46.8288ZM117.402 54.572V30.8193H123.576V71H117.402V64.1986H116.984C116.042 66.239 114.577 67.9742 112.589 69.4043C110.601 70.8169 108.09 71.5232 105.055 71.5232C102.544 71.5232 100.312 70.9738 98.3584 69.8752C96.4052 68.759 94.8705 67.0848 93.7544 64.8526C92.6382 62.6029 92.0802 59.7689 92.0802 56.3508V30.8193H98.2538V55.9322C98.2538 58.8621 99.0734 61.199 100.713 62.9429C102.369 64.6869 104.48 65.5589 107.043 65.5589C108.578 65.5589 110.139 65.1665 111.726 64.3817C113.33 63.5969 114.673 62.3936 115.754 60.7717C116.853 59.1498 117.402 57.0833 117.402 54.572ZM135.72 71V17.4258H141.894V37.2022H142.417C142.871 36.5046 143.498 35.6152 144.301 34.5339C145.12 33.4353 146.289 32.4586 147.806 31.6041C149.341 30.7321 151.416 30.2961 154.032 30.2961C157.415 30.2961 160.397 31.142 162.978 32.8336C165.559 34.5252 167.574 36.9232 169.021 40.0274C170.469 43.1316 171.192 46.7939 171.192 51.0143C171.192 55.2695 170.469 58.958 169.021 62.0797C167.574 65.1839 165.568 67.5906 163.005 69.2996C160.441 70.9913 157.485 71.8371 154.137 71.8371C151.555 71.8371 149.489 71.4098 147.937 70.5553C146.385 69.6833 145.19 68.698 144.353 67.5993C143.516 66.4832 142.871 65.5589 142.417 64.8264H141.685V71H135.72ZM141.789 50.9097C141.789 53.9441 142.234 56.6211 143.123 58.9406C144.013 61.2426 145.312 63.0476 147.021 64.3555C148.73 65.6461 150.823 66.2913 153.299 66.2913C155.88 66.2913 158.034 65.6112 159.761 64.2509C161.505 62.8732 162.813 61.0246 163.685 58.7051C164.574 56.3682 165.019 53.7697 165.019 50.9097C165.019 48.0845 164.583 45.5383 163.711 43.2711C162.856 40.9866 161.557 39.1816 159.813 37.8562C158.087 36.5133 155.915 35.8419 153.299 35.8419C150.788 35.8419 148.678 36.4784 146.969 37.7515C145.26 39.0072 143.969 40.7686 143.097 43.0357C142.225 45.2854 141.789 47.9101 141.789 50.9097ZM209.097 39.8181L203.551 41.3877C203.203 40.4634 202.688 39.5652 202.008 38.6933C201.345 37.8039 200.438 37.0714 199.287 36.4959C198.136 35.9204 196.663 35.6326 194.867 35.6326C192.408 35.6326 190.358 36.1994 188.719 37.333C187.097 38.4491 186.286 39.8704 186.286 41.597C186.286 43.1316 186.844 44.3437 187.961 45.2331C189.077 46.1225 190.821 46.8637 193.192 47.4566L199.157 48.9216C202.749 49.7935 205.426 51.1277 207.188 52.9239C208.949 54.7028 209.83 56.9961 209.83 59.8038C209.83 62.1058 209.167 64.1637 207.842 65.9774C206.534 67.7911 204.702 69.2212 202.348 70.2675C199.994 71.3139 197.256 71.8371 194.134 71.8371C190.036 71.8371 186.644 70.9477 183.958 69.1688C181.272 67.39 179.572 64.7915 178.857 61.3734L184.717 59.9085C185.275 62.071 186.33 63.6928 187.882 64.7741C189.452 65.8553 191.501 66.396 194.029 66.396C196.907 66.396 199.192 65.7856 200.883 64.5648C202.592 63.3266 203.447 61.8442 203.447 60.1177C203.447 58.7226 202.959 57.5541 201.982 56.6124C201.005 55.6532 199.505 54.9382 197.482 54.4673L190.786 52.8978C187.106 52.0258 184.403 50.6742 182.676 48.8431C180.967 46.9945 180.113 44.6837 180.113 41.9109C180.113 39.6437 180.749 37.6382 182.022 35.8942C183.313 34.1503 185.066 32.7813 187.28 31.7872C189.513 30.7932 192.041 30.2961 194.867 30.2961C198.843 30.2961 201.964 31.1681 204.232 32.9121C206.516 34.656 208.138 36.958 209.097 39.8181ZM236.597 30.8193V36.0512H215.774V30.8193H236.597ZM221.843 21.1927H228.017V59.4899C228.017 61.2339 228.27 62.5418 228.776 63.4138C229.299 64.2683 229.961 64.8438 230.764 65.1403C231.583 65.4194 232.447 65.5589 233.353 65.5589C234.034 65.5589 234.592 65.524 235.028 65.4542C235.464 65.367 235.812 65.2973 236.074 65.245L237.33 70.7907C236.911 70.9477 236.327 71.1046 235.577 71.2616C234.827 71.436 233.877 71.5232 232.726 71.5232C230.982 71.5232 229.273 71.1482 227.598 70.3983C225.942 69.6484 224.564 68.5061 223.465 66.9715C222.384 65.4368 221.843 63.501 221.843 61.1641V21.1927ZM257.708 71.9417C255.162 71.9417 252.851 71.4621 250.776 70.503C248.7 69.5264 247.052 68.1225 245.831 66.2913C244.611 64.4427 244 62.2105 244 59.5945C244 57.2925 244.454 55.4265 245.361 53.9965C246.267 52.549 247.479 51.4154 248.997 50.5957C250.514 49.7761 252.188 49.1657 254.019 48.7646C255.868 48.3461 257.725 48.0147 259.591 47.7705C262.033 47.4566 264.012 47.2212 265.529 47.0642C267.064 46.8898 268.18 46.6021 268.878 46.201C269.593 45.7999 269.95 45.1023 269.95 44.1082V43.899C269.95 41.3179 269.244 39.3124 267.831 37.8823C266.436 36.4523 264.317 35.7373 261.475 35.7373C258.527 35.7373 256.217 36.3825 254.542 37.6731C252.868 38.9636 251.691 40.3413 251.011 41.8062L245.151 39.7135C246.198 37.2719 247.593 35.371 249.337 34.0108C251.098 32.633 253.016 31.6739 255.092 31.1332C257.185 30.5752 259.242 30.2961 261.265 30.2961C262.556 30.2961 264.038 30.4531 265.712 30.767C267.404 31.0635 269.035 31.6826 270.604 32.6243C272.191 33.566 273.508 34.9874 274.554 36.8883C275.601 38.7892 276.124 41.3354 276.124 44.5268V71H269.95V65.5589H269.636C269.218 66.4308 268.52 67.3639 267.544 68.3579C266.567 69.352 265.268 70.1978 263.646 70.8954C262.024 71.5929 260.045 71.9417 257.708 71.9417ZM258.649 66.396C261.091 66.396 263.149 65.9164 264.823 64.9572C266.515 63.998 267.788 62.7598 268.642 61.2426C269.514 59.7253 269.95 58.1296 269.95 56.4554V50.805C269.689 51.1189 269.113 51.4067 268.224 51.6683C267.352 51.9124 266.34 52.1304 265.189 52.3223C264.056 52.4967 262.948 52.6536 261.867 52.7931C260.803 52.9152 259.94 53.0198 259.277 53.107C257.673 53.3163 256.173 53.6564 254.778 54.1273C253.4 54.5807 252.284 55.2695 251.43 56.1938C250.592 57.1007 250.174 58.3389 250.174 59.9085C250.174 62.0535 250.967 63.6754 252.554 64.7741C254.159 65.8553 256.19 66.396 258.649 66.396ZM303.715 71.8371C299.948 71.8371 296.705 70.9477 293.984 69.1688C291.264 67.39 289.171 64.9398 287.706 61.8181C286.241 58.6964 285.509 55.13 285.509 51.1189C285.509 47.0381 286.258 43.4368 287.758 40.3151C289.275 37.176 291.386 34.7258 294.089 32.9644C296.809 31.1856 299.983 30.2961 303.611 30.2961C306.436 30.2961 308.982 30.8193 311.249 31.8657C313.516 32.9121 315.374 34.377 316.821 36.2605C318.269 38.1439 319.167 40.3413 319.516 42.8526H313.342C312.871 41.0214 311.825 39.3996 310.203 37.987C308.598 36.5569 306.436 35.8419 303.715 35.8419C301.309 35.8419 299.199 36.4697 297.385 37.7254C295.589 38.9636 294.185 40.7163 293.173 42.9834C292.179 45.2331 291.682 47.8752 291.682 50.9097C291.682 54.0139 292.17 56.717 293.147 59.019C294.141 61.3211 295.536 63.1086 297.333 64.3817C299.146 65.6548 301.274 66.2913 303.715 66.2913C305.32 66.2913 306.776 66.0123 308.084 65.4542C309.392 64.8962 310.499 64.0939 311.406 63.0476C312.313 62.0012 312.958 60.7456 313.342 59.2806H319.516C319.167 61.6524 318.304 63.7888 316.926 65.6897C315.566 67.5731 313.761 69.0729 311.511 70.1891C309.279 71.2878 306.68 71.8371 303.715 71.8371ZM334.296 56.3508L334.191 48.7123H335.447L353.026 30.8193H360.664L341.934 49.7587H341.411L334.296 56.3508ZM328.541 71V17.4258H334.714V71H328.541ZM354.072 71L338.376 51.1189L342.771 46.8288L361.92 71H354.072Z" fill="white"/>
    <path d="M23.3308 60.1987H33.1496V70.3559L30.871 73.76H18.2783V63.3384L23.3308 60.1987Z" fill="white"/>
    <path d="M23.1894 24.5242H33.1498V34.8289L30.8373 38.2792H18.0693V27.7131L23.1894 24.5242Z" fill="white"/>
    <path d="M5.12008 24.5242H15.0804V34.8289L12.7679 38.2792H0V27.7131L5.12008 24.5242Z" fill="white"/>
    <path d="M23.1894 42.1079H33.1498V52.4127L30.8373 55.8629H18.0693V45.2937L23.1894 42.1079Z" fill="white"/>
    <path d="M5.12008 42.1079H15.0804V52.4127L12.7679 55.8629H0V45.2937L5.12008 42.1079Z" fill="white"/>
</svg>
