<svg width="100" height="96" viewBox="0 0 100 96" fill="none" xmlns="http://www.w3.org/2000/svg">
<path d="M98.2814 89.5564L7.52094 95.7846C7.27313 95.8013 7.02866 95.7209 6.84119 95.561C6.65372 95.4012 6.53856 95.1749 6.52095 94.9318L0.33222 8.13288C0.315162 7.88977 0.397095 7.64995 0.560051 7.46603C0.723008 7.28212 0.953689 7.16913 1.20146 7.15185L91.9619 0.923648C92.2097 0.906909 92.4542 0.987292 92.6417 1.14716C92.8291 1.30703 92.9443 1.53333 92.9619 1.7764L99.1506 88.5753C99.1677 88.8184 99.0857 89.0583 98.9228 89.2422C98.7598 89.4261 98.5292 89.5391 98.2814 89.5564Z" fill="#F0F0F0"/>
<path d="M85.3433 11.8956H14.1398C13.8914 11.896 13.6533 11.993 13.4777 12.1653C13.3021 12.3375 13.2033 12.5711 13.2029 12.8148V66.9413C13.2033 67.185 13.3021 67.4186 13.4777 67.5909C13.6533 67.7632 13.8914 67.8601 14.1398 67.8605H85.3433C85.5916 67.8601 85.8297 67.7632 86.0053 67.5909C86.1809 67.4186 86.2798 67.185 86.2802 66.9413V12.8148C86.2798 12.5711 86.1809 12.3375 86.0053 12.1653C85.8297 11.993 85.5916 11.896 85.3433 11.8956Z" fill="white"/>
<path d="M81.2832 78.4813H18.1995C18.0615 78.4811 17.9292 78.4272 17.8316 78.3315C17.734 78.2358 17.6791 78.106 17.679 77.9706V75.1111C17.6791 74.9757 17.734 74.8459 17.8316 74.7502C17.9292 74.6545 18.0615 74.6006 18.1995 74.6005H81.2832C81.4212 74.6006 81.5535 74.6545 81.6511 74.7502C81.7487 74.8459 81.8036 74.9757 81.8037 75.1111V77.9706C81.8036 78.106 81.7487 78.2358 81.6511 78.3315C81.5535 78.4272 81.4212 78.4811 81.2832 78.4813Z" fill="white"/>
<path d="M59.4225 85.426H18.1995C18.0615 85.4258 17.9292 85.372 17.8316 85.2762C17.734 85.1805 17.6791 85.0507 17.679 84.9153V82.0558C17.6791 81.9204 17.734 81.7906 17.8316 81.6949C17.9292 81.5992 18.0615 81.5453 18.1995 81.5452H59.4225C59.5605 81.5453 59.6928 81.5992 59.7904 81.6949C59.888 81.7906 59.9429 81.9204 59.943 82.0558V84.9153C59.9429 85.0507 59.888 85.1805 59.7904 85.2762C59.6928 85.372 59.5605 85.4258 59.4225 85.426Z" fill="white"/>
<path d="M67.2676 67.8603C67.6694 66.4408 67.9817 65.2173 68.142 64.3513C68.1915 64.0842 68.1964 63.8111 68.1566 63.5425C67.5569 59.3573 56.7265 55.8197 55.3378 55.3826L55.0026 51.7388L41.3699 50.2988L39.6439 54.9598L34.7513 56.7593C34.5742 56.8234 34.4057 56.9085 34.2495 57.0125C33.8392 57.2844 33.5235 57.6731 33.3452 58.1263C33.1669 58.5795 33.1345 59.0754 33.2523 59.5473L35.3363 67.8603L67.2676 67.8603Z" fill="#507FFF"/>
<path d="M39.0067 67.8603H28.4282C28.8072 65.5441 29.1465 63.4954 29.3672 62.1923C30.175 57.4496 33.6977 57.0452 34.2494 57.0125C34.2932 57.0084 34.3202 57.0084 34.3223 57.0084H36.5479L39.0067 67.8603Z" fill="#507FFF"/>
<path d="M67.2675 67.8605H69.8325C69.6056 65.816 68.8852 64.4393 68.1565 63.5427C67.6701 62.9123 67.0426 62.4001 66.3223 62.0455L66.1287 61.9638L63.8739 67.8605H67.2675Z" fill="#507FFF"/>
<path d="M47.6536 47.9926C53.0747 47.9926 57.4694 43.6812 57.4694 38.3628C57.4694 33.0444 53.0747 28.733 47.6536 28.733C42.2325 28.733 37.8378 33.0444 37.8378 38.3628C37.8378 43.6812 42.2325 47.9926 47.6536 47.9926Z" fill="#A0616A"/>
<path d="M41.0651 33.6709C42.0813 34.8506 43.8007 35.1833 45.387 35.3187C48.6086 35.5959 53.2928 35.1463 56.4412 34.4333C56.6673 36.5697 56.0535 38.8735 57.3359 40.6312C57.9372 38.5034 58.2868 36.3147 58.3779 34.1085C58.4167 33.1623 58.4015 32.1834 58.0097 31.3148C57.6179 30.4462 56.7629 29.7089 55.7787 29.7013C56.51 29.1571 57.3666 28.798 58.2729 28.6556L55.1563 27.119L55.9567 26.3128L50.3141 25.9741L51.9485 24.9556C49.4878 24.6241 46.9984 24.5473 44.5213 24.7265C43.3714 24.8095 42.1692 24.9683 41.2376 25.622C40.3061 26.2758 39.7676 27.5747 40.3461 28.5342C39.622 28.6509 38.9403 28.9469 38.3655 29.3944C37.7907 29.8419 37.3418 30.4259 37.0615 31.0911C36.6461 32.1242 36.6842 33.2716 36.8121 34.3725C37.0246 36.133 37.4417 37.864 38.0551 39.5316" fill="#2F2E41"/>
</svg>
