<svg width="26" height="26" viewBox="0 0 26 26" fill="none" xmlns="http://www.w3.org/2000/svg">
<path d="M21.9375 13.8127H20.3125V12.1877H21.9375C22.153 12.1877 22.3597 12.1021 22.512 11.9498C22.6644 11.7974 22.75 11.5907 22.75 11.3752C22.75 11.1597 22.6644 10.9531 22.512 10.8007C22.3597 10.6483 22.153 10.5627 21.9375 10.5627H20.3125V4.67211C20.3125 4.45662 20.2269 4.24996 20.0745 4.09758C19.9222 3.94521 19.7155 3.85961 19.5 3.85961C19.2845 3.85961 19.0778 3.94521 18.9255 4.09758C18.7731 4.24996 18.6875 4.45662 18.6875 4.67211V10.5627H12.1286L7.14086 4.17242C7.03681 4.03891 6.89366 3.94123 6.73141 3.89303C6.56915 3.84482 6.3959 3.84849 6.23583 3.90352C6.07576 3.95855 5.93688 4.0622 5.83857 4.2C5.74027 4.33779 5.68745 4.50284 5.6875 4.67211V10.5627H4.0625C3.84701 10.5627 3.64035 10.6483 3.48798 10.8007C3.3356 10.9531 3.25 11.1597 3.25 11.3752C3.25 11.5907 3.3356 11.7974 3.48798 11.9498C3.64035 12.1021 3.84701 12.1877 4.0625 12.1877H5.6875V13.8127H4.0625C3.84701 13.8127 3.64035 13.8983 3.48798 14.0507C3.3356 14.2031 3.25 14.4097 3.25 14.6252C3.25 14.8407 3.3356 15.0474 3.48798 15.1998C3.64035 15.3521 3.84701 15.4377 4.0625 15.4377H5.6875V21.3284C5.6875 21.5438 5.7731 21.7505 5.92548 21.9029C6.07785 22.0553 6.28451 22.1409 6.5 22.1409C6.71549 22.1409 6.92215 22.0553 7.07452 21.9029C7.2269 21.7505 7.3125 21.5438 7.3125 21.3284V15.4377H13.8714L18.8591 21.828C18.9351 21.9255 19.0324 22.0043 19.1434 22.0585C19.2545 22.1127 19.3764 22.1409 19.5 22.1409C19.5899 22.1411 19.6792 22.1259 19.7641 22.0962C19.924 22.0412 20.0628 21.9377 20.1612 21.8C20.2595 21.6624 20.3124 21.4975 20.3125 21.3284V15.4377H21.9375C22.153 15.4377 22.3597 15.3521 22.512 15.1998C22.6644 15.0474 22.75 14.8407 22.75 14.6252C22.75 14.4097 22.6644 14.2031 22.512 14.0507C22.3597 13.8983 22.153 13.8127 21.9375 13.8127ZM18.6875 12.1877V13.8127H14.6646L13.3961 12.1877H18.6875ZM7.3125 7.03344L10.0669 10.5627H7.3125V7.03344ZM7.3125 13.8127V12.1877H11.3354L12.6039 13.8127H7.3125ZM18.6875 18.967L15.9331 15.4377H18.6875V18.967Z" fill="#111111"/>
</svg>
