<svg width="3" height="4" viewBox="0 0 3 4" fill="none" xmlns="http://www.w3.org/2000/svg">
<path opacity="0.977" fill-rule="evenodd" clip-rule="evenodd" d="M1.01383 0.927734C1.18961 1.09181 1.36539 1.25585 1.54117 1.41992C1.49716 1.54898 1.43859 1.67203 1.36539 1.78906C1.58804 2.01171 1.81072 2.23439 2.03336 2.45703C2.16653 2.43777 2.29542 2.39674 2.42008 2.33398C2.5761 2.47236 2.72843 2.61882 2.87711 2.77344C2.84491 2.78321 2.82149 2.80079 2.8068 2.82617C2.5774 2.93495 2.34302 3.03454 2.10367 3.125C2.03336 3.14845 1.96305 3.14845 1.89274 3.125C1.51291 2.78036 1.14377 2.42293 0.785314 2.05273C0.733177 1.94016 0.721435 1.82295 0.750157 1.70117C0.849755 1.47853 0.949388 1.25585 1.04899 1.0332C1.02694 1.00096 1.0152 0.965809 1.01383 0.927734Z" fill="white"/>
</svg>
