<svg width="18" height="18" viewBox="0 0 18 18" fill="none" xmlns="http://www.w3.org/2000/svg">
<g clip-path="url(#clip0_1333_1037)">
<path opacity="0.98" fill-rule="evenodd" clip-rule="evenodd" d="M10.459 0.263914C10.9747 0.258058 11.4904 0.263917 12.0059 0.281492C12.0469 0.322508 12.0879 0.363522 12.1289 0.404539C12.2241 0.673485 12.3354 0.931296 12.4629 1.17798C12.8027 1.52954 13.1426 1.8811 13.4824 2.23266C13.1841 2.08948 12.8794 1.95471 12.5684 1.82837C12.3809 1.76977 12.1933 1.71118 12.0059 1.65259C11.8584 1.40392 11.7412 1.14024 11.6543 0.861571C11.4329 0.826544 11.2102 0.814823 10.9863 0.826414C10.8105 0.638915 10.6348 0.451413 10.459 0.263914Z" fill="white"/>
<path opacity="0.968" fill-rule="evenodd" clip-rule="evenodd" d="M10.459 0.263734C10.6348 0.451233 10.8105 0.638736 10.9863 0.826234C10.8783 0.815076 10.7729 0.826793 10.6699 0.861391C10.569 1.11589 10.4635 1.36785 10.3535 1.61725C10.1791 1.68716 10.0033 1.75161 9.82617 1.81061C9.68347 1.63265 9.5194 1.48031 9.33398 1.35358C9.51529 1.27737 9.70277 1.20706 9.89648 1.14264C10.0076 0.873411 10.119 0.603882 10.2305 0.334047C10.2972 0.280739 10.3733 0.257301 10.459 0.263734Z" fill="white"/>
<path opacity="0.957" fill-rule="evenodd" clip-rule="evenodd" d="M12.4629 1.17773C12.8291 1.26663 13.1748 1.40726 13.5 1.59961C13.7651 1.4585 14.0405 1.34131 14.3262 1.24805C14.3717 1.26908 14.4186 1.28666 14.4668 1.30078C14.8359 1.66992 15.2051 2.03906 15.5742 2.4082C15.5977 2.50195 15.5977 2.5957 15.5742 2.68945C15.4698 2.91592 15.3702 3.14443 15.2754 3.375C15.4485 3.68005 15.5774 4.00233 15.6621 4.3418C15.6644 4.3572 15.6586 4.36894 15.6445 4.37695C15.3152 4.0417 14.9812 3.71359 14.6426 3.39258C14.732 3.12087 14.8199 2.85134 14.9062 2.58398C14.6836 2.36133 14.4609 2.13867 14.2383 1.91602C13.9958 2.04609 13.7439 2.15156 13.4824 2.23242C13.1426 1.88086 12.8027 1.5293 12.4629 1.17773Z" fill="white"/>
<path opacity="0.969" fill-rule="evenodd" clip-rule="evenodd" d="M9.33398 1.35352C9.5194 1.48024 9.68347 1.63259 9.82617 1.81055C9.51606 1.90699 9.2231 2.04175 8.94727 2.21484C8.87695 2.23828 8.80664 2.23828 8.73633 2.21484C8.51688 2.11976 8.30011 2.02014 8.08594 1.91602C8.00262 2.00526 7.91473 2.08729 7.82227 2.16211C7.7168 1.98633 7.57617 1.8457 7.40039 1.74023C7.55793 1.52396 7.75716 1.3599 7.99805 1.24805C8.28369 1.34131 8.55911 1.4585 8.82422 1.59961C8.98794 1.50309 9.15785 1.42106 9.33398 1.35352Z" fill="white"/>
<path opacity="0.974" fill-rule="evenodd" clip-rule="evenodd" d="M7.4004 1.74023C7.57618 1.8457 7.71681 1.98633 7.82227 2.16211C7.67546 2.3148 7.53484 2.473 7.4004 2.63672C7.51431 2.87608 7.60807 3.12217 7.68165 3.375C7.63159 3.57448 7.54957 3.75609 7.43556 3.91992C7.32059 3.74625 7.17997 3.59392 7.01368 3.46289C7.01505 3.42481 7.02679 3.38965 7.04884 3.35742C6.94924 3.13477 6.84961 2.91211 6.75001 2.68945C6.72656 2.5957 6.72656 2.50195 6.75001 2.4082C6.94938 2.16783 7.16619 1.94517 7.4004 1.74023Z" fill="white"/>
<path opacity="0.971" fill-rule="evenodd" clip-rule="evenodd" d="M11.0215 2.9707C11.2018 3.16868 11.3894 3.36204 11.584 3.55078C11.5644 3.56425 11.5527 3.58182 11.5488 3.60352C10.8753 3.4994 10.2776 3.66346 9.75586 4.0957C9.64097 3.93374 9.51205 3.78137 9.36914 3.63867C9.84006 3.23139 10.3909 3.00874 11.0215 2.9707Z" fill="white"/>
<path opacity="0.971" fill-rule="evenodd" clip-rule="evenodd" d="M11.0215 2.9707C12.3361 2.98017 13.2443 3.58956 13.7461 4.79883C13.9704 5.48989 13.9411 6.16957 13.6582 6.83789C13.4941 6.69727 13.3418 6.54493 13.2012 6.38086C13.4703 5.17736 13.0601 4.29258 11.9707 3.72656C11.8326 3.67464 11.6919 3.63361 11.5488 3.60352C11.5527 3.58182 11.5644 3.56425 11.584 3.55078C11.3894 3.36204 11.2018 3.16868 11.0215 2.9707Z" fill="white"/>
<path opacity="0.958" fill-rule="evenodd" clip-rule="evenodd" d="M14.6426 3.39258C14.9813 3.71359 15.3152 4.0417 15.6446 4.37695C15.6586 4.36894 15.6644 4.3572 15.6622 4.3418C15.6853 4.37337 15.7087 4.40852 15.7325 4.44727C15.9509 4.54549 16.1736 4.63338 16.4004 4.71094C16.4862 4.73815 16.5507 4.79088 16.5938 4.86914C16.6114 5.38464 16.6173 5.90027 16.6114 6.41602C16.4251 6.24737 16.2435 6.07159 16.0665 5.88867C16.0591 5.94345 16.0415 5.99031 16.0137 6.0293C16.0196 5.75951 16.0137 5.48996 15.9961 5.2207C15.7312 5.11689 15.4734 4.99968 15.2227 4.86914C15.1036 4.39439 14.9161 3.94907 14.6602 3.5332C14.643 3.48774 14.6371 3.44086 14.6426 3.39258Z" fill="white"/>
<path opacity="0.974" fill-rule="evenodd" clip-rule="evenodd" d="M7.01367 3.46289C7.17996 3.59392 7.32059 3.74625 7.43555 3.91992C7.29998 4.22698 7.18864 4.54338 7.10156 4.86914C6.87231 4.99834 6.63209 5.10381 6.38086 5.18555C6.26368 4.99806 6.11132 4.84569 5.92383 4.72852C6.15287 4.62871 6.38139 4.52324 6.60938 4.41211C6.70721 4.07626 6.84197 3.75986 7.01367 3.46289Z" fill="white"/>
<path opacity="0.969" fill-rule="evenodd" clip-rule="evenodd" d="M12.2167 5.53761C12.0774 5.38068 11.9309 5.22831 11.7772 5.08058C11.7638 5.10013 11.7462 5.11184 11.7245 5.11574C11.656 4.63617 11.3865 4.45452 10.9159 4.57082C10.7912 4.64278 10.6974 4.74238 10.6347 4.86965C10.4857 4.77374 10.3509 4.65656 10.2304 4.51808C10.2134 4.48476 10.2076 4.4496 10.2128 4.41261C10.6386 3.90197 11.1542 3.79063 11.7597 4.07863C12.2846 4.45202 12.4369 4.93834 12.2167 5.53761Z" fill="white"/>
<path opacity="0.973" fill-rule="evenodd" clip-rule="evenodd" d="M9.36914 3.63867C9.51205 3.78137 9.64097 3.93374 9.75586 4.0957C9.35518 4.4517 9.1208 4.89698 9.05273 5.43164C8.86725 5.29323 8.69147 5.14086 8.52539 4.97461C8.6786 4.44681 8.95985 4.00148 9.36914 3.63867Z" fill="white"/>
<path opacity="0.973" fill-rule="evenodd" clip-rule="evenodd" d="M10.2129 4.41211C10.2077 4.44909 10.2135 4.48425 10.2305 4.51758C10.351 4.65606 10.4858 4.77323 10.6348 4.86914C10.5581 5.41357 10.7925 5.65966 11.3379 5.60742C11.949 6.25377 12.5819 6.87488 13.2363 7.4707C12.8782 7.91371 12.4211 8.2067 11.8652 8.34961C11.7175 8.10766 11.5183 7.93188 11.2676 7.82227C11.7534 7.8069 12.1752 7.63699 12.5332 7.3125C12.2028 6.43827 11.5817 6.11016 10.6699 6.32812C10.4873 6.40164 10.3232 6.50123 10.1777 6.62695C10.0488 6.48633 9.91993 6.3457 9.79102 6.20508C9.92872 6.05018 10.0928 5.92713 10.2832 5.83594C9.93762 5.37525 9.9142 4.90064 10.2129 4.41211Z" fill="white"/>
<path opacity="0.969" fill-rule="evenodd" clip-rule="evenodd" d="M8.52538 4.97461C8.69146 5.14086 8.86724 5.29323 9.05273 5.43164C8.9879 5.89148 9.06992 6.32507 9.29882 6.73242C9.32227 6.77929 9.34569 6.77929 9.36913 6.73242C9.46821 6.52208 9.60883 6.3463 9.79101 6.20508C9.91993 6.3457 10.0488 6.48633 10.1777 6.62695C9.99453 6.8291 9.86565 7.06345 9.79101 7.33008C10.2184 7.68347 10.7106 7.84754 11.2676 7.82227C11.5183 7.93188 11.7175 8.10766 11.8652 8.34961C10.4048 8.63009 9.33257 8.11445 8.64843 6.80273C8.40276 6.2055 8.36173 5.5961 8.52538 4.97461Z" fill="white"/>
<path opacity="0.979" fill-rule="evenodd" clip-rule="evenodd" d="M12.2168 5.53711C12.1811 5.64922 12.1226 5.74882 12.041 5.83594C12.459 6.05464 12.7695 6.37692 12.9727 6.80273C13.0593 6.66443 13.1355 6.5238 13.2012 6.38086C13.3418 6.54493 13.4941 6.69727 13.6582 6.83789C13.552 7.07432 13.4114 7.28525 13.2363 7.4707C12.5819 6.87487 11.949 6.25377 11.3379 5.60742C11.5502 5.51183 11.6791 5.34776 11.7246 5.11523C11.7463 5.11133 11.7639 5.09962 11.7773 5.08008C11.931 5.2278 12.0775 5.38017 12.2168 5.53711Z" fill="white"/>
<path opacity="0.965" fill-rule="evenodd" clip-rule="evenodd" d="M5.92384 4.72852C6.11133 4.84569 6.26369 4.99806 6.38087 5.18555C6.35918 5.18945 6.3416 5.20116 6.32813 5.2207C6.29888 5.54945 6.30475 5.87756 6.34571 6.20508C6.54357 6.28471 6.74277 6.36086 6.94337 6.43359C7.00616 6.46119 7.05889 6.50218 7.10157 6.55664C7.2313 7.02696 7.41882 7.47229 7.66407 7.89258C7.69195 8.08436 7.65092 8.26014 7.54102 8.41992C7.36524 8.25585 7.18946 8.09181 7.01368 7.92773C6.82862 7.63727 6.69386 7.32087 6.60938 6.97852C6.34828 6.86264 6.08461 6.75134 5.81837 6.64453C5.77615 6.61279 5.74683 6.57179 5.73048 6.52148C5.70703 5.97069 5.70703 5.41993 5.73048 4.86914C5.76627 4.78378 5.83074 4.73688 5.92384 4.72852Z" fill="white"/>
<path opacity="0.971" fill-rule="evenodd" clip-rule="evenodd" d="M16.6113 6.41602C16.6096 6.50739 16.5744 6.58357 16.5059 6.64453C16.2481 6.75 15.9902 6.85547 15.7324 6.96094C15.6716 7.13805 15.6013 7.30796 15.5215 7.4707C15.3788 7.32779 15.2264 7.19887 15.0645 7.08398C15.1008 6.90363 15.1535 6.72785 15.2227 6.55664C15.2653 6.50218 15.3181 6.46119 15.3809 6.43359C15.5815 6.36086 15.7807 6.28471 15.9785 6.20508C16.012 6.15076 16.0237 6.09216 16.0137 6.0293C16.0414 5.99031 16.059 5.94345 16.0664 5.88867C16.2434 6.07159 16.4251 6.24737 16.6113 6.41602Z" fill="white"/>
<path opacity="0.967" fill-rule="evenodd" clip-rule="evenodd" d="M15.0645 7.08398C15.2264 7.19887 15.3788 7.32779 15.5215 7.4707C15.4547 7.66902 15.3726 7.86238 15.2754 8.05078C15.375 8.2793 15.4746 8.50781 15.5742 8.73633C15.5977 8.81835 15.5977 8.9004 15.5742 8.98242C15.4452 9.15244 15.2987 9.30477 15.1348 9.43945C14.9919 9.29675 14.8629 9.14439 14.7481 8.98242C14.813 8.91155 14.8716 8.83536 14.9238 8.75391C14.8359 8.56055 14.7481 8.36719 14.6602 8.17383C14.6367 8.08007 14.6367 7.98634 14.6602 7.89258C14.8151 7.62961 14.9499 7.3601 15.0645 7.08398Z" fill="white"/>
<path opacity="0.977" fill-rule="evenodd" clip-rule="evenodd" d="M7.01383 7.92773C7.18961 8.09181 7.36539 8.25585 7.54117 8.41992C7.49716 8.54898 7.43859 8.67203 7.36539 8.78906C7.58804 9.01171 7.81072 9.23439 8.03336 9.45703C8.16653 9.43777 8.29542 9.39674 8.42008 9.33398C8.5761 9.47236 8.72843 9.61882 8.87711 9.77344C8.84491 9.78321 8.82149 9.80079 8.8068 9.82617C8.5774 9.93495 8.34302 10.0345 8.10367 10.125C8.03336 10.1484 7.96305 10.1484 7.89274 10.125C7.51291 9.78036 7.14377 9.42293 6.78531 9.05273C6.73318 8.94016 6.72143 8.82295 6.75016 8.70117C6.84975 8.47853 6.94939 8.25585 7.04899 8.0332C7.02694 8.00096 7.0152 7.96581 7.01383 7.92773Z" fill="white"/>
<path opacity="0.966" fill-rule="evenodd" clip-rule="evenodd" d="M11.6895 10.4941C11.8535 10.6231 12.0176 10.7519 12.1816 10.8809C12.1489 10.9993 12.0786 11.0872 11.9707 11.1445C11.4317 11.168 10.8926 11.168 10.3535 11.1445C10.2907 11.1169 10.238 11.0759 10.1953 11.0215C10.1093 10.7634 10.0097 10.5114 9.89648 10.2656C9.5201 10.15 9.15683 10.0035 8.80664 9.82617C8.82134 9.80079 8.84475 9.78321 8.87695 9.77344C8.72828 9.61882 8.57595 9.47236 8.41992 9.33398C8.55939 9.25819 8.70585 9.19962 8.85938 9.1582C9.30712 9.41421 9.78173 9.60757 10.2832 9.73828C10.3242 9.77931 10.3652 9.8203 10.4062 9.86133C10.4874 10.0932 10.5753 10.3217 10.6699 10.5469C11.0188 10.5855 11.3586 10.5679 11.6895 10.4941Z" fill="white"/>
<path opacity="0.972" fill-rule="evenodd" clip-rule="evenodd" d="M14.748 8.98242C14.8629 9.14439 14.9919 9.29675 15.1348 9.43945C14.9181 9.68541 14.6837 9.91392 14.4316 10.125C14.3496 10.1484 14.2676 10.1484 14.1855 10.125C13.9591 10.0206 13.7306 9.92095 13.5 9.82617C13.4683 9.83471 13.439 9.84646 13.4121 9.86133C13.2782 9.68013 13.1141 9.53951 12.9199 9.43945C13.0923 9.33275 13.2739 9.23899 13.4648 9.1582C13.722 9.24859 13.9739 9.35406 14.2207 9.47461C14.3972 9.3098 14.573 9.14572 14.748 8.98242Z" fill="white"/>
<path opacity="0.965" fill-rule="evenodd" clip-rule="evenodd" d="M12.9199 9.43945C13.1141 9.53951 13.2782 9.68013 13.4121 9.86133C13.0965 10.0249 12.7684 10.1597 12.4277 10.2656C12.3284 10.4639 12.2464 10.669 12.1816 10.8809C12.0176 10.7519 11.8535 10.6231 11.6895 10.4941C11.7564 10.2164 11.8736 9.96441 12.041 9.73828C12.341 9.65587 12.6339 9.55628 12.9199 9.43945Z" fill="white"/>
<path opacity="0.968" fill-rule="evenodd" clip-rule="evenodd" d="M7.22461 10.4236C7.49218 10.7498 7.78518 11.0545 8.10352 11.3376C7.68554 11.1768 7.2578 11.0479 6.82031 10.9509C6.4839 10.9986 6.16166 11.0924 5.85352 11.2322C5.70118 11.1032 5.56056 10.9626 5.43164 10.8103C5.98261 10.4409 6.58027 10.312 7.22461 10.4236Z" fill="white"/>
<path opacity="0.976" fill-rule="evenodd" clip-rule="evenodd" d="M7.22461 10.4238C7.77379 10.5912 8.31287 10.7787 8.8418 10.9863C9.0925 11.2546 9.3503 11.5183 9.61523 11.7773C9.59569 11.7908 9.58398 11.8084 9.58008 11.8301C9.08089 11.6871 8.58871 11.5231 8.10352 11.3379C7.78518 11.0547 7.49218 10.75 7.22461 10.4238Z" fill="white"/>
<path opacity="0.971" fill-rule="evenodd" clip-rule="evenodd" d="M16.541 12.99C16.4004 12.8377 16.2598 12.6853 16.1191 12.533C16.5823 12.3451 16.7287 12.0169 16.5586 11.5486C16.3672 11.3011 16.1153 11.2132 15.8027 11.2849C15.5419 11.3347 15.2958 11.4226 15.0645 11.5486C14.9496 11.3866 14.8206 11.2343 14.6777 11.0916C15.2478 10.7069 15.8689 10.5955 16.541 10.7576C17.124 11.0757 17.3408 11.5621 17.1914 12.2166C17.0811 12.5675 16.8643 12.8253 16.541 12.99Z" fill="white"/>
<path opacity="0.974" fill-rule="evenodd" clip-rule="evenodd" d="M8.8418 10.9863C9.36134 11.1484 9.88868 11.2832 10.4238 11.3906C11.1884 11.6951 11.4462 12.2401 11.1973 13.0254C11.1856 13.0254 11.1738 13.0254 11.1621 13.0254C11.0098 12.8848 10.8574 12.7441 10.7051 12.6035C10.7048 12.3156 10.5759 12.1106 10.3184 11.9883C10.0723 11.9332 9.82617 11.8805 9.58008 11.8301C9.58398 11.8084 9.59569 11.7908 9.61523 11.7773C9.3503 11.5183 9.0925 11.2546 8.8418 10.9863Z" fill="white"/>
<path opacity="0.962" fill-rule="evenodd" clip-rule="evenodd" d="M5.43164 10.8105C5.56056 10.9629 5.70118 11.1035 5.85352 11.2324C5.38007 11.522 4.89959 11.8033 4.41211 12.0762C4.23844 11.9612 4.08611 11.8206 3.95508 11.6543C4.43883 11.358 4.93102 11.0768 5.43164 10.8105Z" fill="white"/>
<path opacity="0.982" fill-rule="evenodd" clip-rule="evenodd" d="M3.95508 11.6536C4.08611 11.8199 4.23844 11.9605 4.41211 12.0755C4.10671 12.2665 3.79617 12.454 3.48047 12.638C3.56804 12.8504 3.66764 13.0613 3.7793 13.2708C3.75332 13.2754 3.72987 13.2695 3.70898 13.2532C3.12768 12.666 2.54175 12.0859 1.95117 11.513C2.32221 11.3346 2.64448 11.4049 2.91797 11.7239C2.99414 11.8528 3.07031 11.9817 3.14648 12.1106C3.42268 11.9668 3.69221 11.8144 3.95508 11.6536Z" fill="white"/>
<path opacity="0.963" fill-rule="evenodd" clip-rule="evenodd" d="M14.6777 11.0918C14.8206 11.2345 14.9496 11.3869 15.0645 11.5488C14.5548 11.8329 14.0509 12.1259 13.5527 12.4277C13.5497 12.3927 13.5615 12.3634 13.5879 12.3398C13.4518 12.2097 13.3229 12.0749 13.2012 11.9355C13.6816 11.6366 14.1738 11.3554 14.6777 11.0918Z" fill="white"/>
<path opacity="0.969" fill-rule="evenodd" clip-rule="evenodd" d="M1.45896 11.7949C1.44305 11.8286 1.41961 11.8579 1.38865 11.8828C1.52472 12.013 1.65363 12.1477 1.77537 12.2871C1.64743 12.3629 1.51853 12.4391 1.38865 12.5156C1.36077 12.5538 1.33733 12.5948 1.31834 12.6387C1.68598 13.2637 2.03754 13.8965 2.37303 14.5371C1.89964 14.0813 1.43089 13.6184 0.966777 13.1484C0.94588 13.1321 0.922442 13.1263 0.896465 13.1309C0.578701 12.477 0.7662 12.0317 1.45896 11.7949Z" fill="white"/>
<path opacity="0.96" fill-rule="evenodd" clip-rule="evenodd" d="M13.2012 11.9355C13.3229 12.0749 13.4518 12.2097 13.5879 12.3398C13.5615 12.3634 13.5497 12.3927 13.5527 12.4277C13.1248 12.6827 12.6913 12.9288 12.252 13.166C12.123 13.0137 11.9824 12.8731 11.8301 12.7441C12.2772 12.4618 12.7342 12.1923 13.2012 11.9355Z" fill="white"/>
<path opacity="0.952" fill-rule="evenodd" clip-rule="evenodd" d="M8.34951 12.6041C8.58186 12.8835 8.82795 13.153 9.08779 13.4127C8.76035 13.325 8.4322 13.2371 8.10342 13.1491C7.72197 13.0778 7.62825 12.8786 7.82217 12.5514C8.00853 12.4846 8.18431 12.5022 8.34951 12.6041Z" fill="white"/>
<path opacity="0.952" fill-rule="evenodd" clip-rule="evenodd" d="M2.05666 12.5677C2.36865 12.5456 2.50341 12.6862 2.46096 12.9896C2.37824 13.1627 2.24347 13.2272 2.05666 13.1829C1.77734 12.978 1.77734 12.7729 2.05666 12.5677Z" fill="white"/>
<path opacity="0.965" fill-rule="evenodd" clip-rule="evenodd" d="M8.34961 12.6035C8.84176 12.7324 9.33395 12.8613 9.82617 12.9902C9.82227 13.0119 9.81056 13.0295 9.79102 13.043C10.0255 13.2492 10.2482 13.4659 10.459 13.6934C9.99186 13.6445 9.53483 13.5507 9.08789 13.4121C8.82805 13.1524 8.58196 12.8829 8.34961 12.6035Z" fill="white"/>
<path opacity="0.981" fill-rule="evenodd" clip-rule="evenodd" d="M1.95117 11.5137C2.54175 12.0866 3.12768 12.6667 3.70898 13.2539C3.72987 13.2702 3.75332 13.2761 3.7793 13.2715C4.15322 13.9101 4.52236 14.5547 4.88672 15.2051C5.05009 15.0971 5.22 15.0034 5.39648 14.9238C5.58397 15.1231 5.7715 15.3223 5.95898 15.5215C5.84996 15.5147 5.7445 15.4913 5.64258 15.4512C5.49025 15.5449 5.33788 15.6387 5.18555 15.7324C5.27344 15.8848 5.36133 16.0371 5.44922 16.1895C5.49373 16.3264 5.5113 16.467 5.50195 16.6113C5.15162 16.2786 4.80593 15.9388 4.46484 15.5918C4.45082 15.5998 4.44498 15.6116 4.44727 15.627C3.75662 14.457 3.08278 13.2734 2.42578 12.0762C2.38763 12.0483 2.34661 12.0248 2.30273 12.0059C2.12636 12.1006 1.95058 12.1944 1.77539 12.2871C1.65365 12.1478 1.52474 12.013 1.38867 11.8828C1.41963 11.8579 1.44307 11.8286 1.45898 11.7949C1.61132 11.6835 1.77538 11.5897 1.95117 11.5137Z" fill="white"/>
<path opacity="0.981" fill-rule="evenodd" clip-rule="evenodd" d="M10.7051 12.6035C10.8574 12.7441 11.0098 12.8848 11.1621 13.0254C11.1738 13.0723 11.1856 13.0723 11.1973 13.0254C11.4172 12.9506 11.6281 12.8568 11.8301 12.7441C11.9824 12.8731 12.123 13.0137 12.252 13.166C11.7246 13.5761 11.127 13.7519 10.459 13.6934C10.2482 13.4659 10.0255 13.2492 9.79102 13.043C9.81056 13.0295 9.82227 13.0119 9.82617 12.9902C10.251 13.1349 10.544 13.0059 10.7051 12.6035Z" fill="white"/>
<path opacity="0.971" fill-rule="evenodd" clip-rule="evenodd" d="M16.1191 12.5332C16.2598 12.6855 16.4004 12.8379 16.541 12.9902C16.0809 13.2864 15.6121 13.5677 15.1348 13.834C14.9488 13.7184 14.8081 13.5778 14.7129 13.4121C15.1804 13.1196 15.6491 12.8267 16.1191 12.5332Z" fill="white"/>
<path opacity="0.963" fill-rule="evenodd" clip-rule="evenodd" d="M0.896484 13.1304C0.922461 13.1258 0.9459 13.1317 0.966797 13.148C1.43091 13.618 1.89966 14.0809 2.37305 14.5367C2.84732 15.3208 3.30435 16.1177 3.74414 16.9273C3.72245 16.9312 3.70487 16.9429 3.69141 16.9625C3.24487 16.51 2.7937 16.0647 2.33789 15.6265C1.84907 14.8015 1.3686 13.9694 0.896484 13.1304Z" fill="white"/>
<path opacity="0.965" fill-rule="evenodd" clip-rule="evenodd" d="M14.7129 13.4121C14.8081 13.5778 14.9488 13.7184 15.1348 13.834C14.6996 14.1279 14.2543 14.4092 13.7988 14.6777C13.6474 14.5381 13.495 14.3975 13.3418 14.2559C13.7917 13.9663 14.2487 13.685 14.7129 13.4121Z" fill="white"/>
<path opacity="0.974" fill-rule="evenodd" clip-rule="evenodd" d="M13.3418 14.2559C13.495 14.3975 13.6474 14.5381 13.7988 14.6777C13.3066 14.9824 12.8145 15.2871 12.3223 15.5918C12.1822 15.4515 12.0533 15.2992 11.9355 15.1348C12.3912 14.8247 12.8599 14.5317 13.3418 14.2559Z" fill="white"/>
<path opacity="0.965" fill-rule="evenodd" clip-rule="evenodd" d="M7.7168 15.3809C7.94914 15.6602 8.19524 15.9298 8.45508 16.1895C7.61396 15.987 6.78196 15.7643 5.95898 15.5215C5.7715 15.3223 5.58397 15.1231 5.39648 14.9238C5.45207 14.8681 5.52238 14.8329 5.60742 14.8184C6.309 15.0132 7.01213 15.2007 7.7168 15.3809Z" fill="white"/>
<path opacity="0.961" fill-rule="evenodd" clip-rule="evenodd" d="M7.7168 15.3809C8.21507 15.5112 8.70725 15.6518 9.19336 15.8027C9.4287 16.0615 9.67479 16.3076 9.93164 16.541C9.42293 16.4783 8.93074 16.3611 8.45508 16.1895C8.19524 15.9298 7.94914 15.6602 7.7168 15.3809Z" fill="white"/>
<path opacity="0.961" fill-rule="evenodd" clip-rule="evenodd" d="M11.9355 15.1348C12.0533 15.2992 12.1822 15.4515 12.3223 15.5918C11.8744 15.8753 11.4173 16.1449 10.9512 16.4004C10.8245 16.2266 10.6839 16.0626 10.5293 15.9082C10.6339 15.8677 10.7393 15.8267 10.8457 15.7852C11.2056 15.5595 11.5689 15.3426 11.9355 15.1348Z" fill="white"/>
<path opacity="0.97" fill-rule="evenodd" clip-rule="evenodd" d="M5.50195 16.6113C5.44517 16.9016 5.2811 17.1008 5.00976 17.209C4.88084 17.0567 4.74022 16.916 4.58788 16.7871C4.65567 16.7177 4.73769 16.665 4.83398 16.6289C4.87982 16.6006 4.90327 16.5596 4.90429 16.5059C4.76064 16.2067 4.60828 15.9138 4.44726 15.627C4.44497 15.6116 4.45081 15.5998 4.46484 15.5918C4.80592 15.9388 5.15161 16.2786 5.50195 16.6113Z" fill="white"/>
<path opacity="0.961" fill-rule="evenodd" clip-rule="evenodd" d="M2.33789 15.627C2.7937 16.0652 3.24487 16.5105 3.69141 16.9629C3.70487 16.9433 3.72245 16.9316 3.74414 16.9277C3.76995 17.0298 3.83442 17.0884 3.9375 17.1035C4.15677 17.0027 4.37358 16.8972 4.58789 16.7871C4.74022 16.916 4.88085 17.0567 5.00977 17.209C4.74339 17.3861 4.46214 17.5443 4.16602 17.6836C3.80967 17.7719 3.52255 17.6723 3.30469 17.3848C2.97264 16.8026 2.65037 16.2166 2.33789 15.627Z" fill="white"/>
<path opacity="0.961" fill-rule="evenodd" clip-rule="evenodd" d="M9.19336 15.8027C9.48839 15.877 9.78722 15.9356 10.0898 15.9785C10.2365 15.9534 10.383 15.93 10.5293 15.9082C10.6839 16.0626 10.8245 16.2266 10.9512 16.4004C10.6196 16.5237 10.2798 16.5706 9.93164 16.541C9.67479 16.3076 9.4287 16.0615 9.19336 15.8027Z" fill="white"/>
</g>
<defs>
<clipPath id="clip0_1333_1037">
<rect width="18" height="18" fill="white"/>
</clipPath>
</defs>
</svg>
