<svg width="18" height="14" viewBox="0 0 18 14" fill="none" xmlns="http://www.w3.org/2000/svg">
<path d="M17.7497 6.53172L14.3747 4.28172C14.29 4.22519 14.1915 4.19273 14.0897 4.1878C13.988 4.18287 13.8868 4.20566 13.797 4.25374C13.7072 4.30181 13.6321 4.37337 13.5798 4.46077C13.5275 4.54818 13.4999 4.64814 13.5 4.75001V6.43751H5.0625V3.06251H7.38281C7.51972 3.59275 7.84532 4.05486 8.29857 4.36222C8.75182 4.66958 9.30161 4.80108 9.84488 4.73207C10.3881 4.66307 10.8876 4.3983 11.2496 3.98739C11.6116 3.57648 11.8114 3.04764 11.8114 2.50001C11.8114 1.95237 11.6116 1.42353 11.2496 1.01262C10.8876 0.601715 10.3881 0.336943 9.84488 0.267939C9.30161 0.198934 8.75182 0.330435 8.29857 0.637792C7.84532 0.945149 7.51972 1.40726 7.38281 1.93751H5.0625C4.76413 1.93751 4.47798 2.05603 4.267 2.26701C4.05603 2.47799 3.9375 2.76414 3.9375 3.06251V6.43751H0.5625C0.413316 6.43751 0.270242 6.49677 0.164752 6.60226C0.0592632 6.70775 0 6.85082 0 7.00001C0 7.14919 0.0592632 7.29226 0.164752 7.39775C0.270242 7.50324 0.413316 7.56251 0.5625 7.56251H3.9375V10.9375C3.9375 11.2359 4.05603 11.522 4.267 11.733C4.47798 11.944 4.76413 12.0625 5.0625 12.0625H7.3125V12.625C7.3125 12.9234 7.43103 13.2095 7.642 13.4205C7.85298 13.6315 8.13913 13.75 8.4375 13.75H10.6875C10.9859 13.75 11.272 13.6315 11.483 13.4205C11.694 13.2095 11.8125 12.9234 11.8125 12.625V10.375C11.8125 10.0766 11.694 9.79049 11.483 9.57951C11.272 9.36853 10.9859 9.25001 10.6875 9.25001H8.4375C8.13913 9.25001 7.85298 9.36853 7.642 9.57951C7.43103 9.79049 7.3125 10.0766 7.3125 10.375V10.9375H5.0625V7.56251H13.5V9.25001C13.4999 9.35187 13.5275 9.45183 13.5798 9.53924C13.6321 9.62664 13.7072 9.6982 13.797 9.74627C13.8868 9.79435 13.988 9.81714 14.0897 9.81221C14.1915 9.80728 14.29 9.77482 14.3747 9.71829L17.7497 7.46829C17.8268 7.41694 17.8901 7.34732 17.9339 7.26563C17.9776 7.18393 18.0005 7.09269 18.0005 7.00001C18.0005 6.90732 17.9776 6.81608 17.9339 6.73438C17.8901 6.65269 17.8268 6.58307 17.7497 6.53172ZM9.5625 1.37501C9.785 1.37501 10.0025 1.44099 10.1875 1.5646C10.3725 1.68822 10.5167 1.86392 10.6019 2.06949C10.687 2.27505 10.7093 2.50125 10.6659 2.71948C10.6225 2.93771 10.5153 3.13817 10.358 3.2955C10.2007 3.45283 10.0002 3.55998 9.78198 3.60339C9.56375 3.6468 9.33755 3.62452 9.13198 3.53937C8.92641 3.45422 8.75071 3.31003 8.6271 3.12502C8.50348 2.94002 8.4375 2.72251 8.4375 2.50001C8.4375 2.20164 8.55603 1.91549 8.767 1.70451C8.97798 1.49353 9.26413 1.37501 9.5625 1.37501ZM8.4375 10.375H10.6875V12.625H8.4375V10.375ZM14.625 8.19883V5.80469L16.4236 7.00001L14.625 8.19883Z" fill="white" fill-opacity="0.5"/>
</svg>
