<svg width="24" height="25" viewBox="0 0 24 25" fill="none" xmlns="http://www.w3.org/2000/svg">
<g clip-path="url(#clip0_607_396)">
<path d="M19.5 11H4.5C4.00272 11 3.52581 11.1975 3.17417 11.5492C2.82254 11.9008 2.625 12.3777 2.625 12.875V15.125C2.625 15.6223 2.82254 16.0992 3.17417 16.4508C3.52581 16.8025 4.00272 17 4.5 17H19.5C19.9973 17 20.4742 16.8025 20.8258 16.4508C21.1775 16.0992 21.375 15.6223 21.375 15.125V12.875C21.375 12.3777 21.1775 11.9008 20.8258 11.5492C20.4742 11.1975 19.9973 11 19.5 11ZM19.125 14.75H4.875V13.25H19.125V14.75ZM19.5 3.875H4.5C4.00272 3.875 3.52581 4.07254 3.17417 4.42417C2.82254 4.77581 2.625 5.25272 2.625 5.75V8C2.625 8.49728 2.82254 8.97419 3.17417 9.32583C3.52581 9.67746 4.00272 9.875 4.5 9.875H19.5C19.9973 9.875 20.4742 9.67746 20.8258 9.32583C21.1775 8.97419 21.375 8.49728 21.375 8V5.75C21.375 5.25272 21.1775 4.77581 20.8258 4.42417C20.4742 4.07254 19.9973 3.875 19.5 3.875ZM19.125 7.625H4.875V6.125H19.125V7.625ZM15 21.125C15 21.4234 14.8815 21.7095 14.6705 21.9205C14.4595 22.1315 14.1734 22.25 13.875 22.25H13.125V23C13.125 23.2984 13.0065 23.5845 12.7955 23.7955C12.5845 24.0065 12.2984 24.125 12 24.125C11.7016 24.125 11.4155 24.0065 11.2045 23.7955C10.9935 23.5845 10.875 23.2984 10.875 23V22.25H10.125C9.82663 22.25 9.54048 22.1315 9.3295 21.9205C9.11853 21.7095 9 21.4234 9 21.125C9 20.8266 9.11853 20.5405 9.3295 20.3295C9.54048 20.1185 9.82663 20 10.125 20H10.875V19.25C10.875 18.9516 10.9935 18.6655 11.2045 18.4545C11.4155 18.2435 11.7016 18.125 12 18.125C12.2984 18.125 12.5845 18.2435 12.7955 18.4545C13.0065 18.6655 13.125 18.9516 13.125 19.25V20H13.875C14.1734 20 14.4595 20.1185 14.6705 20.3295C14.8815 20.5405 15 20.8266 15 21.125Z" fill="white"/>
</g>
<defs>
<clipPath id="clip0_607_396">
<rect width="24" height="24" fill="white" transform="translate(0 0.5)"/>
</clipPath>
</defs>
</svg>
