<svg width="38" height="32" viewBox="0 0 38 32" fill="none" xmlns="http://www.w3.org/2000/svg">
<path d="M6.78571 0C4.98603 0 3.26006 0.842855 1.98749 2.34315C0.714921 3.84344 0 5.87827 0 8V9.6H38V8C38 5.87827 37.2851 3.84344 36.0125 2.34315C34.7399 0.842855 33.014 0 31.2143 0H6.78571ZM38 12.8H0V24C0 26.1217 0.714921 28.1566 1.98749 29.6569C3.26006 31.1571 4.98603 32 6.78571 32H31.2143C33.014 32 34.7399 31.1571 36.0125 29.6569C37.2851 28.1566 38 26.1217 38 24V12.8ZM25.7857 22.4H31.2143C31.5742 22.4 31.9194 22.5686 32.1739 22.8686C32.4284 23.1687 32.5714 23.5757 32.5714 24C32.5714 24.4243 32.4284 24.8313 32.1739 25.1314C31.9194 25.4314 31.5742 25.6 31.2143 25.6H25.7857C25.4258 25.6 25.0806 25.4314 24.8261 25.1314C24.5716 24.8313 24.4286 24.4243 24.4286 24C24.4286 23.5757 24.5716 23.1687 24.8261 22.8686C25.0806 22.5686 25.4258 22.4 25.7857 22.4Z" fill="#507FFF"/>
</svg>
