<svg width="32" height="33" viewBox="0 0 32 33" fill="none" xmlns="http://www.w3.org/2000/svg">
<path d="M26 5.5H6C5.20435 5.5 4.44129 5.81607 3.87868 6.37868C3.31607 6.94129 3 7.70435 3 8.5V22.5C3 23.2956 3.31607 24.0587 3.87868 24.6213C4.44129 25.1839 5.20435 25.5 6 25.5H26C26.7956 25.5 27.5587 25.1839 28.1213 24.6213C28.6839 24.0587 29 23.2956 29 22.5V8.5C29 7.70435 28.6839 6.94129 28.1213 6.37868C27.5587 5.81607 26.7956 5.5 26 5.5ZM27 22.5C27 22.7652 26.8946 23.0196 26.7071 23.2071C26.5196 23.3946 26.2652 23.5 26 23.5H6C5.73478 23.5 5.48043 23.3946 5.29289 23.2071C5.10536 23.0196 5 22.7652 5 22.5V8.5C5 8.23478 5.10536 7.98043 5.29289 7.79289C5.48043 7.60536 5.73478 7.5 6 7.5H26C26.2652 7.5 26.5196 7.60536 26.7071 7.79289C26.8946 7.98043 27 8.23478 27 8.5V22.5ZM21 28.5C21 28.7652 20.8946 29.0196 20.7071 29.2071C20.5196 29.3946 20.2652 29.5 20 29.5H12C11.7348 29.5 11.4804 29.3946 11.2929 29.2071C11.1054 29.0196 11 28.7652 11 28.5C11 28.2348 11.1054 27.9804 11.2929 27.7929C11.4804 27.6054 11.7348 27.5 12 27.5H20C20.2652 27.5 20.5196 27.6054 20.7071 27.7929C20.8946 27.9804 21 28.2348 21 28.5ZM20.555 14.6675L14.555 10.6675C14.4044 10.567 14.2293 10.5093 14.0484 10.5005C13.8675 10.4918 13.6877 10.5323 13.528 10.6177C13.3684 10.7032 13.2349 10.8304 13.1419 10.9858C13.0489 11.1412 12.9999 11.3189 13 11.5V19.5C12.9999 19.6811 13.0489 19.8588 13.1419 20.0142C13.2349 20.1696 13.3684 20.2968 13.528 20.3823C13.6877 20.4677 13.8675 20.5082 14.0484 20.4995C14.2293 20.4907 14.4044 20.433 14.555 20.3325L20.555 16.3325C20.6922 16.2412 20.8047 16.1175 20.8825 15.9722C20.9603 15.827 21.001 15.6648 21.001 15.5C21.001 15.3352 20.9603 15.173 20.8825 15.0278C20.8047 14.8825 20.6922 14.7588 20.555 14.6675ZM15 17.6313V13.375L18.1975 15.5L15 17.6313Z" fill="#3D3066"/>
</svg>
