<svg width="18" height="18" viewBox="0 0 18 18" fill="none" xmlns="http://www.w3.org/2000/svg">
<g clip-path="url(#clip0_415_126)">
<path d="M9.00003 4.36035C7.45316 4.36035 6.18753 5.59785 6.18753 7.08848C6.18753 8.5791 7.45316 9.84473 9.00003 9.84473C10.5469 9.84473 11.8125 8.60723 11.8125 7.1166C11.8125 5.62598 10.5469 4.36035 9.00003 4.36035ZM9.00003 8.5791C8.15628 8.5791 7.45316 7.93223 7.45316 7.1166C7.45316 6.30098 8.15628 5.62598 9.00003 5.62598C9.84378 5.62598 10.5469 6.27285 10.5469 7.08848C10.5469 7.9041 9.84378 8.5791 9.00003 8.5791Z" fill="white" fill-opacity="0.5"/>
<path d="M9.00002 0.506836C4.30315 0.506836 0.506271 4.30371 0.506271 9.00059C0.506271 13.6975 4.30315 17.5225 9.00002 17.5225C13.6969 17.5225 17.5219 13.6975 17.5219 9.00059C17.5219 4.30371 13.6969 0.506836 9.00002 0.506836ZM5.56877 15.3568V13.0506C5.56877 12.1506 6.30002 11.4193 7.20002 11.4193H10.8563C11.7563 11.4193 12.4875 12.1506 12.4875 13.0506V15.3568C11.475 15.9193 10.2938 16.2287 9.02815 16.2287C7.76252 16.2568 6.58127 15.9193 5.56877 15.3568ZM13.725 14.485V13.0506C13.725 11.4475 12.4313 10.1537 10.8281 10.1537H7.1719C5.56877 10.1537 4.27502 11.4475 4.27502 13.0506V14.485C2.72815 13.1631 1.74377 11.1943 1.74377 9.00059C1.7719 5.00684 5.00627 1.77246 9.00002 1.77246C12.9938 1.77246 16.2563 5.03496 16.2563 9.02871C16.2563 11.1943 15.2719 13.1631 13.725 14.485Z" fill="white" fill-opacity="0.5"/>
</g>
<defs>
<clipPath id="clip0_415_126">
<rect width="18" height="18" fill="white"/>
</clipPath>
</defs>
</svg>
