<svg width="24" height="19" viewBox="0 0 24 19" fill="none" xmlns="http://www.w3.org/2000/svg">
<path d="M4.59199 0.25228C4.52174 0.178036 4.43647 0.117603 4.34111 0.0744831C4.24576 0.0313634 4.14223 0.00641467 4.03652 0.00108303C3.93081 -0.00424861 3.82502 0.0101427 3.72528 0.0434231C3.62555 0.0767035 3.53385 0.128211 3.4555 0.19496C3.37716 0.261709 3.31372 0.342373 3.26888 0.432275C3.22403 0.522177 3.19866 0.61953 3.19424 0.718692C3.18982 0.817853 3.20644 0.916851 3.24313 1.00995C3.27982 1.10304 3.33586 1.18839 3.40799 1.26103L5.33199 3.24572C1.69999 5.33541 0.137991 8.55665 0.0689905 8.7029C0.0235036 8.79882 0 8.90262 0 9.00759C0 9.11256 0.0235036 9.21636 0.0689905 9.31228C0.103991 9.38634 0.950991 11.147 2.83399 12.9123C5.34299 15.2635 8.512 16.5067 12 16.5067C13.7926 16.5162 15.5671 16.1702 17.207 15.4913L19.407 17.761C19.4773 17.8353 19.5625 17.8957 19.6579 17.9388C19.7532 17.9819 19.8568 18.0069 19.9625 18.0122C20.0682 18.0176 20.174 18.0032 20.2737 17.9699C20.3735 17.9366 20.4652 17.8851 20.5435 17.8183C20.6218 17.7516 20.6853 17.6709 20.7301 17.581C20.775 17.4911 20.8003 17.3938 20.8048 17.2946C20.8092 17.1955 20.7926 17.0965 20.7559 17.0034C20.7192 16.9103 20.6631 16.8249 20.591 16.7523L4.59199 0.25228ZM9.325 7.36228L13.492 11.6607C12.8645 11.9702 12.1451 12.0755 11.4468 11.9602C10.7485 11.8448 10.1109 11.5153 9.63402 11.0234C9.15714 10.5315 8.86803 9.90501 8.8121 9.24236C8.75617 8.5797 8.93658 7.91839 9.325 7.36228ZM12 15.0067C8.922 15.0067 6.233 13.9576 4.00699 11.8895C3.09331 11.0382 2.31621 10.0671 1.69999 9.00665C2.16899 8.18259 3.66599 5.87634 6.43499 4.37728L8.235 6.22884C7.53813 7.06557 7.17923 8.10631 7.22173 9.16713C7.26423 10.2279 7.70539 11.2405 8.46723 12.0259C9.22908 12.8112 10.2626 13.3188 11.385 13.4589C12.5074 13.599 13.6465 13.3625 14.601 12.7913L16.074 14.3101C14.774 14.7777 13.3924 15.0139 12 15.0067ZM12.6 6.06009C12.3915 6.0228 12.2074 5.90939 12.0881 5.74483C11.9689 5.58027 11.9242 5.37802 11.964 5.18259C12.0038 4.98716 12.1247 4.81455 12.3003 4.70273C12.4758 4.59091 12.6915 4.54905 12.9 4.58634C13.9196 4.77166 14.848 5.26101 15.5467 5.98142C16.2454 6.70183 16.6769 7.61469 16.777 8.58384C16.7968 8.78188 16.7318 8.97917 16.5964 9.1323C16.461 9.28544 16.2662 9.38188 16.055 9.4004C16.03 9.40178 16.005 9.40178 15.98 9.4004C15.78 9.40121 15.587 9.33178 15.439 9.20581C15.2909 9.07983 15.1985 8.90643 15.18 8.71978C15.1127 8.07515 14.8252 7.46811 14.3604 6.98891C13.8955 6.50972 13.2781 6.18397 12.6 6.06009ZM23.928 9.31228C23.886 9.4004 22.873 11.5032 20.592 13.4185C20.5141 13.4861 20.4226 13.5384 20.3229 13.5724C20.2231 13.6065 20.1172 13.6216 20.0112 13.6169C19.9052 13.6122 19.8012 13.5878 19.7054 13.545C19.6095 13.5023 19.5237 13.4421 19.453 13.368C19.3822 13.2938 19.3278 13.2072 19.2931 13.1132C19.2584 13.0192 19.2439 12.9196 19.2506 12.8203C19.2573 12.721 19.285 12.624 19.3322 12.5348C19.3793 12.4457 19.4448 12.3662 19.525 12.301C20.6441 11.3585 21.5841 10.2445 22.305 9.00665C21.6874 7.94519 20.9086 6.97348 19.993 6.12197C17.767 4.05572 15.078 3.00665 12 3.00665C11.3515 3.00591 10.7039 3.05514 10.064 3.15384C9.95993 3.1711 9.85325 3.16885 9.75011 3.14723C9.64698 3.12561 9.54944 3.08505 9.46312 3.02788C9.3768 2.97072 9.30342 2.89809 9.24721 2.81419C9.191 2.73029 9.15309 2.63678 9.13565 2.53906C9.11821 2.44134 9.1216 2.34135 9.14561 2.24487C9.16963 2.14838 9.2138 2.05731 9.27557 1.97692C9.33734 1.89653 9.41549 1.82842 9.5055 1.7765C9.59552 1.72459 9.69561 1.68991 9.8 1.67447C10.5272 1.56191 11.263 1.50578 12 1.50665C15.488 1.50665 18.657 2.74978 21.166 5.10197C23.049 6.86728 23.896 8.62884 23.931 8.7029C23.9765 8.79882 24 8.90262 24 9.00759C24 9.11256 23.9765 9.21636 23.931 9.31228H23.928Z" fill="white"/>
</svg>
