<svg width="32" height="33" viewBox="0 0 32 33" fill="none" xmlns="http://www.w3.org/2000/svg">
<path d="M17.5 25.9997C17.5 26.2963 17.412 26.5863 17.2472 26.833C17.0824 27.0797 16.8481 27.272 16.574 27.3855C16.2999 27.499 15.9983 27.5287 15.7073 27.4708C15.4164 27.413 15.1491 27.2701 14.9393 27.0603C14.7295 26.8505 14.5867 26.5833 14.5288 26.2923C14.4709 26.0013 14.5006 25.6997 14.6142 25.4256C14.7277 25.1516 14.92 24.9173 15.1666 24.7525C15.4133 24.5876 15.7033 24.4997 16 24.4997C16.3978 24.4997 16.7793 24.6577 17.0606 24.939C17.3419 25.2203 17.5 25.6018 17.5 25.9997ZM29.635 11.3747C25.7906 8.22139 20.9721 6.49805 16 6.49805C11.0278 6.49805 6.20936 8.22139 2.36499 11.3747C2.26346 11.4581 2.17935 11.5606 2.11746 11.6765C2.05557 11.7924 2.01712 11.9194 2.00429 12.0501C1.99146 12.1809 2.00452 12.3129 2.04271 12.4386C2.0809 12.5643 2.14347 12.6813 2.22686 12.7828C2.31025 12.8843 2.41282 12.9684 2.52871 13.0303C2.64461 13.0922 2.77156 13.1307 2.90232 13.1435C3.16639 13.1694 3.42994 13.0893 3.63499 12.9209C7.1215 10.0618 11.4911 8.49927 16 8.49927C20.5089 8.49927 24.8785 10.0618 28.365 12.9209C28.57 13.0893 28.8336 13.1694 29.0977 13.1435C29.3617 13.1176 29.6047 12.9878 29.7731 12.7828C29.9415 12.5777 30.0216 12.3142 29.9957 12.0501C29.9698 11.786 29.84 11.5431 29.635 11.3747ZM25.625 15.8459C22.8867 13.6779 19.4964 12.4983 16.0037 12.4983C12.5111 12.4983 9.12082 13.6779 6.38249 15.8459C6.17462 16.0107 6.04072 16.2513 6.01025 16.5148C5.97978 16.7782 6.05522 17.0431 6.21999 17.2509C6.38475 17.4588 6.62534 17.5927 6.88883 17.6232C7.15232 17.6536 7.41712 17.5782 7.62499 17.4134C10.0098 15.5257 12.9622 14.4986 16.0037 14.4986C19.0453 14.4986 21.9977 15.5257 24.3825 17.4134C24.4854 17.495 24.6034 17.5555 24.7297 17.5915C24.856 17.6275 24.9882 17.6383 25.1186 17.6232C25.2491 17.6081 25.3753 17.5675 25.4901 17.5036C25.6049 17.4397 25.7059 17.3539 25.7875 17.2509C25.8691 17.148 25.9296 17.03 25.9656 16.9037C26.0016 16.7774 26.0124 16.6452 25.9973 16.5148C25.9822 16.3843 25.9415 16.2581 25.8777 16.1433C25.8138 16.0285 25.7279 15.9275 25.625 15.8459ZM21.5925 20.3159C19.9682 19.1354 18.0117 18.4996 16.0037 18.4996C13.9957 18.4996 12.0393 19.1354 10.415 20.3159C10.2005 20.4721 10.0568 20.707 10.0156 20.9691C9.9743 21.2312 10.0388 21.4989 10.195 21.7134C10.3511 21.9279 10.5861 22.0716 10.8482 22.1128C11.1103 22.1541 11.378 22.0896 11.5925 21.9334C12.8744 21.0011 14.4187 20.499 16.0037 20.499C17.5888 20.499 19.1331 21.0011 20.415 21.9334C20.5212 22.0107 20.6416 22.0664 20.7693 22.0972C20.897 22.1279 21.0295 22.1333 21.1593 22.1128C21.2891 22.0924 21.4135 22.0466 21.5256 21.9781C21.6377 21.9096 21.7352 21.8196 21.8125 21.7134C21.8898 21.6072 21.9454 21.4868 21.9762 21.3591C22.007 21.2314 22.0123 21.0989 21.9919 20.9691C21.9715 20.8393 21.9257 20.7149 21.8572 20.6028C21.7886 20.4907 21.6987 20.3932 21.5925 20.3159Z" fill="#3D3066"/>
</svg>
