<svg width="24" height="25" viewBox="0 0 24 25" fill="none" xmlns="http://www.w3.org/2000/svg">
<path d="M21.375 5V20C21.375 20.4973 21.1774 20.9742 20.8258 21.3258C20.4742 21.6775 19.9973 21.875 19.5 21.875H13.125C12.8266 21.875 12.5405 21.7565 12.3295 21.5455C12.1185 21.3345 12 21.0484 12 20.75C12 20.4516 12.1185 20.1655 12.3295 19.9545C12.5405 19.7435 12.8266 19.625 13.125 19.625H19.125V5.375H4.87499V13.625C4.87499 13.9234 4.75646 14.2095 4.54549 14.4205C4.33451 14.6315 4.04836 14.75 3.74999 14.75C3.45162 14.75 3.16547 14.6315 2.95449 14.4205C2.74352 14.2095 2.62499 13.9234 2.62499 13.625V5C2.62499 4.50272 2.82253 4.02581 3.17416 3.67417C3.5258 3.32254 4.00271 3.125 4.49999 3.125H19.5C19.9973 3.125 20.4742 3.32254 20.8258 3.67417C21.1774 4.02581 21.375 4.50272 21.375 5ZM12.0459 14.7041C11.9414 14.5992 11.8172 14.516 11.6805 14.4592C11.5437 14.4024 11.3971 14.3732 11.2491 14.3732C11.101 14.3732 10.9544 14.4024 10.8176 14.4592C10.6809 14.516 10.5567 14.5992 10.4522 14.7041L5.99999 19.1563L4.54593 17.7041C4.44128 17.5994 4.31705 17.5164 4.18032 17.4598C4.04359 17.4031 3.89705 17.374 3.74905 17.374C3.60106 17.374 3.45451 17.4031 3.31779 17.4598C3.18106 17.5164 3.05682 17.5994 2.95218 17.7041C2.84753 17.8087 2.76452 17.9329 2.70788 18.0697C2.65125 18.2064 2.6221 18.3529 2.6221 18.5009C2.6221 18.6489 2.65125 18.7955 2.70788 18.9322C2.76452 19.0689 2.84753 19.1932 2.95218 19.2978L5.20218 21.5478C5.30669 21.6527 5.43089 21.7359 5.56763 21.7927C5.70438 21.8495 5.85099 21.8787 5.99905 21.8787C6.14712 21.8787 6.29373 21.8495 6.43047 21.7927C6.56722 21.7359 6.69141 21.6527 6.79593 21.5478L12.0459 16.2978C12.1508 16.1933 12.234 16.0691 12.2908 15.9324C12.3476 15.7956 12.3768 15.649 12.3768 15.5009C12.3768 15.3529 12.3476 15.2063 12.2908 15.0695C12.234 14.9328 12.1508 14.8086 12.0459 14.7041Z" fill="#111111"/>
</svg>
