<svg id="Layer_1" data-name="Layer 1" xmlns="http://www.w3.org/2000/svg" viewBox="0 0 2000 2000"><defs><style>.cls-1{fill:#3d3066;}.cls-2{fill:#7ba4ff;}.cls-3{fill:#1feaff;}.cls-4{fill:#507fff;}.cls-5{fill:#00d7f7;}</style></defs><polygon class="cls-1" points="1109.93 1179.9 1269.77 1179.9 1269.77 1345.25 1232.67 1400.65 1027.72 1400.65 1027.72 1231.04 1109.93 1179.9"/><polygon class="cls-2" points="1107.67 599.35 1269.77 599.35 1269.77 767.02 1232.14 823.2 1024.31 823.2 1024.31 651.21 1107.67 599.35"/><polygon class="cls-3" points="813.59 599.35 975.69 599.35 975.69 767.02 938.06 823.2 730.23 823.2 730.23 651.21 813.59 599.35"/><polygon class="cls-4" points="1107.67 885.5 1269.77 885.5 1269.77 1053.18 1232.14 1109.36 1024.31 1109.36 1024.31 937.36 1107.67 885.5"/><polygon class="cls-5" points="813.59 885.5 975.69 885.5 975.69 1053.18 938.06 1109.36 730.23 1109.36 730.23 937.36 813.59 885.5"/></svg>