<svg width="264" height="280" viewBox="0 0 264 280" fill="none" xmlns="http://www.w3.org/2000/svg">
<g clip-path="url(#clip0_3538_7563)">
<path d="M132 280C198.274 280 252 226.274 252 160C252 93.7258 198.274 40 132 40C65.7258 40 12 93.7258 12 160C12 226.274 65.7258 280 132 280Z" fill="#E6E6E6"/>
<mask id="mask0_3538_7563" style="mask-type:luminance" maskUnits="userSpaceOnUse" x="12" y="40" width="240" height="240">
<path d="M132 280C198.274 280 252 226.274 252 160C252 93.7258 198.274 40 132 40C65.7258 40 12 93.7258 12 160C12 226.274 65.7258 280 132 280Z" fill="white"/>
</mask>
<g mask="url(#mask0_3538_7563)">
<path d="M252 40H12V280H252V40Z" fill="#65C9FF"/>
</g>
<mask id="mask1_3538_7563" style="mask-type:luminance" maskUnits="userSpaceOnUse" x="0" y="0" width="264" height="280">
<path d="M12 160C12 226.274 65.7258 280 132 280C198.274 280 252 226.274 252 160H264V0H0V160H12Z" fill="white"/>
</mask>
<g mask="url(#mask1_3538_7563)">
<path d="M156 180.611V199H160C199.764 199 232 231.236 232 271V280H32V271C32 231.236 64.2355 199 104 199H108V180.611C90.7626 172.422 78.3722 155.687 76.3051 135.881C70.4803 135.058 66 130.052 66 124V110C66 104.054 70.3246 99.1181 76 98.1659V92C76 61.0721 101.072 36 132 36C162.928 36 188 61.0721 188 92V98.1659C193.675 99.1181 198 104.054 198 110V124C198 130.052 193.52 135.058 187.695 135.881C185.628 155.687 173.237 172.422 156 180.611Z" fill="#D0C6AC"/>
<mask id="mask2_3538_7563" style="mask-type:luminance" maskUnits="userSpaceOnUse" x="32" y="36" width="200" height="244">
<path d="M156 180.611V199H160C199.764 199 232 231.236 232 271V280H32V271C32 231.236 64.2355 199 104 199H108V180.611C90.7626 172.422 78.3722 155.687 76.3051 135.881C70.4803 135.058 66 130.052 66 124V110C66 104.054 70.3246 99.1181 76 98.1659V92C76 61.0721 101.072 36 132 36C162.928 36 188 61.0721 188 92V98.1659C193.675 99.1181 198 104.054 198 110V124C198 130.052 193.52 135.058 187.695 135.881C185.628 155.687 173.237 172.422 156 180.611Z" fill="white"/>
</mask>
<g mask="url(#mask2_3538_7563)">
<path d="M296 36H32V316H296V36Z" fill="#EDB98A"/>
</g>
<mask id="mask3_3538_7563" style="mask-type:luminance" maskUnits="userSpaceOnUse" x="32" y="36" width="200" height="244">
<path d="M156 180.611V199H160C199.764 199 232 231.236 232 271V280H32V271C32 231.236 64.2355 199 104 199H108V180.611C90.7626 172.422 78.3722 155.687 76.3051 135.881C70.4803 135.058 66 130.052 66 124V110C66 104.054 70.3246 99.1181 76 98.1659V92C76 61.0721 101.072 36 132 36C162.928 36 188 61.0721 188 92V98.1659C193.675 99.1181 198 104.054 198 110V124C198 130.052 193.52 135.058 187.695 135.881C185.628 155.687 173.237 172.422 156 180.611Z" fill="white"/>
</mask>
<g mask="url(#mask3_3538_7563)">
<path fill-rule="evenodd" clip-rule="evenodd" d="M188 115V138C188 168.928 162.928 194 132 194C101.072 194 76 168.928 76 138V115V130C76 160.928 101.072 186 132 186C162.928 186 188 160.928 188 130V115Z" fill="black" fill-opacity="0.1"/>
</g>
<path fill-rule="evenodd" clip-rule="evenodd" d="M165.96 199.295C202.936 202.325 232 233.294 232 271.052V280H32V271.052C32 232.953 61.592 201.765 99.0454 199.219C99.0153 199.593 99 199.969 99 200.348C99 212.211 113.998 221.828 132.5 221.828C151.002 221.828 166 212.211 166 200.348C166 199.995 165.987 199.644 165.96 199.295Z" fill="#E6E6E6"/>
<mask id="mask4_3538_7563" style="mask-type:luminance" maskUnits="userSpaceOnUse" x="32" y="199" width="200" height="81">
<path fill-rule="evenodd" clip-rule="evenodd" d="M165.96 199.295C202.936 202.325 232 233.294 232 271.052V280H32V271.052C32 232.953 61.592 201.765 99.0454 199.219C99.0153 199.593 99 199.969 99 200.348C99 212.211 113.998 221.828 132.5 221.828C151.002 221.828 166 212.211 166 200.348C166 199.995 165.987 199.644 165.96 199.295Z" fill="white"/>
</mask>
<g mask="url(#mask4_3538_7563)">
<path d="M264 170H0V280H264V170Z" fill="#262E33"/>
</g>
<mask id="mask5_3538_7563" style="mask-type:luminance" maskUnits="userSpaceOnUse" x="32" y="199" width="200" height="81">
<path fill-rule="evenodd" clip-rule="evenodd" d="M165.96 199.295C202.936 202.325 232 233.294 232 271.052V280H32V271.052C32 232.953 61.592 201.765 99.0454 199.219C99.0153 199.593 99 199.969 99 200.348C99 212.211 113.998 221.828 132.5 221.828C151.002 221.828 166 212.211 166 200.348C166 199.995 165.987 199.644 165.96 199.295Z" fill="white"/>
</mask>
<g mask="url(#mask5_3538_7563)">
<g opacity="0.6">
<path d="M132.5 228.761C154.39 228.761 172.135 216.712 172.135 201.848C172.135 186.983 154.39 174.934 132.5 174.934C110.61 174.934 92.8652 186.983 92.8652 201.848C92.8652 216.712 110.61 228.761 132.5 228.761Z" fill="black" fill-opacity="0.16"/>
</g>
</g>
<path fill-rule="evenodd" clip-rule="evenodd" d="M100.785 199.122C62.5123 200.804 32 232.365 32 271.052L32 280H101.362C97.9607 267.92 96 253.709 96 238.5C96 224.173 97.74 210.731 100.785 199.122ZM163.638 280H232V271.052C232 232.707 202.025 201.363 164.229 199.174C167.265 210.771 169 224.194 169 238.5C169 253.709 167.039 267.92 163.638 280Z" fill="#3A4C5A"/>
<path fill-rule="evenodd" clip-rule="evenodd" d="M181 256L190.556 248.833C191.999 247.751 193.988 247.768 195.412 248.876L202 254L181 256Z" fill="#E6E6E6"/>
<path fill-rule="evenodd" clip-rule="evenodd" d="M101 198C97 217.333 98.6667 244.667 106 280H90L76 244L82 235L76 229L95 199C97.0277 198.369 99.0277 198.036 101 198Z" fill="#2F4351"/>
<path fill-rule="evenodd" clip-rule="evenodd" d="M163 198C167 217.333 165.333 244.667 158 280H174L188 244L182 235L188 229L169 199C166.972 198.369 164.972 198.036 163 198Z" fill="#2F4351"/>
<path fill-rule="evenodd" clip-rule="evenodd" d="M118 149C118 156.732 124.268 163 132 163C139.732 163 146 156.732 146 149" fill="black" fill-opacity="0.7"/>
<path fill-rule="evenodd" clip-rule="evenodd" d="M120 130C120 134.418 125.373 138 132 138C138.627 138 144 134.418 144 130" fill="black" fill-opacity="0.16"/>
<path d="M106 118C109.314 118 112 115.314 112 112C112 108.686 109.314 106 106 106C102.686 106 100 108.686 100 112C100 115.314 102.686 118 106 118Z" fill="black" fill-opacity="0.6"/>
<path d="M158 118C161.314 118 164 115.314 164 112C164 108.686 161.314 106 158 106C154.686 106 152 108.686 152 112C152 115.314 154.686 118 158 118Z" fill="black" fill-opacity="0.6"/>
<path d="M91.6304 99.1586C95.5453 93.6499 106.278 90.5608 115.523 92.8312C116.596 93.0946 117.679 92.4386 117.942 91.3659C118.206 90.2932 117.55 89.21 116.477 88.9466C105.741 86.31 93.3123 89.887 88.3699 96.8414C87.73 97.7418 87.9412 98.9904 88.8416 99.6303C89.7419 100.27 90.9905 100.059 91.6304 99.1586Z" fill="black" fill-opacity="0.6"/>
<path d="M172.37 99.1586C168.455 93.6499 157.722 90.5608 148.477 92.8312C147.404 93.0946 146.321 92.4386 146.058 91.3659C145.794 90.2932 146.45 89.21 147.523 88.9466C158.259 86.31 170.688 89.887 175.63 96.8414C176.27 97.7418 176.059 98.9904 175.158 99.6303C174.258 100.27 173.009 100.059 172.37 99.1586Z" fill="black" fill-opacity="0.6"/>
<mask id="mask6_3538_7563" style="mask-type:luminance" maskUnits="userSpaceOnUse" x="0" y="0" width="264" height="280">
<path d="M264 0H0V280H264V0Z" fill="white"/>
</mask>
<g mask="url(#mask6_3538_7563)">
<path fill-rule="evenodd" clip-rule="evenodd" d="M191.506 99.3351C195.364 101.331 198 105.357 198 110V123C198 129.019 193.569 134.002 187.791 134.867C186.048 155.115 173.531 172.283 156 180.611V199H160C177.491 199 193.525 205.237 206 215.608V92C206 71.5655 197.717 53.0655 184.326 39.6741C170.935 26.2827 152.435 18 132 18C91.1309 18 58 51.1309 58 92V275.716C71.5692 273.776 82 262.106 82 248V202.423C88.9347 200.2 96.3272 199 104 199H108V180.611C96.7726 175.277 87.6015 166.318 82 155.246V93.266C91.1468 90.291 100.778 86.0171 110.342 80.4953C125.745 71.6024 138.431 60.9409 147.066 50.397C148.831 55.5951 151.175 60.801 154.11 65.8848C162.878 81.0705 175.224 92.2337 188 97.917V98.1659C188.4 98.2331 188.794 98.3201 189.18 98.4259C189.955 98.7493 190.73 99.0525 191.506 99.3351Z" fill="#944F23"/>
<mask id="mask7_3538_7563" style="mask-type:luminance" maskUnits="userSpaceOnUse" x="58" y="18" width="148" height="258">
<path fill-rule="evenodd" clip-rule="evenodd" d="M191.506 99.3351C195.364 101.331 198 105.357 198 110V123C198 129.019 193.569 134.002 187.791 134.867C186.048 155.115 173.531 172.283 156 180.611V199H160C177.491 199 193.525 205.237 206 215.608V92C206 71.5655 197.717 53.0655 184.326 39.6741C170.935 26.2827 152.435 18 132 18C91.1309 18 58 51.1309 58 92V275.716C71.5692 273.776 82 262.106 82 248V202.423C88.9347 200.2 96.3272 199 104 199H108V180.611C96.7726 175.277 87.6015 166.318 82 155.246V93.266C91.1468 90.291 100.778 86.0171 110.342 80.4953C125.745 71.6024 138.431 60.9409 147.066 50.397C148.831 55.5951 151.175 60.801 154.11 65.8848C162.878 81.0705 175.224 92.2337 188 97.917V98.1659C188.4 98.2331 188.794 98.3201 189.18 98.4259C189.955 98.7493 190.73 99.0525 191.506 99.3351Z" fill="white"/>
</mask>
<g mask="url(#mask7_3538_7563)">
<path d="M322 18H58V298H322V18Z" fill="#4A312C"/>
</g>
<path fill-rule="evenodd" clip-rule="evenodd" d="M191.506 99.3351C196.374 101.108 201.263 102.072 206 102.148V92V215.608C193.525 205.237 177.491 199 160 199H156V180.611C173.531 172.283 186.048 155.115 187.791 134.867C193.569 134.002 198 129.019 198 123V110C198 105.357 195.364 101.331 191.506 99.3351ZM189.18 98.4259C188.794 98.3201 188.4 98.2331 188 98.1659V97.917C188.393 98.0918 188.786 98.2615 189.18 98.4259ZM82 155.246C87.6015 166.318 96.7726 175.277 108 180.611V199H104C96.3272 199 88.9347 200.2 82 202.423V155.246Z" fill="black" fill-opacity="0.24"/>
<g filter="url(#filter0_d_3538_7563)">
<path d="M101 133H98.2421C84.3147 133 76 125.336 76 112.5C76 102.127 77.817 92 99.5299 92H102.47C124.183 92 126 102.127 126 112.5C126 124.569 115.721 133 101 133ZM99.3854 98C80 98 80 104.841 80 113.502C80 120.572 83.1163 129 97.9709 129H101C113.365 129 122 122.627 122 113.502C122 104.841 122 98 102.615 98H99.3854Z" fill="#252C2F"/>
<path d="M163 133H160.242C146.315 133 138 125.336 138 112.5C138 102.127 139.817 92 161.53 92H164.47C186.183 92 188 102.127 188 112.5C188 124.569 177.721 133 163 133ZM161.385 98C142 98 142 104.841 142 113.502C142 120.572 145.119 129 159.971 129H163C175.365 129 184 122.627 184 113.502C184 104.841 184 98 164.615 98H161.385Z" fill="#252C2F"/>
<path d="M69.9545 97.7716C70.6459 97.0963 78.2095 92 99.5 92C117.351 92 121.13 93.8527 126.85 96.6519L127.269 96.8585C127.667 96.999 129.7 97.6898 132.079 97.7658C134.246 97.6728 136.1 97.0854 136.642 96.8972C143.17 93.7221 149.561 92 164.5 92C185.79 92 193.354 97.0963 194.045 97.7716C195.679 97.7716 197 99.0615 197 100.657V103.543C197 105.139 195.679 106.429 194.045 106.429C194.045 106.429 187.144 106.429 187.144 109.315C187.144 112.2 185.182 105.139 185.182 103.543V100.732C181.579 99.3534 175.128 96.7862 164.5 96.7862C152.658 96.7862 146.761 98.886 141.702 100.971L141.759 101.108L141.756 103.094L139.539 108.444L136.8 107.361C136.556 107.264 136.028 107.09 135.296 106.91C133.256 106.407 131.159 106.254 129.304 106.634C128.624 106.774 127.992 106.984 127.413 107.267L124.77 108.558L122.127 103.396L122.244 101.102L122.325 100.907C117.962 98.8739 113.939 96.7862 99.5 96.7862C88.8721 96.7862 82.4221 99.3524 78.8182 100.731V103.543C78.8182 105.139 75.8636 112.2 75.8636 109.315C75.8636 106.429 69.9545 106.429 69.9545 106.429C68.3236 106.429 67 105.139 67 103.543V100.657C67 99.0615 68.3236 97.7716 69.9545 97.7716Z" fill="#252C2F"/>
</g>
</g>
</g>
</g>
<defs>
<filter id="filter0_d_3538_7563" x="67" y="92" width="130" height="43" filterUnits="userSpaceOnUse" color-interpolation-filters="sRGB">
<feFlood flood-opacity="0" result="BackgroundImageFix"/>
<feColorMatrix in="SourceAlpha" type="matrix" values="0 0 0 0 0 0 0 0 0 0 0 0 0 0 0 0 0 0 127 0" result="hardAlpha"/>
<feOffset dy="2"/>
<feColorMatrix type="matrix" values="0 0 0 0 0 0 0 0 0 0 0 0 0 0 0 0 0 0 0.2 0"/>
<feBlend mode="normal" in2="BackgroundImageFix" result="effect1_dropShadow_3538_7563"/>
<feBlend mode="normal" in="SourceGraphic" in2="effect1_dropShadow_3538_7563" result="shape"/>
</filter>
<clipPath id="clip0_3538_7563">
<rect width="264" height="280" fill="white"/>
</clipPath>
</defs>
</svg>
