<svg width="264" height="280" viewBox="0 0 264 280" fill="none" xmlns="http://www.w3.org/2000/svg">
<g clip-path="url(#clip0_3538_7653)">
<path d="M132 280C198.274 280 252 226.274 252 160C252 93.7258 198.274 40 132 40C65.7258 40 12 93.7258 12 160C12 226.274 65.7258 280 132 280Z" fill="#E6E6E6"/>
<mask id="mask0_3538_7653" style="mask-type:luminance" maskUnits="userSpaceOnUse" x="12" y="40" width="240" height="240">
<path d="M132 280C198.274 280 252 226.274 252 160C252 93.7258 198.274 40 132 40C65.7258 40 12 93.7258 12 160C12 226.274 65.7258 280 132 280Z" fill="white"/>
</mask>
<g mask="url(#mask0_3538_7653)">
<path d="M252 40H12V280H252V40Z" fill="#65C9FF"/>
</g>
<mask id="mask1_3538_7653" style="mask-type:luminance" maskUnits="userSpaceOnUse" x="0" y="0" width="264" height="280">
<path d="M12 160C12 226.274 65.7258 280 132 280C198.274 280 252 226.274 252 160H264V0H0V160H12Z" fill="white"/>
</mask>
<g mask="url(#mask1_3538_7653)">
<path d="M156 180.611V199H160C199.764 199 232 231.236 232 271V280H32V271C32 231.236 64.2355 199 104 199H108V180.611C90.7626 172.422 78.3722 155.687 76.3051 135.881C70.4803 135.058 66 130.052 66 124V110C66 104.054 70.3246 99.1181 76 98.1659V92C76 61.0721 101.072 36 132 36C162.928 36 188 61.0721 188 92V98.1659C193.675 99.1181 198 104.054 198 110V124C198 130.052 193.52 135.058 187.695 135.881C185.628 155.687 173.237 172.422 156 180.611Z" fill="#D0C6AC"/>
<mask id="mask2_3538_7653" style="mask-type:luminance" maskUnits="userSpaceOnUse" x="32" y="36" width="200" height="244">
<path d="M156 180.611V199H160C199.764 199 232 231.236 232 271V280H32V271C32 231.236 64.2355 199 104 199H108V180.611C90.7626 172.422 78.3722 155.687 76.3051 135.881C70.4803 135.058 66 130.052 66 124V110C66 104.054 70.3246 99.1181 76 98.1659V92C76 61.0721 101.072 36 132 36C162.928 36 188 61.0721 188 92V98.1659C193.675 99.1181 198 104.054 198 110V124C198 130.052 193.52 135.058 187.695 135.881C185.628 155.687 173.237 172.422 156 180.611Z" fill="white"/>
</mask>
<g mask="url(#mask2_3538_7653)">
<path d="M296 36H32V316H296V36Z" fill="#D08B5B"/>
</g>
<mask id="mask3_3538_7653" style="mask-type:luminance" maskUnits="userSpaceOnUse" x="32" y="36" width="200" height="244">
<path d="M156 180.611V199H160C199.764 199 232 231.236 232 271V280H32V271C32 231.236 64.2355 199 104 199H108V180.611C90.7626 172.422 78.3722 155.687 76.3051 135.881C70.4803 135.058 66 130.052 66 124V110C66 104.054 70.3246 99.1181 76 98.1659V92C76 61.0721 101.072 36 132 36C162.928 36 188 61.0721 188 92V98.1659C193.675 99.1181 198 104.054 198 110V124C198 130.052 193.52 135.058 187.695 135.881C185.628 155.687 173.237 172.422 156 180.611Z" fill="white"/>
</mask>
<g mask="url(#mask3_3538_7653)">
<path fill-rule="evenodd" clip-rule="evenodd" d="M188 115V138C188 168.928 162.928 194 132 194C101.072 194 76 168.928 76 138V115V130C76 160.928 101.072 186 132 186C162.928 186 188 160.928 188 130V115Z" fill="black" fill-opacity="0.1"/>
</g>
<path fill-rule="evenodd" clip-rule="evenodd" d="M171.32 199.937C205.706 205.367 232 235.139 232 271.052V280H32V271.052C32 235.138 58.2944 205.366 92.6818 199.936C93.5836 205.005 96.1164 209.824 100.236 213.539L129.321 239.768C130.843 241.14 133.157 241.14 134.679 239.768L163.764 213.539C164.189 213.155 164.601 212.756 164.998 212.343C168.414 208.787 170.517 204.452 171.32 199.937Z" fill="#E6E6E6"/>
<mask id="mask4_3538_7653" style="mask-type:luminance" maskUnits="userSpaceOnUse" x="32" y="199" width="200" height="81">
<path fill-rule="evenodd" clip-rule="evenodd" d="M171.32 199.937C205.706 205.367 232 235.139 232 271.052V280H32V271.052C32 235.138 58.2944 205.366 92.6818 199.936C93.5836 205.005 96.1164 209.824 100.236 213.539L129.321 239.768C130.843 241.14 133.157 241.14 134.679 239.768L163.764 213.539C164.189 213.155 164.601 212.756 164.998 212.343C168.414 208.787 170.517 204.452 171.32 199.937Z" fill="white"/>
</mask>
<g mask="url(#mask4_3538_7653)">
<path d="M264 170H0V280H264V170Z" fill="#E6E6E6"/>
</g>
<path fill-rule="evenodd" clip-rule="evenodd" d="M112.008 172.864C113.128 158.876 116.235 147.007 131.996 147C147.758 146.993 150.917 158.943 151.994 172.994C152.081 174.124 151.174 175 150.037 175C143.351 175 140.67 173.006 131.989 173C123.309 172.994 118.757 175 114.092 175C112.949 175 111.896 174.263 112.008 172.864Z" fill="black" fill-opacity="0.7"/>
<mask id="mask5_3538_7653" style="mask-type:luminance" maskUnits="userSpaceOnUse" x="112" y="147" width="40" height="28">
<path fill-rule="evenodd" clip-rule="evenodd" d="M112.008 172.864C113.128 158.876 116.235 147.007 131.996 147C147.758 146.993 150.917 158.943 151.994 172.994C152.081 174.124 151.174 175 150.037 175C143.351 175 140.67 173.006 131.989 173C123.309 172.994 118.757 175 114.092 175C112.949 175 111.896 174.263 112.008 172.864Z" fill="white"/>
</mask>
<g mask="url(#mask5_3538_7653)">
<path d="M143 136H122C119.239 136 117 138.239 117 141V147C117 149.761 119.239 152 122 152H143C145.761 152 148 149.761 148 147V141C148 138.239 145.761 136 143 136Z" fill="white"/>
</g>
<mask id="mask6_3538_7653" style="mask-type:luminance" maskUnits="userSpaceOnUse" x="112" y="147" width="40" height="28">
<path fill-rule="evenodd" clip-rule="evenodd" d="M112.008 172.864C113.128 158.876 116.235 147.007 131.996 147C147.758 146.993 150.917 158.943 151.994 172.994C152.081 174.124 151.174 175 150.037 175C143.351 175 140.67 173.006 131.989 173C123.309 172.994 118.757 175 114.092 175C112.949 175 111.896 174.263 112.008 172.864Z" fill="white"/>
</mask>
<g mask="url(#mask6_3538_7653)">
<path d="M127 188C133.075 188 138 183.075 138 177C138 170.925 133.075 166 127 166C120.925 166 116 170.925 116 177C116 183.075 120.925 188 127 188Z" fill="#FF4F6D"/>
<path d="M137 188C143.075 188 148 183.075 148 177C148 170.925 143.075 166 137 166C130.925 166 126 170.925 126 177C126 183.075 130.925 188 137 188Z" fill="#FF4F6D"/>
</g>
<path fill-rule="evenodd" clip-rule="evenodd" d="M120 130C120 134.418 125.373 138 132 138C138.627 138 144 134.418 144 130" fill="black" fill-opacity="0.16"/>
<path d="M106 118C109.314 118 112 115.314 112 112C112 108.686 109.314 106 106 106C102.686 106 100 108.686 100 112C100 115.314 102.686 118 106 118Z" fill="black" fill-opacity="0.6"/>
<path d="M158 118C161.314 118 164 115.314 164 112C164 108.686 161.314 106 158 106C154.686 106 152 108.686 152 112C152 115.314 154.686 118 158 118Z" fill="black" fill-opacity="0.6"/>
<path fill-rule="evenodd" clip-rule="evenodd" d="M114.661 93.0902C109.663 93.4522 104.738 93.1756 99.7436 92.9683C95.9136 92.8098 92.0261 92.2867 88.3697 93.9801C87.6695 94.304 83.8395 96.2592 83.9286 97.3289C83.9996 98.1843 87.8643 99.5203 88.5599 99.7649C92.2286 101.055 95.7406 100.66 99.5137 100.434C104.142 100.157 108.749 100.361 113.375 100.221C116.49 100.128 121.291 99.6003 122.831 95.8232C123.295 94.6857 122.936 92.4099 122.472 91.1658C122.286 90.6701 121.751 90.4834 121.346 90.769C119.897 91.7921 117.085 92.915 114.661 93.0902Z" fill="black" fill-opacity="0.6"/>
<path fill-rule="evenodd" clip-rule="evenodd" d="M149.341 93.0902C154.339 93.4522 159.263 93.1756 164.258 92.9683C168.088 92.8098 171.976 92.2867 175.632 93.9801C176.332 94.304 180.162 96.2592 180.073 97.3289C180.002 98.1843 176.138 99.5203 175.442 99.7649C171.773 101.055 168.261 100.66 164.488 100.434C159.86 100.157 155.253 100.361 150.627 100.221C147.512 100.128 142.711 99.6003 141.171 95.8232C140.707 94.6857 141.066 92.4099 141.53 91.1658C141.716 90.6701 142.251 90.4834 142.656 90.769C144.105 91.7921 146.917 92.915 149.341 93.0902Z" fill="black" fill-opacity="0.6"/>
<mask id="mask7_3538_7653" style="mask-type:luminance" maskUnits="userSpaceOnUse" x="0" y="0" width="264" height="280">
<path d="M264 0H0V280H264V0Z" fill="white"/>
</mask>
<g mask="url(#mask7_3538_7653)">
<path fill-rule="evenodd" clip-rule="evenodd" d="M191.506 99.3351C195.364 101.331 198 105.357 198 110V123C198 129.019 193.569 134.002 187.791 134.867C186.048 155.115 173.531 172.283 156 180.611V199H160C177.491 199 193.525 205.237 206 215.608V92C206 71.5655 197.717 53.0655 184.326 39.6741C170.935 26.2827 152.435 18 132 18C91.1309 18 58 51.1309 58 92V275.716C71.5692 273.776 82 262.106 82 248V202.423C88.9347 200.2 96.3272 199 104 199H108V180.611C96.7726 175.277 87.6015 166.318 82 155.246V93.266C91.1468 90.291 100.778 86.0171 110.342 80.4953C125.745 71.6024 138.431 60.9409 147.066 50.397C148.831 55.5951 151.175 60.801 154.11 65.8848C162.878 81.0705 175.224 92.2337 188 97.917V98.1659C188.4 98.2331 188.794 98.3201 189.18 98.4259C189.955 98.7493 190.73 99.0525 191.506 99.3351Z" fill="#944F23"/>
<mask id="mask8_3538_7653" style="mask-type:luminance" maskUnits="userSpaceOnUse" x="58" y="18" width="148" height="258">
<path fill-rule="evenodd" clip-rule="evenodd" d="M191.506 99.3351C195.364 101.331 198 105.357 198 110V123C198 129.019 193.569 134.002 187.791 134.867C186.048 155.115 173.531 172.283 156 180.611V199H160C177.491 199 193.525 205.237 206 215.608V92C206 71.5655 197.717 53.0655 184.326 39.6741C170.935 26.2827 152.435 18 132 18C91.1309 18 58 51.1309 58 92V275.716C71.5692 273.776 82 262.106 82 248V202.423C88.9347 200.2 96.3272 199 104 199H108V180.611C96.7726 175.277 87.6015 166.318 82 155.246V93.266C91.1468 90.291 100.778 86.0171 110.342 80.4953C125.745 71.6024 138.431 60.9409 147.066 50.397C148.831 55.5951 151.175 60.801 154.11 65.8848C162.878 81.0705 175.224 92.2337 188 97.917V98.1659C188.4 98.2331 188.794 98.3201 189.18 98.4259C189.955 98.7493 190.73 99.0525 191.506 99.3351Z" fill="white"/>
</mask>
<g mask="url(#mask8_3538_7653)">
<path d="M322 18H58V298H322V18Z" fill="#ECDCBF"/>
</g>
<path fill-rule="evenodd" clip-rule="evenodd" d="M191.506 99.3351C196.374 101.108 201.263 102.072 206 102.148V92V215.608C193.525 205.237 177.491 199 160 199H156V180.611C173.531 172.283 186.048 155.115 187.791 134.867C193.569 134.002 198 129.019 198 123V110C198 105.357 195.364 101.331 191.506 99.3351ZM189.18 98.4259C188.794 98.3201 188.4 98.2331 188 98.1659V97.917C188.393 98.0918 188.786 98.2615 189.18 98.4259ZM82 155.246C87.6015 166.318 96.7726 175.277 108 180.611V199H104C96.3272 199 88.9347 200.2 82 202.423V155.246Z" fill="black" fill-opacity="0.24"/>
<g filter="url(#filter0_d_3538_7653)">
<path fill-rule="evenodd" clip-rule="evenodd" d="M123.714 112.5C123.714 122.202 115.463 130.071 101.716 130.071H98.9661C85.2188 130.071 79.7188 122.199 79.7188 112.5C79.7188 102.795 81.0029 94.9286 100.25 94.9286H103.182C122.429 94.9286 123.714 102.795 123.714 112.5Z" fill="black" fill-opacity="0.7"/>
<path style="mix-blend-mode:screen" fill-rule="evenodd" clip-rule="evenodd" d="M123.714 112.5C123.714 122.202 115.463 130.071 101.716 130.071H98.9661C85.2188 130.071 79.7188 122.199 79.7188 112.5C79.7188 102.795 81.0029 94.9286 100.25 94.9286H103.182C122.429 94.9286 123.714 102.795 123.714 112.5Z" fill="url(#paint0_linear_3538_7653)"/>
<path fill-rule="evenodd" clip-rule="evenodd" d="M185.282 112.5C185.282 122.202 177.035 130.071 163.285 130.071H160.535C146.787 130.071 141.287 122.199 141.287 112.5C141.287 102.795 142.571 94.9286 161.819 94.9286H164.75C183.995 94.9286 185.282 102.795 185.282 112.5Z" fill="black" fill-opacity="0.7"/>
<path style="mix-blend-mode:screen" fill-rule="evenodd" clip-rule="evenodd" d="M185.282 112.5C185.282 122.202 177.035 130.071 163.285 130.071H160.535C146.787 130.071 141.287 122.199 141.287 112.5C141.287 102.795 142.571 94.9286 161.819 94.9286H164.75C183.995 94.9286 185.282 102.795 185.282 112.5Z" fill="url(#paint1_linear_3538_7653)"/>
<path d="M101.716 133H98.9663C85.0783 133 76.7871 125.336 76.7871 112.5C76.7871 102.127 78.599 92 100.25 92H103.182C124.834 92 126.646 102.127 126.646 112.5C126.646 124.569 116.396 133 101.716 133ZM100.25 97.8542C82.6507 97.8542 82.6507 104.318 82.6507 112.5C82.6507 119.18 85.48 127.143 98.9663 127.143H101.716C112.942 127.143 120.782 121.122 120.782 112.5C120.782 104.318 120.782 97.8542 103.182 97.8542H100.25Z" fill="#252C2F"/>
<path d="M163.285 133H160.535C146.647 133 138.355 125.336 138.355 112.5C138.355 102.127 140.167 92 161.819 92H164.751C186.402 92 188.214 102.127 188.214 112.5C188.214 124.569 177.964 133 163.285 133ZM161.819 97.8542C144.219 97.8542 144.219 104.318 144.219 112.5C144.219 119.18 147.051 127.143 160.535 127.143H163.285C174.511 127.143 182.35 121.122 182.35 112.5C182.35 104.318 182.35 97.8542 164.751 97.8542H161.819Z" fill="#252C2F"/>
<path d="M70.9318 97.8571C71.6179 97.1719 79.1233 92 100.25 92C117.964 92 121.714 93.8801 127.39 96.7209L127.805 96.9305C128.2 97.0731 130.218 97.7742 132.578 97.8513C134.729 97.7569 136.568 97.1608 137.106 96.9698C143.584 93.7476 149.926 92 164.75 92C185.877 92 193.382 97.1719 194.068 97.8571C195.689 97.8571 197 99.1662 197 100.786V103.714C197 105.334 195.689 106.643 194.068 106.643C194.068 106.643 188.205 106.643 188.205 109.571C188.205 112.5 185.273 105.334 185.273 103.714V100.862C181.697 99.4624 175.297 97.8571 164.75 97.8571C153 97.8571 147.148 98.9881 142.128 101.104L142.184 101.243L139.688 102.25L142.181 103.258L139.981 108.687L137.264 107.589C137.021 107.49 136.497 107.314 135.771 107.131C133.747 106.62 131.665 106.465 129.825 106.851C129.15 106.993 128.523 107.206 127.948 107.493L125.326 108.803L122.703 103.565L125.325 102.255L125.331 102.252L122.819 101.237L122.899 101.039C118.57 98.9758 114.578 97.8571 100.25 97.8571C89.7039 97.8571 83.3035 99.4615 79.7273 100.861V103.714C79.7273 105.334 76.7955 112.5 76.7955 109.571C76.7955 106.643 70.9318 106.643 70.9318 106.643C69.3135 106.643 68 105.334 68 103.714V100.786C68 99.1662 69.3135 97.8571 70.9318 97.8571Z" fill="#252C2F"/>
</g>
</g>
</g>
</g>
<defs>
<filter id="filter0_d_3538_7653" x="68" y="92" width="129" height="43" filterUnits="userSpaceOnUse" color-interpolation-filters="sRGB">
<feFlood flood-opacity="0" result="BackgroundImageFix"/>
<feColorMatrix in="SourceAlpha" type="matrix" values="0 0 0 0 0 0 0 0 0 0 0 0 0 0 0 0 0 0 127 0" result="hardAlpha"/>
<feOffset dy="2"/>
<feColorMatrix type="matrix" values="0 0 0 0 0 0 0 0 0 0 0 0 0 0 0 0 0 0 0.2 0"/>
<feBlend mode="normal" in2="BackgroundImageFix" result="effect1_dropShadow_3538_7653"/>
<feBlend mode="normal" in="SourceGraphic" in2="effect1_dropShadow_3538_7653" result="shape"/>
</filter>
<linearGradient id="paint0_linear_3538_7653" x1="2279.46" y1="94.9286" x2="2279.46" y2="3609.21" gradientUnits="userSpaceOnUse">
<stop stop-color="white" stop-opacity="0.5"/>
<stop offset="0.705058" stop-opacity="0.5"/>
</linearGradient>
<linearGradient id="paint1_linear_3538_7653" x1="2341.03" y1="94.9286" x2="2341.03" y2="3609.21" gradientUnits="userSpaceOnUse">
<stop stop-color="white" stop-opacity="0.5"/>
<stop offset="0.705058" stop-opacity="0.5"/>
</linearGradient>
<clipPath id="clip0_3538_7653">
<rect width="264" height="280" fill="white"/>
</clipPath>
</defs>
</svg>
