<svg width="264" height="280" viewBox="0 0 264 280" fill="none" xmlns="http://www.w3.org/2000/svg">
<g clip-path="url(#clip0_3538_7832)">
<path d="M132 280C198.274 280 252 226.274 252 160C252 93.7258 198.274 40 132 40C65.7258 40 12 93.7258 12 160C12 226.274 65.7258 280 132 280Z" fill="#E6E6E6"/>
<mask id="mask0_3538_7832" style="mask-type:luminance" maskUnits="userSpaceOnUse" x="12" y="40" width="240" height="240">
<path d="M132 280C198.274 280 252 226.274 252 160C252 93.7258 198.274 40 132 40C65.7258 40 12 93.7258 12 160C12 226.274 65.7258 280 132 280Z" fill="white"/>
</mask>
<g mask="url(#mask0_3538_7832)">
<path d="M252 40H12V280H252V40Z" fill="#65C9FF"/>
</g>
<mask id="mask1_3538_7832" style="mask-type:luminance" maskUnits="userSpaceOnUse" x="0" y="0" width="264" height="280">
<path d="M12 160C12 226.274 65.7258 280 132 280C198.274 280 252 226.274 252 160H264V0H0V160H12Z" fill="white"/>
</mask>
<g mask="url(#mask1_3538_7832)">
<path d="M156 180.611V199H160C199.764 199 232 231.236 232 271V280H32V271C32 231.236 64.2355 199 104 199H108V180.611C90.7626 172.422 78.3722 155.687 76.3051 135.881C70.4803 135.058 66 130.052 66 124V110C66 104.054 70.3246 99.1181 76 98.1659V92C76 61.0721 101.072 36 132 36C162.928 36 188 61.0721 188 92V98.1659C193.675 99.1181 198 104.054 198 110V124C198 130.052 193.52 135.058 187.695 135.881C185.628 155.687 173.237 172.422 156 180.611Z" fill="#D0C6AC"/>
<mask id="mask2_3538_7832" style="mask-type:luminance" maskUnits="userSpaceOnUse" x="32" y="36" width="200" height="244">
<path d="M156 180.611V199H160C199.764 199 232 231.236 232 271V280H32V271C32 231.236 64.2355 199 104 199H108V180.611C90.7626 172.422 78.3722 155.687 76.3051 135.881C70.4803 135.058 66 130.052 66 124V110C66 104.054 70.3246 99.1181 76 98.1659V92C76 61.0721 101.072 36 132 36C162.928 36 188 61.0721 188 92V98.1659C193.675 99.1181 198 104.054 198 110V124C198 130.052 193.52 135.058 187.695 135.881C185.628 155.687 173.237 172.422 156 180.611Z" fill="white"/>
</mask>
<g mask="url(#mask2_3538_7832)">
<path d="M296 36H32V316H296V36Z" fill="#D08B5B"/>
</g>
<mask id="mask3_3538_7832" style="mask-type:luminance" maskUnits="userSpaceOnUse" x="32" y="36" width="200" height="244">
<path d="M156 180.611V199H160C199.764 199 232 231.236 232 271V280H32V271C32 231.236 64.2355 199 104 199H108V180.611C90.7626 172.422 78.3722 155.687 76.3051 135.881C70.4803 135.058 66 130.052 66 124V110C66 104.054 70.3246 99.1181 76 98.1659V92C76 61.0721 101.072 36 132 36C162.928 36 188 61.0721 188 92V98.1659C193.675 99.1181 198 104.054 198 110V124C198 130.052 193.52 135.058 187.695 135.881C185.628 155.687 173.237 172.422 156 180.611Z" fill="white"/>
</mask>
<g mask="url(#mask3_3538_7832)">
<path fill-rule="evenodd" clip-rule="evenodd" d="M188 115V138C188 168.928 162.928 194 132 194C101.072 194 76 168.928 76 138V115V130C76 160.928 101.072 186 132 186C162.928 186 188 160.928 188 130V115Z" fill="black" fill-opacity="0.1"/>
</g>
<path fill-rule="evenodd" clip-rule="evenodd" d="M181.544 202.33C210.784 211.488 232 238.792 232 271.052V280H32V271.052C32 238.397 53.7388 210.82 83.534 202.002C83.1822 203.42 83 204.871 83 206.348C83 222.629 105.162 235.828 132.5 235.828C159.838 235.828 182 222.629 182 206.348C182 204.985 181.845 203.644 181.544 202.33Z" fill="#E6E6E6"/>
<mask id="mask4_3538_7832" style="mask-type:luminance" maskUnits="userSpaceOnUse" x="32" y="202" width="200" height="78">
<path fill-rule="evenodd" clip-rule="evenodd" d="M181.544 202.33C210.784 211.488 232 238.792 232 271.052V280H32V271.052C32 238.397 53.7388 210.82 83.534 202.002C83.1822 203.42 83 204.871 83 206.348C83 222.629 105.162 235.828 132.5 235.828C159.838 235.828 182 222.629 182 206.348C182 204.985 181.845 203.644 181.544 202.33Z" fill="white"/>
</mask>
<g mask="url(#mask4_3538_7832)">
<path d="M264 170H0V280H264V170Z" fill="#3C4F5C"/>
</g>
<path fill-rule="evenodd" clip-rule="evenodd" d="M118 149C118 156.732 124.268 163 132 163C139.732 163 146 156.732 146 149" fill="black" fill-opacity="0.7"/>
<path fill-rule="evenodd" clip-rule="evenodd" d="M120 130C120 134.418 125.373 138 132 138C138.627 138 144 134.418 144 130" fill="black" fill-opacity="0.16"/>
<path d="M106 118C109.314 118 112 115.314 112 112C112 108.686 109.314 106 106 106C102.686 106 100 108.686 100 112C100 115.314 102.686 118 106 118Z" fill="black" fill-opacity="0.6"/>
<path d="M158 118C161.314 118 164 115.314 164 112C164 108.686 161.314 106 158 106C154.686 106 152 108.686 152 112C152 115.314 154.686 118 158 118Z" fill="black" fill-opacity="0.6"/>
<path fill-rule="evenodd" clip-rule="evenodd" d="M102.545 88.1484C96.7385 88.4167 87.3504 92.6363 87.5922 98.4922C87.6002 98.6839 87.8818 98.768 88.0193 98.6206C90.7742 95.6613 110.335 92.6709 117.224 94.2556C117.855 94.4008 118.334 93.7788 117.934 93.3295C114.512 89.4812 107.748 87.903 102.545 88.1484Z" fill="black" fill-opacity="0.6"/>
<path fill-rule="evenodd" clip-rule="evenodd" d="M162.453 88.1484C168.26 88.4167 177.648 92.6363 177.406 98.4922C177.398 98.6839 177.116 98.768 176.979 98.6206C174.224 95.6613 154.663 92.6709 147.774 94.2556C147.143 94.4008 146.664 93.7788 147.064 93.3295C150.486 89.4812 157.25 87.903 162.453 88.1484Z" fill="black" fill-opacity="0.6"/>
<mask id="mask5_3538_7832" style="mask-type:luminance" maskUnits="userSpaceOnUse" x="0" y="0" width="264" height="280">
<path d="M264 0H0V280H264V0Z" fill="white"/>
</mask>
<g mask="url(#mask5_3538_7832)">
<path fill-rule="evenodd" clip-rule="evenodd" d="M65.0413 77.075C70.6787 45.2058 98.5122 21 131.999 21C169.555 21 199.999 51.4446 199.999 89V119.751C200.874 129.554 201.693 136.422 202.455 140.354C203.833 147.458 208.149 145.115 208.149 155.22C208.149 165.325 203.821 168.72 203.802 177.705C203.784 186.691 219.2 193.836 219.2 205.243C219.2 216.649 212.125 270.476 141.577 270.476C126.506 270.476 113.67 266.189 103.067 257.614C103.749 264.104 104.394 271.566 104.999 280H57.9992C58.9316 256.229 50.7148 242.936 50.7148 216.446C50.7148 189.955 64.3518 151.428 63.9992 142C64.0192 141.418 64.0399 140.728 64.0613 139.932C64.02 138.96 63.9992 137.982 63.9992 137V89C63.9992 85.0241 64.3404 81.1279 64.9952 77.339C64.9965 77.2262 64.9978 77.1132 64.9992 77C65.0133 77.025 65.0273 77.05 65.0413 77.075ZM131.499 53C101.4 53 76.9992 77.4005 76.9992 107.5V130.5C76.9992 160.6 101.4 185 131.499 185H132.499C162.599 185 186.999 160.6 186.999 130.5V107.5C186.999 77.4005 162.599 53 132.499 53H131.499Z" fill="#3B6BAD"/>
<mask id="mask6_3538_7832" style="mask-type:luminance" maskUnits="userSpaceOnUse" x="50" y="21" width="170" height="259">
<path fill-rule="evenodd" clip-rule="evenodd" d="M65.0413 77.075C70.6787 45.2058 98.5122 21 131.999 21C169.555 21 199.999 51.4446 199.999 89V119.751C200.874 129.554 201.693 136.422 202.455 140.354C203.833 147.458 208.149 145.115 208.149 155.22C208.149 165.325 203.821 168.72 203.802 177.705C203.784 186.691 219.2 193.836 219.2 205.243C219.2 216.649 212.125 270.476 141.577 270.476C126.506 270.476 113.67 266.189 103.067 257.614C103.749 264.104 104.394 271.566 104.999 280H57.9992C58.9316 256.229 50.7148 242.936 50.7148 216.446C50.7148 189.955 64.3518 151.428 63.9992 142C64.0192 141.418 64.0399 140.728 64.0613 139.932C64.02 138.96 63.9992 137.982 63.9992 137V89C63.9992 85.0241 64.3404 81.1279 64.9952 77.339C64.9965 77.2262 64.9978 77.1132 64.9992 77C65.0133 77.025 65.0273 77.05 65.0413 77.075ZM131.499 53C101.4 53 76.9992 77.4005 76.9992 107.5V130.5C76.9992 160.6 101.4 185 131.499 185H132.499C162.599 185 186.999 160.6 186.999 130.5V107.5C186.999 77.4005 162.599 53 132.499 53H131.499Z" fill="white"/>
</mask>
<g mask="url(#mask6_3538_7832)">
<path d="M263 0H-1V280H263V0Z" fill="#A7FFC4"/>
</g>
<mask id="mask7_3538_7832" style="mask-type:luminance" maskUnits="userSpaceOnUse" x="50" y="21" width="170" height="259">
<path fill-rule="evenodd" clip-rule="evenodd" d="M65.0413 77.075C70.6787 45.2058 98.5122 21 131.999 21C169.555 21 199.999 51.4446 199.999 89V119.751C200.874 129.554 201.693 136.422 202.455 140.354C203.833 147.458 208.149 145.115 208.149 155.22C208.149 165.325 203.821 168.72 203.802 177.705C203.784 186.691 219.2 193.836 219.2 205.243C219.2 216.649 212.125 270.476 141.577 270.476C126.506 270.476 113.67 266.189 103.067 257.614C103.749 264.104 104.394 271.566 104.999 280H57.9992C58.9316 256.229 50.7148 242.936 50.7148 216.446C50.7148 189.955 64.3518 151.428 63.9992 142C64.0192 141.418 64.0399 140.728 64.0613 139.932C64.02 138.96 63.9992 137.982 63.9992 137V89C63.9992 85.0241 64.3404 81.1279 64.9952 77.339C64.9965 77.2262 64.9978 77.1132 64.9992 77C65.0133 77.025 65.0273 77.05 65.0413 77.075ZM131.499 53C101.4 53 76.9992 77.4005 76.9992 107.5V130.5C76.9992 160.6 101.4 185 131.499 185H132.499C162.599 185 186.999 160.6 186.999 130.5V107.5C186.999 77.4005 162.599 53 132.499 53H131.499Z" fill="white"/>
</mask>
<g mask="url(#mask7_3538_7832)">
<path fill-rule="evenodd" clip-rule="evenodd" d="M71.0744 104.96C70.369 101.247 70 97.4162 70 93.5C70 59.5345 97.7583 32 132 32C166.242 32 194 59.5345 194 93.5C194 97.4162 193.631 101.247 192.926 104.96C191.341 72.6828 164.67 47 132 47C99.3301 47 72.6587 72.6828 71.0744 104.96Z" fill="white" fill-opacity="0.5"/>
</g>
<mask id="mask8_3538_7832" style="mask-type:luminance" maskUnits="userSpaceOnUse" x="50" y="21" width="170" height="259">
<path fill-rule="evenodd" clip-rule="evenodd" d="M65.0413 77.075C70.6787 45.2058 98.5122 21 131.999 21C169.555 21 199.999 51.4446 199.999 89V119.751C200.874 129.554 201.693 136.422 202.455 140.354C203.833 147.458 208.149 145.115 208.149 155.22C208.149 165.325 203.821 168.72 203.802 177.705C203.784 186.691 219.2 193.836 219.2 205.243C219.2 216.649 212.125 270.476 141.577 270.476C126.506 270.476 113.67 266.189 103.067 257.614C103.749 264.104 104.394 271.566 104.999 280H57.9992C58.9316 256.229 50.7148 242.936 50.7148 216.446C50.7148 189.955 64.3518 151.428 63.9992 142C64.0192 141.418 64.0399 140.728 64.0613 139.932C64.02 138.96 63.9992 137.982 63.9992 137V89C63.9992 85.0241 64.3404 81.1279 64.9952 77.339C64.9965 77.2262 64.9978 77.1132 64.9992 77C65.0133 77.025 65.0273 77.05 65.0413 77.075ZM131.499 53C101.4 53 76.9992 77.4005 76.9992 107.5V130.5C76.9992 160.6 101.4 185 131.499 185H132.499C162.599 185 186.999 160.6 186.999 130.5V107.5C186.999 77.4005 162.599 53 132.499 53H131.499Z" fill="white"/>
</mask>
<g mask="url(#mask8_3538_7832)">
<path opacity="0.9" fill-rule="evenodd" clip-rule="evenodd" d="M186.929 104.695C187.631 108.188 188 111.801 188 115.5V138.5C188 168.6 163.6 193 133.5 193H130.5C100.4 193 76 168.6 76 138.5V115.5C76 111.801 76.3685 108.188 77.0709 104.695C77.0238 105.624 77 106.559 77 107.5V130.5C77 160.6 101.4 185 131.5 185H132.5C162.6 185 187 160.6 187 130.5V107.5C187 106.559 186.976 105.624 186.929 104.695ZM113.167 206.995C119.651 211.981 134.663 213.708 151.405 210.756C168.146 207.805 181.662 201.047 186.05 194.144C186.118 194.397 186.175 194.652 186.221 194.911C187.931 204.606 172.985 215.345 152.84 218.898C132.695 222.45 114.978 217.47 113.268 207.775C113.223 207.516 113.189 207.256 113.167 206.995ZM125.035 235.921C133.227 241.575 149.422 241.844 166.104 235.772C182.786 229.7 195.019 219.085 197.66 209.488C197.803 209.808 197.935 210.135 198.056 210.467C202.583 222.904 189.979 238.909 169.905 246.216C149.831 253.522 129.888 249.363 125.361 236.926C125.24 236.594 125.131 236.259 125.035 235.921Z" fill="black" fill-opacity="0.16"/>
</g>
<g filter="url(#filter0_d_3538_7832)">
<path fill-rule="evenodd" clip-rule="evenodd" d="M141.465 101.394C145.38 93.4587 153.553 88 163 88C171.92 88 179.703 92.8659 183.84 100.088C184.05 100.031 184.272 100 184.5 100H192.5C193.881 100 195 101.119 195 102.5C195 103.881 193.881 105 192.5 105H185.963C186.637 107.215 187 109.565 187 112C187 125.255 176.255 136 163 136C149.745 136 139 125.255 139 112C139 110.578 139.124 109.185 139.361 107.831C139.276 103.455 135.914 100 131.862 100C128.126 100 124.975 102.94 124.442 106.83C124.807 108.495 125 110.225 125 112C125 125.255 114.255 136 101 136C87.7452 136 77 125.255 77 112C77 109.565 77.3626 107.215 78.0369 105H71.5C70.1193 105 69 103.881 69 102.5C69 101.119 70.1193 100 71.5 100H79.5C79.7285 100 79.9498 100.031 80.1601 100.088C84.2971 92.8659 92.0803 88 101 88C110.352 88 118.455 93.3492 122.416 101.155C124.493 98.0393 127.949 96 131.862 96C135.875 96 139.407 98.1441 141.465 101.394ZM101 132C112.046 132 121 123.046 121 112C121 100.954 112.046 92 101 92C89.9543 92 81 100.954 81 112C81 123.046 89.9543 132 101 132ZM163 132C174.046 132 183 123.046 183 112C183 100.954 174.046 92 163 92C151.954 92 143 100.954 143 112C143 123.046 151.954 132 163 132Z" fill="black"/>
</g>
<path fill-rule="evenodd" clip-rule="evenodd" d="M141.465 101.394C145.38 93.4587 153.553 88 163 88C171.92 88 179.703 92.8659 183.84 100.088C184.05 100.031 184.272 100 184.5 100H192.5C193.881 100 195 101.119 195 102.5C195 103.881 193.881 105 192.5 105H185.963C186.637 107.215 187 109.565 187 112C187 125.255 176.255 136 163 136C149.745 136 139 125.255 139 112C139 110.578 139.124 109.185 139.361 107.831C139.276 103.455 135.914 100 131.862 100C128.126 100 124.975 102.94 124.442 106.83C124.807 108.495 125 110.225 125 112C125 125.255 114.255 136 101 136C87.7452 136 77 125.255 77 112C77 109.565 77.3626 107.215 78.0369 105H71.5C70.1193 105 69 103.881 69 102.5C69 101.119 70.1193 100 71.5 100H79.5C79.7285 100 79.9498 100.031 80.1601 100.088C84.2971 92.8659 92.0803 88 101 88C110.352 88 118.455 93.3492 122.416 101.155C124.493 98.0393 127.949 96 131.862 96C135.875 96 139.407 98.1441 141.465 101.394ZM101 132C112.046 132 121 123.046 121 112C121 100.954 112.046 92 101 92C89.9543 92 81 100.954 81 112C81 123.046 89.9543 132 101 132ZM163 132C174.046 132 183 123.046 183 112C183 100.954 174.046 92 163 92C151.954 92 143 100.954 143 112C143 123.046 151.954 132 163 132Z" fill="#252C2F"/>
</g>
</g>
</g>
<defs>
<filter id="filter0_d_3538_7832" x="69" y="88" width="126" height="50" filterUnits="userSpaceOnUse" color-interpolation-filters="sRGB">
<feFlood flood-opacity="0" result="BackgroundImageFix"/>
<feColorMatrix in="SourceAlpha" type="matrix" values="0 0 0 0 0 0 0 0 0 0 0 0 0 0 0 0 0 0 127 0" result="hardAlpha"/>
<feOffset dy="2"/>
<feColorMatrix type="matrix" values="0 0 0 0 0 0 0 0 0 0 0 0 0 0 0 0 0 0 0.1 0"/>
<feBlend mode="normal" in2="BackgroundImageFix" result="effect1_dropShadow_3538_7832"/>
<feBlend mode="normal" in="SourceGraphic" in2="effect1_dropShadow_3538_7832" result="shape"/>
</filter>
<clipPath id="clip0_3538_7832">
<rect width="264" height="280" fill="white"/>
</clipPath>
</defs>
</svg>
