<svg width="264" height="280" viewBox="0 0 264 280" fill="none" xmlns="http://www.w3.org/2000/svg">
<g clip-path="url(#clip0_3538_7910)">
<path d="M132 280C198.274 280 252 226.274 252 160C252 93.7258 198.274 40 132 40C65.7258 40 12 93.7258 12 160C12 226.274 65.7258 280 132 280Z" fill="#E6E6E6"/>
<mask id="mask0_3538_7910" style="mask-type:luminance" maskUnits="userSpaceOnUse" x="12" y="40" width="240" height="240">
<path d="M132 280C198.274 280 252 226.274 252 160C252 93.7258 198.274 40 132 40C65.7258 40 12 93.7258 12 160C12 226.274 65.7258 280 132 280Z" fill="white"/>
</mask>
<g mask="url(#mask0_3538_7910)">
<path d="M252 40H12V280H252V40Z" fill="#65C9FF"/>
</g>
<mask id="mask1_3538_7910" style="mask-type:luminance" maskUnits="userSpaceOnUse" x="0" y="0" width="264" height="280">
<path d="M12 160C12 226.274 65.7258 280 132 280C198.274 280 252 226.274 252 160H264V0H0V160H12Z" fill="white"/>
</mask>
<g mask="url(#mask1_3538_7910)">
<path d="M156 180.611V199H160C199.764 199 232 231.236 232 271V280H32V271C32 231.236 64.2355 199 104 199H108V180.611C90.7626 172.422 78.3722 155.687 76.3051 135.881C70.4803 135.058 66 130.052 66 124V110C66 104.054 70.3246 99.1181 76 98.1659V92C76 61.0721 101.072 36 132 36C162.928 36 188 61.0721 188 92V98.1659C193.675 99.1181 198 104.054 198 110V124C198 130.052 193.52 135.058 187.695 135.881C185.628 155.687 173.237 172.422 156 180.611Z" fill="#D0C6AC"/>
<mask id="mask2_3538_7910" style="mask-type:luminance" maskUnits="userSpaceOnUse" x="32" y="36" width="200" height="244">
<path d="M156 180.611V199H160C199.764 199 232 231.236 232 271V280H32V271C32 231.236 64.2355 199 104 199H108V180.611C90.7626 172.422 78.3722 155.687 76.3051 135.881C70.4803 135.058 66 130.052 66 124V110C66 104.054 70.3246 99.1181 76 98.1659V92C76 61.0721 101.072 36 132 36C162.928 36 188 61.0721 188 92V98.1659C193.675 99.1181 198 104.054 198 110V124C198 130.052 193.52 135.058 187.695 135.881C185.628 155.687 173.237 172.422 156 180.611Z" fill="white"/>
</mask>
<g mask="url(#mask2_3538_7910)">
<path d="M296 36H32V316H296V36Z" fill="#D08B5B"/>
</g>
<mask id="mask3_3538_7910" style="mask-type:luminance" maskUnits="userSpaceOnUse" x="32" y="36" width="200" height="244">
<path d="M156 180.611V199H160C199.764 199 232 231.236 232 271V280H32V271C32 231.236 64.2355 199 104 199H108V180.611C90.7626 172.422 78.3722 155.687 76.3051 135.881C70.4803 135.058 66 130.052 66 124V110C66 104.054 70.3246 99.1181 76 98.1659V92C76 61.0721 101.072 36 132 36C162.928 36 188 61.0721 188 92V98.1659C193.675 99.1181 198 104.054 198 110V124C198 130.052 193.52 135.058 187.695 135.881C185.628 155.687 173.237 172.422 156 180.611Z" fill="white"/>
</mask>
<g mask="url(#mask3_3538_7910)">
<path fill-rule="evenodd" clip-rule="evenodd" d="M188 115V138C188 168.928 162.928 194 132 194C101.072 194 76 168.928 76 138V115V130C76 160.928 101.072 186 132 186C162.928 186 188 160.928 188 130V115Z" fill="black" fill-opacity="0.1"/>
</g>
<path fill-rule="evenodd" clip-rule="evenodd" d="M105.192 199.052H104C64.2355 199.052 32 231.287 32 271.052V280H232V271.052C232 231.287 199.764 199.052 160 199.052H158.808C158.935 200.035 159 201.036 159 202.052C159 215.859 146.912 227.052 132 227.052C117.088 227.052 105 215.859 105 202.052C105 201.036 105.065 200.035 105.192 199.052Z" fill="#E6E6E6"/>
<mask id="mask4_3538_7910" style="mask-type:luminance" maskUnits="userSpaceOnUse" x="32" y="199" width="200" height="81">
<path fill-rule="evenodd" clip-rule="evenodd" d="M105.192 199.052H104C64.2355 199.052 32 231.287 32 271.052V280H232V271.052C232 231.287 199.764 199.052 160 199.052H158.808C158.935 200.035 159 201.036 159 202.052C159 215.859 146.912 227.052 132 227.052C117.088 227.052 105 215.859 105 202.052C105 201.036 105.065 200.035 105.192 199.052Z" fill="white"/>
</mask>
<g mask="url(#mask4_3538_7910)">
<path d="M264 170H0V280H264V170Z" fill="#3C4F5C"/>
</g>
<path fill-rule="evenodd" clip-rule="evenodd" d="M156 192.28C162.182 196.835 166 203.106 166 210.028C166 217.234 161.863 223.733 155.229 228.327L149.579 223.877L145 224.208L146 221.057L145.922 220.996C152.022 217.853 156 212.7 156 206.877V192.28ZM108 191.572C101.233 196.174 97 202.74 97 210.028C97 217.426 101.362 224.08 108.308 228.692L114.421 223.877L119 224.208L118 221.057L118.078 220.996C111.978 217.853 108 212.7 108 206.877V191.572Z" fill="#F2F2F2"/>
<path fill-rule="evenodd" clip-rule="evenodd" d="M118 149C118 156.732 124.268 163 132 163C139.732 163 146 156.732 146 149" fill="black" fill-opacity="0.7"/>
<path fill-rule="evenodd" clip-rule="evenodd" d="M120 130C120 134.418 125.373 138 132 138C138.627 138 144 134.418 144 130" fill="black" fill-opacity="0.16"/>
<path d="M106 118C109.314 118 112 115.314 112 112C112 108.686 109.314 106 106 106C102.686 106 100 108.686 100 112C100 115.314 102.686 118 106 118Z" fill="black" fill-opacity="0.6"/>
<path d="M158 118C161.314 118 164 115.314 164 112C164 108.686 161.314 106 158 106C154.686 106 152 108.686 152 112C152 115.314 154.686 118 158 118Z" fill="black" fill-opacity="0.6"/>
<path fill-rule="evenodd" clip-rule="evenodd" d="M102.545 88.1484C96.7385 88.4167 87.3504 92.6363 87.5922 98.4922C87.6002 98.6839 87.8818 98.768 88.0193 98.6206C90.7742 95.6613 110.335 92.6709 117.224 94.2556C117.855 94.4008 118.334 93.7788 117.934 93.3295C114.512 89.4812 107.748 87.903 102.545 88.1484Z" fill="black" fill-opacity="0.6"/>
<path fill-rule="evenodd" clip-rule="evenodd" d="M162.453 88.1484C168.26 88.4167 177.648 92.6363 177.406 98.4922C177.398 98.6839 177.116 98.768 176.979 98.6206C174.224 95.6613 154.663 92.6709 147.774 94.2556C147.143 94.4008 146.664 93.7788 147.064 93.3295C150.486 89.4812 157.25 87.903 162.453 88.1484Z" fill="black" fill-opacity="0.6"/>
<mask id="mask5_3538_7910" style="mask-type:luminance" maskUnits="userSpaceOnUse" x="0" y="0" width="264" height="280">
<path d="M264 0H0V280H264V0Z" fill="white"/>
</mask>
<g mask="url(#mask5_3538_7910)">
<mask id="mask6_3538_7910" style="mask-type:luminance" maskUnits="userSpaceOnUse" x="0" y="0" width="264" height="280">
<path fill-rule="evenodd" clip-rule="evenodd" d="M156 180.611C173.531 172.283 186.048 155.115 187.791 134.867C193.569 134.002 198 129.019 198 123V110C198 104.054 193.675 99.1181 188 98.1659V92C188 84.0547 186.345 76.4958 183.362 69.6492C173.435 53 89.3126 53.8034 80.7099 69.4855C77.6812 76.3752 76 83.9913 76 92V98.1659C70.3246 99.1181 66 104.054 66 110V123C66 129.019 70.4309 134.002 76.2086 134.867C77.9518 155.115 90.4692 172.283 108 180.611V199H104C64.2355 199 32 231.236 32 271V280H232V271C232 231.236 199.764 199 160 199H156V180.611ZM0 0H264V280H0V0Z" fill="white"/>
</mask>
<g mask="url(#mask6_3538_7910)">
<path fill-rule="evenodd" clip-rule="evenodd" d="M123.182 2H141.818C160.609 2 176.867 15.0804 180.89 33.4362L190 75H75L84.1099 33.4362C88.133 15.0804 104.391 2 123.182 2Z" fill="#1F333C"/>
</g>
<mask id="mask7_3538_7910" style="mask-type:luminance" maskUnits="userSpaceOnUse" x="0" y="0" width="264" height="280">
<path fill-rule="evenodd" clip-rule="evenodd" d="M156 180.611C173.531 172.283 186.048 155.115 187.791 134.867C193.569 134.002 198 129.019 198 123V110C198 104.054 193.675 99.1181 188 98.1659V92C188 84.0547 186.345 76.4958 183.362 69.6492C173.435 53 89.3126 53.8034 80.7099 69.4855C77.6812 76.3752 76 83.9913 76 92V98.1659C70.3246 99.1181 66 104.054 66 110V123C66 129.019 70.4309 134.002 76.2086 134.867C77.9518 155.115 90.4692 172.283 108 180.611V199H104C64.2355 199 32 231.236 32 271V280H232V271C232 231.236 199.764 199 160 199H156V180.611ZM0 0H264V280H0V0Z" fill="white"/>
</mask>
<g mask="url(#mask7_3538_7910)">
<path d="M132 145C199.379 145 254 119.256 254 87.5C254 55.7436 199.379 30 132 30C64.6213 30 10 55.7436 10 87.5C10 119.256 64.6213 145 132 145Z" fill="#1F333C"/>
</g>
<mask id="mask8_3538_7910" style="mask-type:luminance" maskUnits="userSpaceOnUse" x="0" y="0" width="264" height="280">
<path fill-rule="evenodd" clip-rule="evenodd" d="M156 180.611C173.531 172.283 186.048 155.115 187.791 134.867C193.569 134.002 198 129.019 198 123V110C198 104.054 193.675 99.1181 188 98.1659V92C188 84.0547 186.345 76.4958 183.362 69.6492C173.435 53 89.3126 53.8034 80.7099 69.4855C77.6812 76.3752 76 83.9913 76 92V98.1659C70.3246 99.1181 66 104.054 66 110V123C66 129.019 70.4309 134.002 76.2086 134.867C77.9518 155.115 90.4692 172.283 108 180.611V199H104C64.2355 199 32 231.236 32 271V280H232V271C232 231.236 199.764 199 160 199H156V180.611ZM0 0H264V280H0V0Z" fill="white"/>
</mask>
<g mask="url(#mask8_3538_7910)">
<path d="M132 107C166.242 107 194 95.8071 194 82C194 68.1929 166.242 57 132 57C97.7583 57 70 68.1929 70 82C70 95.8071 97.7583 107 132 107Z" fill="#15232A"/>
</g>
<path fill-rule="evenodd" clip-rule="evenodd" d="M113.18 149.737C115.363 148.105 128.407 147.479 130.758 146.089C131.492 145.655 132.061 145.216 132.5 144.78C132.939 145.216 133.509 145.655 134.242 146.089C136.593 147.479 149.637 148.105 151.82 149.737C154.03 151.391 155.644 155.185 155.467 158.151C155.255 161.71 151.361 170.203 141.672 171.181C139.558 168.828 136.237 167.31 132.5 167.31C128.763 167.31 125.442 168.828 123.328 171.181C113.639 170.203 109.745 161.71 109.533 158.151C109.357 155.185 110.97 151.391 113.18 149.737ZM151.142 166.906C151.143 166.906 151.145 166.905 151.146 166.905C151.144 166.905 151.143 166.906 151.142 166.906ZM113.845 166.901C113.849 166.903 113.857 166.906 113.862 166.908C113.857 166.906 113.851 166.903 113.845 166.901ZM192.863 127.985C192.474 122.03 191.278 116.152 190.234 110.286C189.953 108.707 188.424 98 187.735 98C187.502 107.109 186.702 116.08 185.67 125.139C185.361 127.848 185.038 130.556 184.825 133.274C184.654 135.47 184.96 138.122 184.428 140.246C183.749 142.952 180.348 145.478 177.703 146.411C171.103 148.737 165.598 139.108 159.961 136.291C152.643 132.635 140.064 131.764 132.582 136.53C124.936 131.764 112.357 132.635 105.039 136.291C99.4024 139.108 93.897 148.737 87.2972 146.411C84.6521 145.478 81.2504 142.952 80.5724 140.246C80.0403 138.122 80.3463 135.47 80.175 133.274C79.9624 130.556 79.6389 127.848 79.3302 125.139C78.2983 116.08 77.4975 107.109 77.2654 98C76.5762 98 75.0468 108.707 74.7659 110.286C73.7221 116.152 72.5258 122.03 72.1376 127.985C71.7385 134.105 72.2149 140.167 73.4696 146.163C74.0687 149.028 74.7685 151.876 75.5189 154.704C76.3527 157.847 75.199 163.966 75.5723 167.192C76.2788 173.296 79.1543 185.2 82.3833 190.451C83.9441 192.989 85.7735 194.574 87.8165 196.619C89.7826 198.588 90.6039 201.64 92.7261 203.737C96.682 207.645 102.446 209.971 108.366 210.543C113.677 215.05 122.506 218 132.5 218C142.495 218 151.323 215.05 156.635 210.543C162.554 209.971 168.318 207.645 172.274 203.737C174.396 201.64 175.217 198.588 177.184 196.619C179.226 194.574 181.056 192.989 182.617 190.451C185.846 185.2 188.721 173.296 189.428 167.192C189.801 163.966 188.647 157.847 189.481 154.704C190.232 151.876 190.931 149.028 191.531 146.163C192.785 140.167 193.261 134.105 192.863 127.985Z" fill="#5E7AA9"/>
<mask id="mask9_3538_7910" style="mask-type:luminance" maskUnits="userSpaceOnUse" x="72" y="98" width="121" height="120">
<path fill-rule="evenodd" clip-rule="evenodd" d="M113.18 149.737C115.363 148.105 128.407 147.479 130.758 146.089C131.492 145.655 132.061 145.216 132.5 144.78C132.939 145.216 133.509 145.655 134.242 146.089C136.593 147.479 149.637 148.105 151.82 149.737C154.03 151.391 155.644 155.185 155.467 158.151C155.255 161.71 151.361 170.203 141.672 171.181C139.558 168.828 136.237 167.31 132.5 167.31C128.763 167.31 125.442 168.828 123.328 171.181C113.639 170.203 109.745 161.71 109.533 158.151C109.357 155.185 110.97 151.391 113.18 149.737ZM151.142 166.906C151.143 166.906 151.145 166.905 151.146 166.905C151.144 166.905 151.143 166.906 151.142 166.906ZM113.845 166.901C113.849 166.903 113.857 166.906 113.862 166.908C113.857 166.906 113.851 166.903 113.845 166.901ZM192.863 127.985C192.474 122.03 191.278 116.152 190.234 110.286C189.953 108.707 188.424 98 187.735 98C187.502 107.109 186.702 116.08 185.67 125.139C185.361 127.848 185.038 130.556 184.825 133.274C184.654 135.47 184.96 138.122 184.428 140.246C183.749 142.952 180.348 145.478 177.703 146.411C171.103 148.737 165.598 139.108 159.961 136.291C152.643 132.635 140.064 131.764 132.582 136.53C124.936 131.764 112.357 132.635 105.039 136.291C99.4024 139.108 93.897 148.737 87.2972 146.411C84.6521 145.478 81.2504 142.952 80.5724 140.246C80.0403 138.122 80.3463 135.47 80.175 133.274C79.9624 130.556 79.6389 127.848 79.3302 125.139C78.2983 116.08 77.4975 107.109 77.2654 98C76.5762 98 75.0468 108.707 74.7659 110.286C73.7221 116.152 72.5258 122.03 72.1376 127.985C71.7385 134.105 72.2149 140.167 73.4696 146.163C74.0687 149.028 74.7685 151.876 75.5189 154.704C76.3527 157.847 75.199 163.966 75.5723 167.192C76.2788 173.296 79.1543 185.2 82.3833 190.451C83.9441 192.989 85.7735 194.574 87.8165 196.619C89.7826 198.588 90.6039 201.64 92.7261 203.737C96.682 207.645 102.446 209.971 108.366 210.543C113.677 215.05 122.506 218 132.5 218C142.495 218 151.323 215.05 156.635 210.543C162.554 209.971 168.318 207.645 172.274 203.737C174.396 201.64 175.217 198.588 177.184 196.619C179.226 194.574 181.056 192.989 182.617 190.451C185.846 185.2 188.721 173.296 189.428 167.192C189.801 163.966 188.647 157.847 189.481 154.704C190.232 151.876 190.931 149.028 191.531 146.163C192.785 140.167 193.261 134.105 192.863 127.985Z" fill="white"/>
</mask>
<g mask="url(#mask9_3538_7910)">
<path d="M280 72H16V316H280V72Z" fill="#4A312C"/>
</g>
<g filter="url(#filter0_d_3538_7910)">
<path fill-rule="evenodd" clip-rule="evenodd" d="M115.249 100.275C117.621 100.297 118.742 100.692 119.146 103.165C119.555 105.67 119.157 108.487 118.685 110.955C117.965 114.723 116.767 118.414 113.978 121.168C112.509 122.619 110.717 123.775 108.811 124.564C107.799 124.983 106.73 125.286 105.661 125.516C105.349 125.583 102.682 125.95 104.318 125.763C100.501 126.199 96.3602 126.182 93.1724 123.752C89.6397 121.06 87.2204 116.8 86.1566 112.556C85.5342 110.073 84.2263 104.134 86.616 102.149C89.3533 99.8745 115.249 100.275 115.249 100.275ZM91.2179 93.4905C85.7775 93.6778 82.1467 94.6338 79.4634 100.069C74.5458 110.03 82.9628 124.969 92.3523 129.039C103.329 133.799 115.592 128.532 121.396 119.006C124.469 113.962 126.023 106.323 125.923 100.504C125.795 93.0765 120.607 92.8705 114.509 93.0338L91.2179 93.4905Z" fill="#D6EAF2"/>
<path fill-rule="evenodd" clip-rule="evenodd" d="M148.68 100.273C146.309 100.295 145.187 100.689 144.783 103.163C144.374 105.668 144.772 108.485 145.244 110.952C145.964 114.72 147.163 118.412 149.952 121.166C151.421 122.616 153.213 123.772 155.119 124.562C156.131 124.981 157.2 125.284 158.268 125.513C158.58 125.58 161.247 125.948 159.611 125.761C163.428 126.197 167.569 126.179 170.757 123.75C174.29 121.058 176.709 116.798 177.773 112.554C178.395 110.071 179.703 104.132 177.313 102.147C174.576 99.8719 148.68 100.273 148.68 100.273ZM172.711 93.4879C178.152 93.6753 181.783 94.6316 184.466 100.067C189.383 110.028 180.967 124.966 171.577 129.037C160.6 133.797 148.337 128.529 142.533 119.004C139.46 113.96 137.907 106.321 138.006 100.501C138.134 93.0739 143.322 92.8679 149.42 93.0316L172.711 93.4879Z" fill="#D6EAF2"/>
<path fill-rule="evenodd" clip-rule="evenodd" d="M82.197 97.9267C78.785 98.1184 74.8861 98.1644 71.6901 99.6394C68.3054 101.201 67.7824 104.739 72.0492 105.226C73.971 105.446 75.8949 105.083 77.7872 104.745C79.3369 104.468 81.442 104.558 82.9065 103.966C85.6355 102.862 85.4604 97.7401 82.197 97.9267Z" fill="#D6EAF2"/>
<path fill-rule="evenodd" clip-rule="evenodd" d="M181.735 97.9267C185.147 98.1184 189.046 98.1644 192.242 99.6394C195.627 101.201 196.15 104.739 191.883 105.226C189.961 105.446 188.037 105.083 186.145 104.745C184.595 104.468 182.49 104.558 181.026 103.966C178.297 102.862 178.472 97.7401 181.735 97.9267Z" fill="#D6EAF2"/>
<path fill-rule="evenodd" clip-rule="evenodd" d="M142.11 100.013C140.163 97.7126 135.091 96.3846 131.892 96.3846C128.692 96.3846 123.768 97.7126 121.822 100.013C120.841 101.172 120.808 102.724 122.509 103.451C124.626 104.357 126.518 102.714 128.213 101.855C130.381 100.757 133.712 100.877 135.719 101.855C137.427 102.688 139.305 104.357 141.424 103.451C143.124 102.724 143.091 101.172 142.11 100.013Z" fill="#D6EAF2"/>
</g>
</g>
</g>
</g>
<defs>
<filter id="filter0_d_3538_7910" x="69" y="93.0001" width="125.932" height="39.8202" filterUnits="userSpaceOnUse" color-interpolation-filters="sRGB">
<feFlood flood-opacity="0" result="BackgroundImageFix"/>
<feColorMatrix in="SourceAlpha" type="matrix" values="0 0 0 0 0 0 0 0 0 0 0 0 0 0 0 0 0 0 127 0" result="hardAlpha"/>
<feOffset dy="2"/>
<feColorMatrix type="matrix" values="0 0 0 0 0 0 0 0 0 0 0 0 0 0 0 0 0 0 0.2 0"/>
<feBlend mode="normal" in2="BackgroundImageFix" result="effect1_dropShadow_3538_7910"/>
<feBlend mode="normal" in="SourceGraphic" in2="effect1_dropShadow_3538_7910" result="shape"/>
</filter>
<clipPath id="clip0_3538_7910">
<rect width="264" height="280" fill="white"/>
</clipPath>
</defs>
</svg>
