<svg width="264" height="280" viewBox="0 0 264 280" fill="none" xmlns="http://www.w3.org/2000/svg">
<g clip-path="url(#clip0_3538_8225)">
<path d="M132 280C198.274 280 252 226.274 252 160C252 93.7258 198.274 40 132 40C65.7258 40 12 93.7258 12 160C12 226.274 65.7258 280 132 280Z" fill="#E6E6E6"/>
<mask id="mask0_3538_8225" style="mask-type:luminance" maskUnits="userSpaceOnUse" x="12" y="40" width="240" height="240">
<path d="M132 280C198.274 280 252 226.274 252 160C252 93.7258 198.274 40 132 40C65.7258 40 12 93.7258 12 160C12 226.274 65.7258 280 132 280Z" fill="white"/>
</mask>
<g mask="url(#mask0_3538_8225)">
<path d="M252 40H12V280H252V40Z" fill="#65C9FF"/>
</g>
<mask id="mask1_3538_8225" style="mask-type:luminance" maskUnits="userSpaceOnUse" x="0" y="0" width="264" height="280">
<path d="M12 160C12 226.274 65.7258 280 132 280C198.274 280 252 226.274 252 160H264V0H0V160H12Z" fill="white"/>
</mask>
<g mask="url(#mask1_3538_8225)">
<path d="M156 180.611V199H160C199.764 199 232 231.236 232 271V280H32V271C32 231.236 64.2355 199 104 199H108V180.611C90.7626 172.422 78.3722 155.687 76.3051 135.881C70.4803 135.058 66 130.052 66 124V110C66 104.054 70.3246 99.1181 76 98.1659V92C76 61.0721 101.072 36 132 36C162.928 36 188 61.0721 188 92V98.1659C193.675 99.1181 198 104.054 198 110V124C198 130.052 193.52 135.058 187.695 135.881C185.628 155.687 173.237 172.422 156 180.611Z" fill="#D0C6AC"/>
<mask id="mask2_3538_8225" style="mask-type:luminance" maskUnits="userSpaceOnUse" x="32" y="36" width="200" height="244">
<path d="M156 180.611V199H160C199.764 199 232 231.236 232 271V280H32V271C32 231.236 64.2355 199 104 199H108V180.611C90.7626 172.422 78.3722 155.687 76.3051 135.881C70.4803 135.058 66 130.052 66 124V110C66 104.054 70.3246 99.1181 76 98.1659V92C76 61.0721 101.072 36 132 36C162.928 36 188 61.0721 188 92V98.1659C193.675 99.1181 198 104.054 198 110V124C198 130.052 193.52 135.058 187.695 135.881C185.628 155.687 173.237 172.422 156 180.611Z" fill="white"/>
</mask>
<g mask="url(#mask2_3538_8225)">
<path d="M296 36H32V316H296V36Z" fill="#D08B5B"/>
</g>
<mask id="mask3_3538_8225" style="mask-type:luminance" maskUnits="userSpaceOnUse" x="32" y="36" width="200" height="244">
<path d="M156 180.611V199H160C199.764 199 232 231.236 232 271V280H32V271C32 231.236 64.2355 199 104 199H108V180.611C90.7626 172.422 78.3722 155.687 76.3051 135.881C70.4803 135.058 66 130.052 66 124V110C66 104.054 70.3246 99.1181 76 98.1659V92C76 61.0721 101.072 36 132 36C162.928 36 188 61.0721 188 92V98.1659C193.675 99.1181 198 104.054 198 110V124C198 130.052 193.52 135.058 187.695 135.881C185.628 155.687 173.237 172.422 156 180.611Z" fill="white"/>
</mask>
<g mask="url(#mask3_3538_8225)">
<path fill-rule="evenodd" clip-rule="evenodd" d="M188 115V138C188 168.928 162.928 194 132 194C101.072 194 76 168.928 76 138V115V130C76 160.928 101.072 186 132 186C162.928 186 188 160.928 188 130V115Z" fill="black" fill-opacity="0.1"/>
</g>
<path fill-rule="evenodd" clip-rule="evenodd" d="M105.192 199.052H104C64.2355 199.052 32 231.287 32 271.052V280H232V271.052C232 231.287 199.764 199.052 160 199.052H158.808C158.935 200.035 159 201.036 159 202.052C159 215.859 146.912 227.052 132 227.052C117.088 227.052 105 215.859 105 202.052C105 201.036 105.065 200.035 105.192 199.052Z" fill="#E6E6E6"/>
<mask id="mask4_3538_8225" style="mask-type:luminance" maskUnits="userSpaceOnUse" x="32" y="199" width="200" height="81">
<path fill-rule="evenodd" clip-rule="evenodd" d="M105.192 199.052H104C64.2355 199.052 32 231.287 32 271.052V280H232V271.052C232 231.287 199.764 199.052 160 199.052H158.808C158.935 200.035 159 201.036 159 202.052C159 215.859 146.912 227.052 132 227.052C117.088 227.052 105 215.859 105 202.052C105 201.036 105.065 200.035 105.192 199.052Z" fill="white"/>
</mask>
<g mask="url(#mask4_3538_8225)">
<path d="M264 170H0V280H264V170Z" fill="#3C4F5C"/>
</g>
<path fill-rule="evenodd" clip-rule="evenodd" d="M156 192.28C162.182 196.835 166 203.106 166 210.028C166 217.234 161.863 223.733 155.229 228.327L149.579 223.877L145 224.208L146 221.057L145.922 220.996C152.022 217.853 156 212.7 156 206.877V192.28ZM108 191.572C101.233 196.174 97 202.74 97 210.028C97 217.426 101.362 224.08 108.308 228.692L114.421 223.877L119 224.208L118 221.057L118.078 220.996C111.978 217.853 108 212.7 108 206.877V191.572Z" fill="#F2F2F2"/>
<path fill-rule="evenodd" clip-rule="evenodd" d="M118 149C118 156.732 124.268 163 132 163C139.732 163 146 156.732 146 149" fill="black" fill-opacity="0.7"/>
<path fill-rule="evenodd" clip-rule="evenodd" d="M120 130C120 134.418 125.373 138 132 138C138.627 138 144 134.418 144 130" fill="black" fill-opacity="0.16"/>
<path d="M106 118C109.314 118 112 115.314 112 112C112 108.686 109.314 106 106 106C102.686 106 100 108.686 100 112C100 115.314 102.686 118 106 118Z" fill="black" fill-opacity="0.6"/>
<path d="M158 118C161.314 118 164 115.314 164 112C164 108.686 161.314 106 158 106C154.686 106 152 108.686 152 112C152 115.314 154.686 118 158 118Z" fill="black" fill-opacity="0.6"/>
<path fill-rule="evenodd" clip-rule="evenodd" d="M102.545 88.1484C96.7385 88.4167 87.3504 92.6363 87.5922 98.4922C87.6002 98.6839 87.8818 98.768 88.0193 98.6206C90.7742 95.6613 110.335 92.6709 117.224 94.2556C117.855 94.4008 118.334 93.7788 117.934 93.3295C114.512 89.4812 107.748 87.903 102.545 88.1484Z" fill="black" fill-opacity="0.6"/>
<path fill-rule="evenodd" clip-rule="evenodd" d="M162.453 88.1484C168.26 88.4167 177.648 92.6363 177.406 98.4922C177.398 98.6839 177.116 98.768 176.979 98.6206C174.224 95.6613 154.663 92.6709 147.774 94.2556C147.143 94.4008 146.664 93.7788 147.064 93.3295C150.486 89.4812 157.25 87.903 162.453 88.1484Z" fill="black" fill-opacity="0.6"/>
<mask id="mask5_3538_8225" style="mask-type:luminance" maskUnits="userSpaceOnUse" x="0" y="0" width="264" height="280">
<path d="M264 0H0V280H264V0Z" fill="white"/>
</mask>
<g mask="url(#mask5_3538_8225)">
<path fill-rule="evenodd" clip-rule="evenodd" d="M185.832 73.9287C187.589 74.9174 188.98 84.8279 189.048 88.6177C189.09 90.9562 189.127 99.874 186.654 99.1031C185.901 98.8684 184.752 94.1472 184.588 91.3841C184.425 88.6209 182.855 79.22 180.447 74.8947C179.896 73.9063 178.321 72.1709 179.002 71.3348C179.846 70.2981 180.666 70.8996 181.697 71.3147C182.812 71.7641 185.634 73.818 185.832 73.9287ZM186.637 70.9566C185.891 71.9188 180.796 69.2177 178.671 68.044C160.826 58.1841 157.362 55.0487 129.246 55.4578C101.13 55.867 81.8675 69.04 80.784 70.3874C80.0302 71.3249 79.0678 73.8279 78.2764 80.8005C77.485 87.7732 78.4952 100.278 75.6305 100.263C73.1915 100.25 72.6609 76.477 73.7137 67.0464C73.8754 65.5985 74.4984 63.0084 74.0474 61.7059C73.6533 60.5682 71.7254 60.5706 72.0331 58.6751C72.3829 56.5173 74.5585 57.5891 75.506 56.5574C77.3006 54.603 74.5322 54.1404 74.073 52.4307C73.3906 49.8892 75.3628 49.2337 77.1397 48.4311C79.106 47.5438 78.8505 48.3231 80.4464 46.5849C78.3148 45.0225 77.5436 42.8939 80.4624 41.752C81.702 41.2669 84.9269 41.9089 85.8981 41.1802C86.1513 40.9901 86.2515 39.9008 86.4075 39.678C87.9584 37.4594 87.5757 35.8532 87.4184 33.3624C87.289 31.3242 87.3064 29.4532 89.7467 29.2496C91.3751 29.1139 92.6993 30.4442 94.1582 30.8359C95.7768 31.2706 95.1688 31.5878 96.4369 30.715C98.6631 29.1817 97.148 26.1943 98.9133 24.412C101.336 21.9662 102.924 25.5513 104.869 25.8218C109.091 26.4102 107.736 22.1219 110.236 20.5505C113.224 18.6739 113.513 22.8013 115.379 22.9483C116.996 23.0751 119.908 19.9545 121.317 19.3731C125.5 17.6472 127.572 22.5039 131.554 21.8845C134.443 21.4348 135.223 21.0677 137.831 22.7115C140.362 24.3071 140.963 23.1665 143.829 23.1436C145.854 23.1284 147.094 24.8203 148.788 24.9967C149.632 25.0851 150.441 24.2051 151.348 24.2604C154.585 24.4567 154.79 28.643 157.362 29.7956C159.712 30.8488 162.474 29.3691 164.807 29.0953C170.497 28.4275 166.6 33.7425 166.761 36.9147C168.994 37.4359 171.262 35.351 173.485 35.7347C176.987 36.3393 175.665 39.968 174.853 42.4145C177.28 42.3708 183.613 39.6777 185.185 43.122C185.995 44.898 184.107 47.2689 184.138 49.0744C184.181 51.6159 186.049 53.7186 186.709 56.124C187.601 59.371 188.872 68.074 186.637 70.9566Z" fill="#2E3257"/>
<mask id="mask6_3538_8225" style="mask-type:luminance" maskUnits="userSpaceOnUse" x="72" y="19" width="118" height="82">
<path fill-rule="evenodd" clip-rule="evenodd" d="M185.832 73.9287C187.589 74.9174 188.98 84.8279 189.048 88.6177C189.09 90.9562 189.127 99.874 186.654 99.1031C185.901 98.8684 184.752 94.1472 184.588 91.3841C184.425 88.6209 182.855 79.22 180.447 74.8947C179.896 73.9063 178.321 72.1709 179.002 71.3348C179.846 70.2981 180.666 70.8996 181.697 71.3147C182.812 71.7641 185.634 73.818 185.832 73.9287ZM186.637 70.9566C185.891 71.9188 180.796 69.2177 178.671 68.044C160.826 58.1841 157.362 55.0487 129.246 55.4578C101.13 55.867 81.8675 69.04 80.784 70.3874C80.0302 71.3249 79.0678 73.8279 78.2764 80.8005C77.485 87.7732 78.4952 100.278 75.6305 100.263C73.1915 100.25 72.6609 76.477 73.7137 67.0464C73.8754 65.5985 74.4984 63.0084 74.0474 61.7059C73.6533 60.5682 71.7254 60.5706 72.0331 58.6751C72.3829 56.5173 74.5585 57.5891 75.506 56.5574C77.3006 54.603 74.5322 54.1404 74.073 52.4307C73.3906 49.8892 75.3628 49.2337 77.1397 48.4311C79.106 47.5438 78.8505 48.3231 80.4464 46.5849C78.3148 45.0225 77.5436 42.8939 80.4624 41.752C81.702 41.2669 84.9269 41.9089 85.8981 41.1802C86.1513 40.9901 86.2515 39.9008 86.4075 39.678C87.9584 37.4594 87.5757 35.8532 87.4184 33.3624C87.289 31.3242 87.3064 29.4532 89.7467 29.2496C91.3751 29.1139 92.6993 30.4442 94.1582 30.8359C95.7768 31.2706 95.1688 31.5878 96.4369 30.715C98.6631 29.1817 97.148 26.1943 98.9133 24.412C101.336 21.9662 102.924 25.5513 104.869 25.8218C109.091 26.4102 107.736 22.1219 110.236 20.5505C113.224 18.6739 113.513 22.8013 115.379 22.9483C116.996 23.0751 119.908 19.9545 121.317 19.3731C125.5 17.6472 127.572 22.5039 131.554 21.8845C134.443 21.4348 135.223 21.0677 137.831 22.7115C140.362 24.3071 140.963 23.1665 143.829 23.1436C145.854 23.1284 147.094 24.8203 148.788 24.9967C149.632 25.0851 150.441 24.2051 151.348 24.2604C154.585 24.4567 154.79 28.643 157.362 29.7956C159.712 30.8488 162.474 29.3691 164.807 29.0953C170.497 28.4275 166.6 33.7425 166.761 36.9147C168.994 37.4359 171.262 35.351 173.485 35.7347C176.987 36.3393 175.665 39.968 174.853 42.4145C177.28 42.3708 183.613 39.6777 185.185 43.122C185.995 44.898 184.107 47.2689 184.138 49.0744C184.181 51.6159 186.049 53.7186 186.709 56.124C187.601 59.371 188.872 68.074 186.637 70.9566Z" fill="white"/>
</mask>
<g mask="url(#mask6_3538_8225)">
<path d="M264 0H0V280H264V0Z" fill="#4A312C"/>
</g>
<g filter="url(#filter0_d_3538_8225)">
<path fill-rule="evenodd" clip-rule="evenodd" d="M141.465 101.394C145.38 93.4587 153.553 88 163 88C171.92 88 179.703 92.8659 183.84 100.088C184.05 100.031 184.272 100 184.5 100H192.5C193.881 100 195 101.119 195 102.5C195 103.881 193.881 105 192.5 105H185.963C186.637 107.215 187 109.565 187 112C187 125.255 176.255 136 163 136C149.745 136 139 125.255 139 112C139 110.578 139.124 109.185 139.361 107.831C139.276 103.455 135.914 100 131.862 100C128.126 100 124.975 102.94 124.442 106.83C124.807 108.495 125 110.225 125 112C125 125.255 114.255 136 101 136C87.7452 136 77 125.255 77 112C77 109.565 77.3626 107.215 78.0369 105H71.5C70.1193 105 69 103.881 69 102.5C69 101.119 70.1193 100 71.5 100H79.5C79.7285 100 79.9498 100.031 80.1601 100.088C84.2971 92.8659 92.0803 88 101 88C110.352 88 118.455 93.3492 122.416 101.155C124.493 98.0393 127.949 96 131.862 96C135.875 96 139.407 98.1441 141.465 101.394ZM101 132C112.046 132 121 123.046 121 112C121 100.954 112.046 92 101 92C89.9543 92 81 100.954 81 112C81 123.046 89.9543 132 101 132ZM163 132C174.046 132 183 123.046 183 112C183 100.954 174.046 92 163 92C151.954 92 143 100.954 143 112C143 123.046 151.954 132 163 132Z" fill="black"/>
</g>
<path fill-rule="evenodd" clip-rule="evenodd" d="M141.465 101.394C145.38 93.4587 153.553 88 163 88C171.92 88 179.703 92.8659 183.84 100.088C184.05 100.031 184.272 100 184.5 100H192.5C193.881 100 195 101.119 195 102.5C195 103.881 193.881 105 192.5 105H185.963C186.637 107.215 187 109.565 187 112C187 125.255 176.255 136 163 136C149.745 136 139 125.255 139 112C139 110.578 139.124 109.185 139.361 107.831C139.276 103.455 135.914 100 131.862 100C128.126 100 124.975 102.94 124.442 106.83C124.807 108.495 125 110.225 125 112C125 125.255 114.255 136 101 136C87.7452 136 77 125.255 77 112C77 109.565 77.3626 107.215 78.0369 105H71.5C70.1193 105 69 103.881 69 102.5C69 101.119 70.1193 100 71.5 100H79.5C79.7285 100 79.9498 100.031 80.1601 100.088C84.2971 92.8659 92.0803 88 101 88C110.352 88 118.455 93.3492 122.416 101.155C124.493 98.0393 127.949 96 131.862 96C135.875 96 139.407 98.1441 141.465 101.394ZM101 132C112.046 132 121 123.046 121 112C121 100.954 112.046 92 101 92C89.9543 92 81 100.954 81 112C81 123.046 89.9543 132 101 132ZM163 132C174.046 132 183 123.046 183 112C183 100.954 174.046 92 163 92C151.954 92 143 100.954 143 112C143 123.046 151.954 132 163 132Z" fill="#252C2F"/>
</g>
</g>
</g>
<defs>
<filter id="filter0_d_3538_8225" x="69" y="88" width="126" height="50" filterUnits="userSpaceOnUse" color-interpolation-filters="sRGB">
<feFlood flood-opacity="0" result="BackgroundImageFix"/>
<feColorMatrix in="SourceAlpha" type="matrix" values="0 0 0 0 0 0 0 0 0 0 0 0 0 0 0 0 0 0 127 0" result="hardAlpha"/>
<feOffset dy="2"/>
<feColorMatrix type="matrix" values="0 0 0 0 0 0 0 0 0 0 0 0 0 0 0 0 0 0 0.1 0"/>
<feBlend mode="normal" in2="BackgroundImageFix" result="effect1_dropShadow_3538_8225"/>
<feBlend mode="normal" in="SourceGraphic" in2="effect1_dropShadow_3538_8225" result="shape"/>
</filter>
<clipPath id="clip0_3538_8225">
<rect width="264" height="280" fill="white"/>
</clipPath>
</defs>
</svg>
