<svg width="264" height="280" viewBox="0 0 264 280" fill="none" xmlns="http://www.w3.org/2000/svg">
<g clip-path="url(#clip0_3538_8000)">
<path d="M132 280C198.274 280 252 226.274 252 160C252 93.7258 198.274 40 132 40C65.7258 40 12 93.7258 12 160C12 226.274 65.7258 280 132 280Z" fill="#E6E6E6"/>
<mask id="mask0_3538_8000" style="mask-type:luminance" maskUnits="userSpaceOnUse" x="12" y="40" width="240" height="240">
<path d="M132 280C198.274 280 252 226.274 252 160C252 93.7258 198.274 40 132 40C65.7258 40 12 93.7258 12 160C12 226.274 65.7258 280 132 280Z" fill="white"/>
</mask>
<g mask="url(#mask0_3538_8000)">
<path d="M252 40H12V280H252V40Z" fill="#65C9FF"/>
</g>
<mask id="mask1_3538_8000" style="mask-type:luminance" maskUnits="userSpaceOnUse" x="0" y="0" width="264" height="280">
<path d="M12 160C12 226.274 65.7258 280 132 280C198.274 280 252 226.274 252 160H264V0H0V160H12Z" fill="white"/>
</mask>
<g mask="url(#mask1_3538_8000)">
<path d="M156 180.611V199H160C199.764 199 232 231.236 232 271V280H32V271C32 231.236 64.2355 199 104 199H108V180.611C90.7626 172.422 78.3722 155.687 76.3051 135.881C70.4803 135.058 66 130.052 66 124V110C66 104.054 70.3246 99.1181 76 98.1659V92C76 61.0721 101.072 36 132 36C162.928 36 188 61.0721 188 92V98.1659C193.675 99.1181 198 104.054 198 110V124C198 130.052 193.52 135.058 187.695 135.881C185.628 155.687 173.237 172.422 156 180.611Z" fill="#D0C6AC"/>
<mask id="mask2_3538_8000" style="mask-type:luminance" maskUnits="userSpaceOnUse" x="32" y="36" width="200" height="244">
<path d="M156 180.611V199H160C199.764 199 232 231.236 232 271V280H32V271C32 231.236 64.2355 199 104 199H108V180.611C90.7626 172.422 78.3722 155.687 76.3051 135.881C70.4803 135.058 66 130.052 66 124V110C66 104.054 70.3246 99.1181 76 98.1659V92C76 61.0721 101.072 36 132 36C162.928 36 188 61.0721 188 92V98.1659C193.675 99.1181 198 104.054 198 110V124C198 130.052 193.52 135.058 187.695 135.881C185.628 155.687 173.237 172.422 156 180.611Z" fill="white"/>
</mask>
<g mask="url(#mask2_3538_8000)">
<path d="M296 36H32V316H296V36Z" fill="#D08B5B"/>
</g>
<mask id="mask3_3538_8000" style="mask-type:luminance" maskUnits="userSpaceOnUse" x="32" y="36" width="200" height="244">
<path d="M156 180.611V199H160C199.764 199 232 231.236 232 271V280H32V271C32 231.236 64.2355 199 104 199H108V180.611C90.7626 172.422 78.3722 155.687 76.3051 135.881C70.4803 135.058 66 130.052 66 124V110C66 104.054 70.3246 99.1181 76 98.1659V92C76 61.0721 101.072 36 132 36C162.928 36 188 61.0721 188 92V98.1659C193.675 99.1181 198 104.054 198 110V124C198 130.052 193.52 135.058 187.695 135.881C185.628 155.687 173.237 172.422 156 180.611Z" fill="white"/>
</mask>
<g mask="url(#mask3_3538_8000)">
<path fill-rule="evenodd" clip-rule="evenodd" d="M188 115V138C188 168.928 162.928 194 132 194C101.072 194 76 168.928 76 138V115V130C76 160.928 101.072 186 132 186C162.928 186 188 160.928 188 130V115Z" fill="black" fill-opacity="0.1"/>
</g>
<path fill-rule="evenodd" clip-rule="evenodd" d="M105.192 199.052H104C64.2355 199.052 32 231.287 32 271.052V280H232V271.052C232 231.287 199.764 199.052 160 199.052H158.808C158.935 200.035 159 201.036 159 202.052C159 215.859 146.912 227.052 132 227.052C117.088 227.052 105 215.859 105 202.052C105 201.036 105.065 200.035 105.192 199.052Z" fill="#E6E6E6"/>
<mask id="mask4_3538_8000" style="mask-type:luminance" maskUnits="userSpaceOnUse" x="32" y="199" width="200" height="81">
<path fill-rule="evenodd" clip-rule="evenodd" d="M105.192 199.052H104C64.2355 199.052 32 231.287 32 271.052V280H232V271.052C232 231.287 199.764 199.052 160 199.052H158.808C158.935 200.035 159 201.036 159 202.052C159 215.859 146.912 227.052 132 227.052C117.088 227.052 105 215.859 105 202.052C105 201.036 105.065 200.035 105.192 199.052Z" fill="white"/>
</mask>
<g mask="url(#mask4_3538_8000)">
<path d="M264 170H0V280H264V170Z" fill="#3C4F5C"/>
</g>
<path fill-rule="evenodd" clip-rule="evenodd" d="M156 192.28C162.182 196.835 166 203.106 166 210.028C166 217.234 161.863 223.733 155.229 228.327L149.579 223.877L145 224.208L146 221.057L145.922 220.996C152.022 217.853 156 212.7 156 206.877V192.28ZM108 191.572C101.233 196.174 97 202.74 97 210.028C97 217.426 101.362 224.08 108.308 228.692L114.421 223.877L119 224.208L118 221.057L118.078 220.996C111.978 217.853 108 212.7 108 206.877V191.572Z" fill="#F2F2F2"/>
<path d="M141 152H123C121.343 152 120 153.343 120 155C120 156.657 121.343 158 123 158H141C142.657 158 144 156.657 144 155C144 153.343 142.657 152 141 152Z" fill="black" fill-opacity="0.7"/>
<path fill-rule="evenodd" clip-rule="evenodd" d="M120 130C120 134.418 125.373 138 132 138C138.627 138 144 134.418 144 130" fill="black" fill-opacity="0.16"/>
<path fill-rule="evenodd" clip-rule="evenodd" d="M92.1602 112.447C94.0067 108.649 98.1644 106 102.998 106C107.814 106 111.959 108.63 113.815 112.407C114.367 113.529 113.582 114.447 112.791 113.767C110.34 111.66 106.859 110.344 102.998 110.344C99.2572 110.344 95.8738 111.579 93.4375 113.572C92.5468 114.3 91.6201 113.558 92.1602 112.447Z" fill="black" fill-opacity="0.6"/>
<path fill-rule="evenodd" clip-rule="evenodd" d="M150.16 112.447C152.007 108.649 156.164 106 160.998 106C165.814 106 169.959 108.63 171.815 112.407C172.367 113.529 171.582 114.447 170.791 113.767C168.34 111.66 164.859 110.344 160.998 110.344C157.257 110.344 153.874 111.579 151.438 113.572C150.547 114.3 149.62 113.558 150.16 112.447Z" fill="black" fill-opacity="0.6"/>
<path fill-rule="evenodd" clip-rule="evenodd" d="M102.545 88.1484C96.7385 88.4167 87.3504 92.6363 87.5922 98.4922C87.6002 98.6839 87.8818 98.768 88.0193 98.6206C90.7742 95.6613 110.335 92.6709 117.224 94.2556C117.855 94.4008 118.334 93.7788 117.934 93.3295C114.512 89.4812 107.748 87.903 102.545 88.1484Z" fill="black" fill-opacity="0.6"/>
<path fill-rule="evenodd" clip-rule="evenodd" d="M162.453 88.1484C168.26 88.4167 177.648 92.6363 177.406 98.4922C177.398 98.6839 177.116 98.768 176.979 98.6206C174.224 95.6613 154.663 92.6709 147.774 94.2556C147.143 94.4008 146.664 93.7788 147.064 93.3295C150.486 89.4812 157.25 87.903 162.453 88.1484Z" fill="black" fill-opacity="0.6"/>
<mask id="mask5_3538_8000" style="mask-type:luminance" maskUnits="userSpaceOnUse" x="0" y="0" width="264" height="280">
<path d="M264 0H0V280H264V0Z" fill="white"/>
</mask>
<g mask="url(#mask5_3538_8000)">
<path fill-rule="evenodd" clip-rule="evenodd" d="M188.503 98.8736C192.899 100.655 196 104.965 196 110V123C196 128.288 192.58 132.776 187.832 134.375C186.986 145.322 182.993 155.386 176.756 163.664C176.965 164.472 177.166 165.29 177.312 166.168C177.863 169.495 177.192 172.261 178.957 175.261C179.414 176.041 180.14 176.508 180.479 177.405C181.012 178.82 180.247 181.999 182.428 182C185.535 182 183.803 176.034 183.025 174.616C181.5 171.844 180.563 171.165 180.642 167.572C182.387 168.732 188.172 170.948 190.09 169.888C194.522 167.44 183.428 164.952 182.652 164.435C184.356 162.769 186.308 161.885 187.849 159.689C189.109 157.896 190.255 155.292 192.398 155.188C193.585 155.13 197.056 158.072 198.108 156.054C199.073 154.203 196.994 153.932 196.181 153.277C194.679 152.067 194.34 153.271 194.707 151.143C195.792 152.308 197.496 151.572 197.951 150.128C198.441 148.569 196.824 148.104 196.854 147.114C196.842 147.501 197.688 141.999 197.554 142.176C198.414 141.041 201.462 141.392 202.967 141.556C205.263 141.804 205.131 141.873 206.222 143.992C207.104 145.707 209.42 149.169 209.929 144.633C210.05 143.548 209.06 141.229 208.479 140.295C207.852 139.288 205.962 138.652 205.567 137.868C204.623 135.998 207.732 131.834 207.206 129.014C208.299 129.432 211.063 135.941 212.404 130.613C213.111 127.813 205.899 121.668 208.89 120.719C211.179 119.993 213.502 122.944 214.14 124.763C214.613 126.111 214.4 129.001 215.208 130.116C218.244 134.319 218.618 127.375 218.365 125.544C217.806 121.518 216.381 118.556 212.742 117.034C214.037 115.427 212.397 114.147 211.467 113.141C212.995 111.484 222.904 113.245 220.675 108.814C220.137 107.742 218.194 107.552 217.208 107.159C214.717 106.167 212.223 104.148 210.951 101.597C212.792 101.137 218.23 102.395 217.516 98.6011C216.953 95.6193 212.113 96.5336 210.238 96.9915C211.93 95.9749 215.211 96.8166 215.672 94.0499C216.203 90.8666 212.384 90.9736 210.591 91.6482C210.17 88.2904 216.123 85.8177 217.805 83.2477C218.373 82.3807 219.276 82.0836 218.551 80.6153C217.245 77.972 213.871 81.7014 212.759 82.7051C213.635 81.0771 216.08 74.3019 215.709 72.583C215.163 70.0571 213.356 69.9677 211.92 72.0153C210.989 73.345 210.73 76.7176 210.238 78.442C208.2 76.9046 208.096 78.6883 207.991 76.2507C207.923 74.6708 209.993 71.55 210.523 70.0033C210.979 68.674 212.191 66.2434 211.466 64.957C209.69 61.814 207.993 66.129 207.526 67.609C206.737 64.1977 209.74 61.5524 210.629 58.1779C211.17 56.1299 212.605 50.5995 210.118 49.6165C206.725 48.2755 207.919 54.5726 207.441 56.6163C207.076 58.1759 206.519 60.6935 205.302 61.4622C205.126 61.5735 202.482 61.8046 202.354 61.6555C200.62 59.6336 205.392 55.2077 205.638 53.3038C205.861 51.5732 205.198 50.4793 203.577 50.3755C202.768 50.3235 201.456 51.5751 201.082 51.4935C199.603 51.1719 201.529 44.4052 201.669 42.527C201.819 40.5239 201.575 35.3551 198.186 37.7423C198.413 35.0455 198.55 32.5064 198.92 29.8505C199.115 28.4518 200.318 27.206 198.546 26.084C196.39 24.7192 195.195 27.5757 194.704 29.2517C193.858 32.1375 195.605 36.6266 191.546 36.7183C186.881 36.8237 190.102 31.9876 190.331 28.8504C190.459 27.1092 189.319 22.4288 187.069 25.5867C186.173 26.8457 186.482 31.2813 185.985 32.7703C184.879 32.2772 186.718 28.2546 185.756 27.2056C183.695 24.9589 181.967 28.2316 180.656 28.8976C180.57 27.4527 180.469 26.0067 180.408 24.5603C180.315 22.3601 181.663 17.7308 180.294 16.2125C177.958 13.6238 176.472 16.6443 175.789 18.7364C175.176 20.6197 175.092 22.4795 172.556 22.736C172.764 20.0193 170.298 14.3004 171.521 12.0088C172.074 10.9743 173.2 11.7078 173.7 10.5499C174.521 8.64673 173.176 7.8394 171.714 7.77771C164.922 7.49234 170.152 16.9117 167.745 19.2693C166.646 18.2285 167.817 17.1557 166.68 15.673C165.457 14.0783 163.507 14.2133 161.762 14.9352C161.706 13.3221 164.126 2.01512 158.682 7.11834C157.33 8.38946 157.708 10.5112 156.989 12.0045C156.293 13.4486 154.6 15.602 153.648 16.7751C153.138 14.708 153.92 12.145 154.467 10.1091C154.848 8.69357 157.399 4.304 156.855 2.8654C155.275 -1.30205 150.532 5.58409 149.283 6.69671C147.701 8.10642 141.403 12.7416 139.382 11.3369C138.681 10.8501 139.312 9.0461 138.355 8.20949C137.885 7.79958 135.878 7.60828 135.305 7.66059C135.663 6.16656 134.959 4.23412 133.25 4.75061C131.101 5.40061 132.031 8.58856 130.669 9.75271C128.14 11.9174 125.135 7.64108 122.425 7.76093C122.839 6.00572 125.91 -0.301082 121.026 1.61692C119.78 2.10647 118.896 4.96805 118.585 6.15758C117.794 9.19328 118.364 9.74959 115.077 10.6065C115.334 8.84622 114.877 6.65924 115.726 5.08595C116.422 3.79727 120.031 0.441446 116.188 0.023335C111.448 -0.492765 111.914 7.69456 111.333 10.4628C107.127 7.91396 104.359 11.5606 101.853 14.7154C102.3 13.2963 103.406 -0.841776 98.8882 3.47753C97.5964 4.71469 99.0257 6.54407 98.9389 7.95573C98.8605 9.23622 98.4388 10.3777 97.9428 11.5743C97.1474 13.495 96.2224 15.4606 94.9694 17.098C93.3962 19.1569 93.9544 19.3189 92.1485 17.9213C89.7243 16.0478 88.5723 11.2975 88.6921 8.39571C88.7816 6.23527 89.888 1.84842 86.3078 2.86462C82.8009 3.86129 84.659 10.8388 85.0116 13.3178C85.3931 16.0052 85.6469 18.7544 85.1949 21.4907C82.2109 18.4409 81.7759 24.7926 81.1779 25.8763C80.1989 27.6534 78.3101 28.5232 76.8428 29.7358C76.0431 26.9417 79.2482 24.5791 78.6123 22.3562C77.4186 18.1911 74.0418 24.0719 73.2999 25.2263C72.6815 26.1887 70.6652 31.6682 69.9352 32.1593C68.9116 32.8484 62.3302 29.6315 61.6643 29.0186C60.4418 27.8939 60.8867 24.7465 59.3488 24.0298C54.6293 21.8323 57.4173 29.7639 58.3442 31.4035C60.7628 35.6877 61.8597 40.8604 61.2928 45.9078C60.435 45.6056 59.3783 44.5965 58.8254 43.8305C57.7491 42.3412 58.1404 39.9656 57.0174 38.8436C53.7295 35.5639 53.3438 41.7216 53.6112 43.6353C54.1119 47.2226 55.9021 48.3856 57.389 51.3694C58.7572 54.1197 56.9438 57.4377 56.5613 60.4944C53.1322 57.1945 38.3659 59.951 42.1652 64.9961C44.1426 67.6289 46.4835 62.6186 48.7633 62.7451C52.8465 62.9715 54.9982 68.0411 54.7303 71.5921C54.2331 69.6941 52.3085 67.8307 50.9842 70.1485C50.0866 71.7214 51.6186 74.4088 52.3583 75.9708C51.4523 75.5265 46.9861 73.4504 46.1123 73.8096C42.6726 75.224 47.4126 77.961 48.6493 78.508C52.8735 80.376 55.5364 82.4275 56.8496 87.4999C54.4819 86.7425 54.8942 85.6221 53.2973 84.4568C51.8308 83.3871 51.5566 83.9387 50.2072 83.5889C47.8452 82.9776 44.7656 82.162 42.0969 83.2708C40.1271 84.0898 36.8095 86.5809 36.1912 88.9213C35.4336 91.7946 37.0352 92.5274 39.0949 91.0638C41.5457 89.325 41.9923 85.9594 45.6783 86.1031C47.4468 86.1722 49.1989 87.099 50.3182 88.4286C51.1533 89.4218 51.641 90.8592 52.4379 91.9242C53.1407 92.8639 55.002 94.1826 55.3954 95.1781C56.813 98.7733 54.1192 101.973 52.3124 104.492C51.8932 103.938 48.8354 102.734 48.2017 102.614C45.2619 102.053 44.165 103.412 46.0033 106.126C46.5823 106.982 47.8006 107.342 48.4386 108.12C49.1502 108.989 49.5506 110.32 50.257 111.264C51.6502 113.127 53.3721 114.086 55.0353 115.586C54.4217 115.995 54.4894 114.962 53.9333 115.176C53.5291 115.332 52.826 115.021 52.3157 115.19C51.4876 115.465 51.5976 116.907 51.0678 117.119C47.7691 118.433 44.4407 113.504 41.4819 113.344C39.8683 113.256 38.5071 114.338 39.2819 116.366C39.8203 117.778 42.1521 118.544 43.3181 119.133C46.5637 120.777 49.7956 122.001 53.2658 120.74C56.0634 123.178 59.4247 124.381 62.9405 124.415C60.9287 125.413 58.9405 126.65 58.2378 129.136C57.0493 127.906 54.1298 122.184 52.6048 126.674C51.56 129.761 56.328 133.545 58.5254 134.936C55.9696 135.691 53.8478 135.843 51.2481 135.543C49.8907 135.387 46.9114 133.569 48.0097 137.291C49.1918 141.307 56.2508 139.502 58.4901 138.807C58.5732 137.609 47.7204 150.915 55.3316 148.296C57.5082 147.548 57.717 143.295 60.7497 142.923C64.2528 142.493 64.6049 146 66.6318 148.569C67.642 149.851 72.3012 152.734 72.0807 153.834C71.89 154.786 69.3317 155.33 68.7876 156.662C68.155 158.211 68.4406 159.408 69.3204 160.74C70.858 163.073 73.6803 163.431 75.9123 164.344C79.0761 165.639 80.2229 167.211 81.6413 170.561C79.1404 170.681 72.0222 177.921 76.3837 179.209C78.0089 179.689 77.7563 178.243 78.4327 177.444C78.7063 176.928 78.9804 176.414 79.2542 175.899C79.7124 174.701 80.2188 174.628 80.7733 175.678C80.8973 175.648 82.3835 176.067 82.721 176.088C84.4285 176.193 85.5714 174.896 86.9872 174.195C88.0103 173.689 89.0114 173.777 89.7823 172.609C89.6931 172.744 90.3357 170.098 90.3469 170.073C90.6226 169.436 91.3317 169.526 91.6574 168.839C82.9084 159.754 77.1997 147.72 76.1684 134.375C71.4199 132.776 68 128.288 68 123V110C68 104.965 71.1007 100.655 75.4966 98.8736C76.0283 99.2483 76.7671 98.8749 77 98.0318C76.5373 96.5261 80.2959 70.178 90 63.1564C93.6182 60.7184 113.008 60.5372 132.313 60.5505C151.409 60.5635 170.421 60.7447 174 63.1564C183.704 70.178 187.463 96.5261 187 98.0318C187.233 98.8749 187.972 99.2483 188.503 98.8736Z" fill="#2E3257"/>
<mask id="mask6_3538_8000" style="mask-type:luminance" maskUnits="userSpaceOnUse" x="36" y="0" width="185" height="182">
<path fill-rule="evenodd" clip-rule="evenodd" d="M188.503 98.8736C192.899 100.655 196 104.965 196 110V123C196 128.288 192.58 132.776 187.832 134.375C186.986 145.322 182.993 155.386 176.756 163.664C176.965 164.472 177.166 165.29 177.312 166.168C177.863 169.495 177.192 172.261 178.957 175.261C179.414 176.041 180.14 176.508 180.479 177.405C181.012 178.82 180.247 181.999 182.428 182C185.535 182 183.803 176.034 183.025 174.616C181.5 171.844 180.563 171.165 180.642 167.572C182.387 168.732 188.172 170.948 190.09 169.888C194.522 167.44 183.428 164.952 182.652 164.435C184.356 162.769 186.308 161.885 187.849 159.689C189.109 157.896 190.255 155.292 192.398 155.188C193.585 155.13 197.056 158.072 198.108 156.054C199.073 154.203 196.994 153.932 196.181 153.277C194.679 152.067 194.34 153.271 194.707 151.143C195.792 152.308 197.496 151.572 197.951 150.128C198.441 148.569 196.824 148.104 196.854 147.114C196.842 147.501 197.688 141.999 197.554 142.176C198.414 141.041 201.462 141.392 202.967 141.556C205.263 141.804 205.131 141.873 206.222 143.992C207.104 145.707 209.42 149.169 209.929 144.633C210.05 143.548 209.06 141.229 208.479 140.295C207.852 139.288 205.962 138.652 205.567 137.868C204.623 135.998 207.732 131.834 207.206 129.014C208.299 129.432 211.063 135.941 212.404 130.613C213.111 127.813 205.899 121.668 208.89 120.719C211.179 119.993 213.502 122.944 214.14 124.763C214.613 126.111 214.4 129.001 215.208 130.116C218.244 134.319 218.618 127.375 218.365 125.544C217.806 121.518 216.381 118.556 212.742 117.034C214.037 115.427 212.397 114.147 211.467 113.141C212.995 111.484 222.904 113.245 220.675 108.814C220.137 107.742 218.194 107.552 217.208 107.159C214.717 106.167 212.223 104.148 210.951 101.597C212.792 101.137 218.23 102.395 217.516 98.6011C216.953 95.6193 212.113 96.5336 210.238 96.9915C211.93 95.9749 215.211 96.8166 215.672 94.0499C216.203 90.8666 212.384 90.9736 210.591 91.6482C210.17 88.2904 216.123 85.8177 217.805 83.2477C218.373 82.3807 219.276 82.0836 218.551 80.6153C217.245 77.972 213.871 81.7014 212.759 82.7051C213.635 81.0771 216.08 74.3019 215.709 72.583C215.163 70.0571 213.356 69.9677 211.92 72.0153C210.989 73.345 210.73 76.7176 210.238 78.442C208.2 76.9046 208.096 78.6883 207.991 76.2507C207.923 74.6708 209.993 71.55 210.523 70.0033C210.979 68.674 212.191 66.2434 211.466 64.957C209.69 61.814 207.993 66.129 207.526 67.609C206.737 64.1977 209.74 61.5524 210.629 58.1779C211.17 56.1299 212.605 50.5995 210.118 49.6165C206.725 48.2755 207.919 54.5726 207.441 56.6163C207.076 58.1759 206.519 60.6935 205.302 61.4622C205.126 61.5735 202.482 61.8046 202.354 61.6555C200.62 59.6336 205.392 55.2077 205.638 53.3038C205.861 51.5732 205.198 50.4793 203.577 50.3755C202.768 50.3235 201.456 51.5751 201.082 51.4935C199.603 51.1719 201.529 44.4052 201.669 42.527C201.819 40.5239 201.575 35.3551 198.186 37.7423C198.413 35.0455 198.55 32.5064 198.92 29.8505C199.115 28.4518 200.318 27.206 198.546 26.084C196.39 24.7192 195.195 27.5757 194.704 29.2517C193.858 32.1375 195.605 36.6266 191.546 36.7183C186.881 36.8237 190.102 31.9876 190.331 28.8504C190.459 27.1092 189.319 22.4288 187.069 25.5867C186.173 26.8457 186.482 31.2813 185.985 32.7703C184.879 32.2772 186.718 28.2546 185.756 27.2056C183.695 24.9589 181.967 28.2316 180.656 28.8976C180.57 27.4527 180.469 26.0067 180.408 24.5603C180.315 22.3601 181.663 17.7308 180.294 16.2125C177.958 13.6238 176.472 16.6443 175.789 18.7364C175.176 20.6197 175.092 22.4795 172.556 22.736C172.764 20.0193 170.298 14.3004 171.521 12.0088C172.074 10.9743 173.2 11.7078 173.7 10.5499C174.521 8.64673 173.176 7.8394 171.714 7.77771C164.922 7.49234 170.152 16.9117 167.745 19.2693C166.646 18.2285 167.817 17.1557 166.68 15.673C165.457 14.0783 163.507 14.2133 161.762 14.9352C161.706 13.3221 164.126 2.01512 158.682 7.11834C157.33 8.38946 157.708 10.5112 156.989 12.0045C156.293 13.4486 154.6 15.602 153.648 16.7751C153.138 14.708 153.92 12.145 154.467 10.1091C154.848 8.69357 157.399 4.304 156.855 2.8654C155.275 -1.30205 150.532 5.58409 149.283 6.69671C147.701 8.10642 141.403 12.7416 139.382 11.3369C138.681 10.8501 139.312 9.0461 138.355 8.20949C137.885 7.79958 135.878 7.60828 135.305 7.66059C135.663 6.16656 134.959 4.23412 133.25 4.75061C131.101 5.40061 132.031 8.58856 130.669 9.75271C128.14 11.9174 125.135 7.64108 122.425 7.76093C122.839 6.00572 125.91 -0.301082 121.026 1.61692C119.78 2.10647 118.896 4.96805 118.585 6.15758C117.794 9.19328 118.364 9.74959 115.077 10.6065C115.334 8.84622 114.877 6.65924 115.726 5.08595C116.422 3.79727 120.031 0.441446 116.188 0.023335C111.448 -0.492765 111.914 7.69456 111.333 10.4628C107.127 7.91396 104.359 11.5606 101.853 14.7154C102.3 13.2963 103.406 -0.841776 98.8882 3.47753C97.5964 4.71469 99.0257 6.54407 98.9389 7.95573C98.8605 9.23622 98.4388 10.3777 97.9428 11.5743C97.1474 13.495 96.2224 15.4606 94.9694 17.098C93.3962 19.1569 93.9544 19.3189 92.1485 17.9213C89.7243 16.0478 88.5723 11.2975 88.6921 8.39571C88.7816 6.23527 89.888 1.84842 86.3078 2.86462C82.8009 3.86129 84.659 10.8388 85.0116 13.3178C85.3931 16.0052 85.6469 18.7544 85.1949 21.4907C82.2109 18.4409 81.7759 24.7926 81.1779 25.8763C80.1989 27.6534 78.3101 28.5232 76.8428 29.7358C76.0431 26.9417 79.2482 24.5791 78.6123 22.3562C77.4186 18.1911 74.0418 24.0719 73.2999 25.2263C72.6815 26.1887 70.6652 31.6682 69.9352 32.1593C68.9116 32.8484 62.3302 29.6315 61.6643 29.0186C60.4418 27.8939 60.8867 24.7465 59.3488 24.0298C54.6293 21.8323 57.4173 29.7639 58.3442 31.4035C60.7628 35.6877 61.8597 40.8604 61.2928 45.9078C60.435 45.6056 59.3783 44.5965 58.8254 43.8305C57.7491 42.3412 58.1404 39.9656 57.0174 38.8436C53.7295 35.5639 53.3438 41.7216 53.6112 43.6353C54.1119 47.2226 55.9021 48.3856 57.389 51.3694C58.7572 54.1197 56.9438 57.4377 56.5613 60.4944C53.1322 57.1945 38.3659 59.951 42.1652 64.9961C44.1426 67.6289 46.4835 62.6186 48.7633 62.7451C52.8465 62.9715 54.9982 68.0411 54.7303 71.5921C54.2331 69.6941 52.3085 67.8307 50.9842 70.1485C50.0866 71.7214 51.6186 74.4088 52.3583 75.9708C51.4523 75.5265 46.9861 73.4504 46.1123 73.8096C42.6726 75.224 47.4126 77.961 48.6493 78.508C52.8735 80.376 55.5364 82.4275 56.8496 87.4999C54.4819 86.7425 54.8942 85.6221 53.2973 84.4568C51.8308 83.3871 51.5566 83.9387 50.2072 83.5889C47.8452 82.9776 44.7656 82.162 42.0969 83.2708C40.1271 84.0898 36.8095 86.5809 36.1912 88.9213C35.4336 91.7946 37.0352 92.5274 39.0949 91.0638C41.5457 89.325 41.9923 85.9594 45.6783 86.1031C47.4468 86.1722 49.1989 87.099 50.3182 88.4286C51.1533 89.4218 51.641 90.8592 52.4379 91.9242C53.1407 92.8639 55.002 94.1826 55.3954 95.1781C56.813 98.7733 54.1192 101.973 52.3124 104.492C51.8932 103.938 48.8354 102.734 48.2017 102.614C45.2619 102.053 44.165 103.412 46.0033 106.126C46.5823 106.982 47.8006 107.342 48.4386 108.12C49.1502 108.989 49.5506 110.32 50.257 111.264C51.6502 113.127 53.3721 114.086 55.0353 115.586C54.4217 115.995 54.4894 114.962 53.9333 115.176C53.5291 115.332 52.826 115.021 52.3157 115.19C51.4876 115.465 51.5976 116.907 51.0678 117.119C47.7691 118.433 44.4407 113.504 41.4819 113.344C39.8683 113.256 38.5071 114.338 39.2819 116.366C39.8203 117.778 42.1521 118.544 43.3181 119.133C46.5637 120.777 49.7956 122.001 53.2658 120.74C56.0634 123.178 59.4247 124.381 62.9405 124.415C60.9287 125.413 58.9405 126.65 58.2378 129.136C57.0493 127.906 54.1298 122.184 52.6048 126.674C51.56 129.761 56.328 133.545 58.5254 134.936C55.9696 135.691 53.8478 135.843 51.2481 135.543C49.8907 135.387 46.9114 133.569 48.0097 137.291C49.1918 141.307 56.2508 139.502 58.4901 138.807C58.5732 137.609 47.7204 150.915 55.3316 148.296C57.5082 147.548 57.717 143.295 60.7497 142.923C64.2528 142.493 64.6049 146 66.6318 148.569C67.642 149.851 72.3012 152.734 72.0807 153.834C71.89 154.786 69.3317 155.33 68.7876 156.662C68.155 158.211 68.4406 159.408 69.3204 160.74C70.858 163.073 73.6803 163.431 75.9123 164.344C79.0761 165.639 80.2229 167.211 81.6413 170.561C79.1404 170.681 72.0222 177.921 76.3837 179.209C78.0089 179.689 77.7563 178.243 78.4327 177.444C78.7063 176.928 78.9804 176.414 79.2542 175.899C79.7124 174.701 80.2188 174.628 80.7733 175.678C80.8973 175.648 82.3835 176.067 82.721 176.088C84.4285 176.193 85.5714 174.896 86.9872 174.195C88.0103 173.689 89.0114 173.777 89.7823 172.609C89.6931 172.744 90.3357 170.098 90.3469 170.073C90.6226 169.436 91.3317 169.526 91.6574 168.839C82.9084 159.754 77.1997 147.72 76.1684 134.375C71.4199 132.776 68 128.288 68 123V110C68 104.965 71.1007 100.655 75.4966 98.8736C76.0283 99.2483 76.7671 98.8749 77 98.0318C76.5373 96.5261 80.2959 70.178 90 63.1564C93.6182 60.7184 113.008 60.5372 132.313 60.5505C151.409 60.5635 170.421 60.7447 174 63.1564C183.704 70.178 187.463 96.5261 187 98.0318C187.233 98.8749 187.972 99.2483 188.503 98.8736Z" fill="white"/>
</mask>
<g mask="url(#mask6_3538_8000)">
<path d="M299 0H35V280H299V0Z" fill="#4A312C"/>
</g>
<g filter="url(#filter0_d_3538_8000)">
<path d="M101 133H98.2421C84.3147 133 76 125.336 76 112.5C76 102.127 77.817 92 99.5299 92H102.47C124.183 92 126 102.127 126 112.5C126 124.569 115.721 133 101 133ZM99.3854 98C80 98 80 104.841 80 113.502C80 120.572 83.1163 129 97.9709 129H101C113.365 129 122 122.627 122 113.502C122 104.841 122 98 102.615 98H99.3854Z" fill="#252C2F"/>
<path d="M163 133H160.242C146.315 133 138 125.336 138 112.5C138 102.127 139.817 92 161.53 92H164.47C186.183 92 188 102.127 188 112.5C188 124.569 177.721 133 163 133ZM161.385 98C142 98 142 104.841 142 113.502C142 120.572 145.119 129 159.971 129H163C175.365 129 184 122.627 184 113.502C184 104.841 184 98 164.615 98H161.385Z" fill="#252C2F"/>
<path d="M69.9545 97.7716C70.6459 97.0963 78.2095 92 99.5 92C117.351 92 121.13 93.8527 126.85 96.6519L127.269 96.8585C127.667 96.999 129.7 97.6898 132.079 97.7658C134.246 97.6728 136.1 97.0854 136.642 96.8972C143.17 93.7221 149.561 92 164.5 92C185.79 92 193.354 97.0963 194.045 97.7716C195.679 97.7716 197 99.0615 197 100.657V103.543C197 105.139 195.679 106.429 194.045 106.429C194.045 106.429 187.144 106.429 187.144 109.315C187.144 112.2 185.182 105.139 185.182 103.543V100.732C181.579 99.3534 175.128 96.7862 164.5 96.7862C152.658 96.7862 146.761 98.886 141.702 100.971L141.759 101.108L141.756 103.094L139.539 108.444L136.8 107.361C136.556 107.264 136.028 107.09 135.296 106.91C133.256 106.407 131.159 106.254 129.304 106.634C128.624 106.774 127.992 106.984 127.413 107.267L124.77 108.558L122.127 103.396L122.244 101.102L122.325 100.907C117.962 98.8739 113.939 96.7862 99.5 96.7862C88.8721 96.7862 82.4221 99.3524 78.8182 100.731V103.543C78.8182 105.139 75.8636 112.2 75.8636 109.315C75.8636 106.429 69.9545 106.429 69.9545 106.429C68.3236 106.429 67 105.139 67 103.543V100.657C67 99.0615 68.3236 97.7716 69.9545 97.7716Z" fill="#252C2F"/>
</g>
</g>
</g>
</g>
<defs>
<filter id="filter0_d_3538_8000" x="67" y="92" width="130" height="43" filterUnits="userSpaceOnUse" color-interpolation-filters="sRGB">
<feFlood flood-opacity="0" result="BackgroundImageFix"/>
<feColorMatrix in="SourceAlpha" type="matrix" values="0 0 0 0 0 0 0 0 0 0 0 0 0 0 0 0 0 0 127 0" result="hardAlpha"/>
<feOffset dy="2"/>
<feColorMatrix type="matrix" values="0 0 0 0 0 0 0 0 0 0 0 0 0 0 0 0 0 0 0.2 0"/>
<feBlend mode="normal" in2="BackgroundImageFix" result="effect1_dropShadow_3538_8000"/>
<feBlend mode="normal" in="SourceGraphic" in2="effect1_dropShadow_3538_8000" result="shape"/>
</filter>
<clipPath id="clip0_3538_8000">
<rect width="264" height="280" fill="white"/>
</clipPath>
</defs>
</svg>
