<svg width="264" height="280" viewBox="0 0 264 280" fill="none" xmlns="http://www.w3.org/2000/svg">
<g clip-path="url(#clip0_3538_8148)">
<path d="M132 280C198.274 280 252 226.274 252 160C252 93.7258 198.274 40 132 40C65.7258 40 12 93.7258 12 160C12 226.274 65.7258 280 132 280Z" fill="#E6E6E6"/>
<mask id="mask0_3538_8148" style="mask-type:luminance" maskUnits="userSpaceOnUse" x="12" y="40" width="240" height="240">
<path d="M132 280C198.274 280 252 226.274 252 160C252 93.7258 198.274 40 132 40C65.7258 40 12 93.7258 12 160C12 226.274 65.7258 280 132 280Z" fill="white"/>
</mask>
<g mask="url(#mask0_3538_8148)">
<path d="M252 40H12V280H252V40Z" fill="#65C9FF"/>
</g>
<mask id="mask1_3538_8148" style="mask-type:luminance" maskUnits="userSpaceOnUse" x="0" y="0" width="264" height="280">
<path d="M12 160C12 226.274 65.7258 280 132 280C198.274 280 252 226.274 252 160H264V0H0V160H12Z" fill="white"/>
</mask>
<g mask="url(#mask1_3538_8148)">
<path d="M156 180.611V199H160C199.764 199 232 231.236 232 271V280H32V271C32 231.236 64.2355 199 104 199H108V180.611C90.7626 172.422 78.3722 155.687 76.3051 135.881C70.4803 135.058 66 130.052 66 124V110C66 104.054 70.3246 99.1181 76 98.1659V92C76 61.0721 101.072 36 132 36C162.928 36 188 61.0721 188 92V98.1659C193.675 99.1181 198 104.054 198 110V124C198 130.052 193.52 135.058 187.695 135.881C185.628 155.687 173.237 172.422 156 180.611Z" fill="#D0C6AC"/>
<mask id="mask2_3538_8148" style="mask-type:luminance" maskUnits="userSpaceOnUse" x="32" y="36" width="200" height="244">
<path d="M156 180.611V199H160C199.764 199 232 231.236 232 271V280H32V271C32 231.236 64.2355 199 104 199H108V180.611C90.7626 172.422 78.3722 155.687 76.3051 135.881C70.4803 135.058 66 130.052 66 124V110C66 104.054 70.3246 99.1181 76 98.1659V92C76 61.0721 101.072 36 132 36C162.928 36 188 61.0721 188 92V98.1659C193.675 99.1181 198 104.054 198 110V124C198 130.052 193.52 135.058 187.695 135.881C185.628 155.687 173.237 172.422 156 180.611Z" fill="white"/>
</mask>
<g mask="url(#mask2_3538_8148)">
<path d="M296 36H32V316H296V36Z" fill="#AE5D29"/>
</g>
<mask id="mask3_3538_8148" style="mask-type:luminance" maskUnits="userSpaceOnUse" x="32" y="36" width="200" height="244">
<path d="M156 180.611V199H160C199.764 199 232 231.236 232 271V280H32V271C32 231.236 64.2355 199 104 199H108V180.611C90.7626 172.422 78.3722 155.687 76.3051 135.881C70.4803 135.058 66 130.052 66 124V110C66 104.054 70.3246 99.1181 76 98.1659V92C76 61.0721 101.072 36 132 36C162.928 36 188 61.0721 188 92V98.1659C193.675 99.1181 198 104.054 198 110V124C198 130.052 193.52 135.058 187.695 135.881C185.628 155.687 173.237 172.422 156 180.611Z" fill="white"/>
</mask>
<g mask="url(#mask3_3538_8148)">
<path fill-rule="evenodd" clip-rule="evenodd" d="M188 115V138C188 168.928 162.928 194 132 194C101.072 194 76 168.928 76 138V115V130C76 160.928 101.072 186 132 186C162.928 186 188 160.928 188 130V115Z" fill="black" fill-opacity="0.1"/>
</g>
<path fill-rule="evenodd" clip-rule="evenodd" d="M108 183.071C90.0813 185.076 76.2798 190.552 76.0042 204.645C50.1464 215.568 32 241.165 32 270.999V280H232V270.999C232 241.165 213.854 215.568 187.996 204.645C187.72 190.552 173.919 185.076 156 183.071V202C156 215.255 145.255 226 132 226C118.745 226 108 215.255 108 202V183.071Z" fill="#B7C1DB"/>
<mask id="mask4_3538_8148" style="mask-type:luminance" maskUnits="userSpaceOnUse" x="32" y="183" width="200" height="97">
<path fill-rule="evenodd" clip-rule="evenodd" d="M108 183.071C90.0813 185.076 76.2798 190.552 76.0042 204.645C50.1464 215.568 32 241.165 32 270.999V280H232V270.999C232 241.165 213.854 215.568 187.996 204.645C187.72 190.552 173.919 185.076 156 183.071V202C156 215.255 145.255 226 132 226C118.745 226 108 215.255 108 202V183.071Z" fill="white"/>
</mask>
<g mask="url(#mask4_3538_8148)">
<path d="M264 170H0V280H264V170Z" fill="#3C4F5C"/>
</g>
<mask id="mask5_3538_8148" style="mask-type:luminance" maskUnits="userSpaceOnUse" x="32" y="183" width="200" height="97">
<path fill-rule="evenodd" clip-rule="evenodd" d="M108 183.071C90.0813 185.076 76.2798 190.552 76.0042 204.645C50.1464 215.568 32 241.165 32 270.999V280H232V270.999C232 241.165 213.854 215.568 187.996 204.645C187.72 190.552 173.919 185.076 156 183.071V202C156 215.255 145.255 226 132 226C118.745 226 108 215.255 108 202V183.071Z" fill="white"/>
</mask>
<g mask="url(#mask5_3538_8148)">
<path fill-rule="evenodd" clip-rule="evenodd" d="M102 231.739V280H95V228.15C97.2038 229.46 99.5468 230.661 102 231.739ZM169 228.15V268.5C169 270.433 167.433 272 165.5 272C163.567 272 162 270.433 162 268.5V231.739C164.453 230.661 166.796 229.46 169 228.15Z" fill="#F4F4F4"/>
</g>
<mask id="mask6_3538_8148" style="mask-type:luminance" maskUnits="userSpaceOnUse" x="32" y="183" width="200" height="97">
<path fill-rule="evenodd" clip-rule="evenodd" d="M108 183.071C90.0813 185.076 76.2798 190.552 76.0042 204.645C50.1464 215.568 32 241.165 32 270.999V280H232V270.999C232 241.165 213.854 215.568 187.996 204.645C187.72 190.552 173.919 185.076 156 183.071V202C156 215.255 145.255 226 132 226C118.745 226 108 215.255 108 202V183.071Z" fill="white"/>
</mask>
<g mask="url(#mask6_3538_8148)">
<path fill-rule="evenodd" clip-rule="evenodd" d="M90.9601 182.724C75.9093 185.571 65.5 191.243 65.5 202.308C65.5 222.02 98.5377 238 132 238C165.462 238 198.5 222.02 198.5 202.308C198.5 191.243 188.091 185.571 173.04 182.724C182.125 186.074 188 191.706 188 201.077C188 221.469 160.179 238 132 238C103.821 238 76 221.469 76 201.077C76 191.706 81.8751 186.074 90.9601 182.724Z" fill="black" fill-opacity="0.16"/>
</g>
<path fill-rule="evenodd" clip-rule="evenodd" d="M118 149C118 156.732 124.268 163 132 163C139.732 163 146 156.732 146 149" fill="black" fill-opacity="0.7"/>
<path fill-rule="evenodd" clip-rule="evenodd" d="M120 130C120 134.418 125.373 138 132 138C138.627 138 144 134.418 144 130" fill="black" fill-opacity="0.16"/>
<path d="M106 118C109.314 118 112 115.314 112 112C112 108.686 109.314 106 106 106C102.686 106 100 108.686 100 112C100 115.314 102.686 118 106 118Z" fill="black" fill-opacity="0.6"/>
<path d="M158 118C161.314 118 164 115.314 164 112C164 108.686 161.314 106 158 106C154.686 106 152 108.686 152 112C152 115.314 154.686 118 158 118Z" fill="black" fill-opacity="0.6"/>
<path fill-rule="evenodd" clip-rule="evenodd" d="M102.545 88.1484C96.7385 88.4167 87.3504 92.6363 87.5922 98.4922C87.6002 98.6839 87.8818 98.768 88.0193 98.6206C90.7742 95.6613 110.335 92.6709 117.224 94.2556C117.855 94.4008 118.334 93.7788 117.934 93.3295C114.512 89.4812 107.748 87.903 102.545 88.1484Z" fill="black" fill-opacity="0.6"/>
<path fill-rule="evenodd" clip-rule="evenodd" d="M162.453 88.1484C168.26 88.4167 177.648 92.6363 177.406 98.4922C177.398 98.6839 177.116 98.768 176.979 98.6206C174.224 95.6613 154.663 92.6709 147.774 94.2556C147.143 94.4008 146.664 93.7788 147.064 93.3295C150.486 89.4812 157.25 87.903 162.453 88.1484Z" fill="black" fill-opacity="0.6"/>
<mask id="mask7_3538_8148" style="mask-type:luminance" maskUnits="userSpaceOnUse" x="0" y="0" width="264" height="280">
<path d="M264 0H0V280H264V0Z" fill="white"/>
</mask>
<g mask="url(#mask7_3538_8148)">
<path fill-rule="evenodd" clip-rule="evenodd" d="M113.18 149.737C115.363 148.105 128.407 147.479 130.758 146.089C131.492 145.655 132.061 145.216 132.5 144.78C132.939 145.216 133.509 145.655 134.242 146.089C136.593 147.479 149.637 148.105 151.82 149.737C154.03 151.391 155.644 155.185 155.467 158.151C155.255 161.71 151.361 170.203 141.672 171.181C139.558 168.828 136.237 167.31 132.5 167.31C128.763 167.31 125.442 168.828 123.328 171.181C113.639 170.203 109.745 161.71 109.533 158.151C109.357 155.185 110.97 151.391 113.18 149.737ZM151.142 166.906C151.143 166.906 151.145 166.905 151.146 166.905C151.144 166.905 151.143 166.906 151.142 166.906ZM113.845 166.901C113.849 166.903 113.857 166.906 113.862 166.908C113.857 166.906 113.851 166.903 113.845 166.901ZM192.863 127.985C192.474 122.03 191.278 116.152 190.234 110.286C189.953 108.707 188.424 98 187.735 98C187.502 107.109 186.702 116.08 185.67 125.139C185.361 127.848 185.038 130.556 184.825 133.274C184.654 135.47 184.96 138.122 184.428 140.246C183.749 142.952 180.348 145.478 177.703 146.411C171.103 148.737 165.598 139.108 159.961 136.291C152.643 132.635 140.064 131.764 132.582 136.53C124.936 131.764 112.357 132.635 105.039 136.291C99.4024 139.108 93.897 148.737 87.2972 146.411C84.6521 145.478 81.2504 142.952 80.5724 140.246C80.0403 138.122 80.3463 135.47 80.175 133.274C79.9624 130.556 79.6389 127.848 79.3302 125.139C78.2983 116.08 77.4975 107.109 77.2654 98C76.5762 98 75.0468 108.707 74.7659 110.286C73.7221 116.152 72.5258 122.03 72.1376 127.985C71.7385 134.105 72.2149 140.167 73.4696 146.163C74.0687 149.028 74.7685 151.876 75.5189 154.704C76.3527 157.847 75.199 163.966 75.5723 167.192C76.2788 173.296 79.1543 185.2 82.3833 190.451C83.9441 192.989 85.7735 194.574 87.8165 196.619C89.7826 198.588 90.6039 201.64 92.7261 203.737C96.682 207.645 102.446 209.971 108.366 210.543C113.677 215.05 122.506 218 132.5 218C142.495 218 151.323 215.05 156.635 210.543C162.554 209.971 168.318 207.645 172.274 203.737C174.396 201.64 175.217 198.588 177.184 196.619C179.226 194.574 181.056 192.989 182.617 190.451C185.846 185.2 188.721 173.296 189.428 167.192C189.801 163.966 188.647 157.847 189.481 154.704C190.232 151.876 190.931 149.028 191.531 146.163C192.785 140.167 193.261 134.105 192.863 127.985Z" fill="#5E7AA9"/>
<mask id="mask8_3538_8148" style="mask-type:luminance" maskUnits="userSpaceOnUse" x="72" y="98" width="121" height="120">
<path fill-rule="evenodd" clip-rule="evenodd" d="M113.18 149.737C115.363 148.105 128.407 147.479 130.758 146.089C131.492 145.655 132.061 145.216 132.5 144.78C132.939 145.216 133.509 145.655 134.242 146.089C136.593 147.479 149.637 148.105 151.82 149.737C154.03 151.391 155.644 155.185 155.467 158.151C155.255 161.71 151.361 170.203 141.672 171.181C139.558 168.828 136.237 167.31 132.5 167.31C128.763 167.31 125.442 168.828 123.328 171.181C113.639 170.203 109.745 161.71 109.533 158.151C109.357 155.185 110.97 151.391 113.18 149.737ZM151.142 166.906C151.143 166.906 151.145 166.905 151.146 166.905C151.144 166.905 151.143 166.906 151.142 166.906ZM113.845 166.901C113.849 166.903 113.857 166.906 113.862 166.908C113.857 166.906 113.851 166.903 113.845 166.901ZM192.863 127.985C192.474 122.03 191.278 116.152 190.234 110.286C189.953 108.707 188.424 98 187.735 98C187.502 107.109 186.702 116.08 185.67 125.139C185.361 127.848 185.038 130.556 184.825 133.274C184.654 135.47 184.96 138.122 184.428 140.246C183.749 142.952 180.348 145.478 177.703 146.411C171.103 148.737 165.598 139.108 159.961 136.291C152.643 132.635 140.064 131.764 132.582 136.53C124.936 131.764 112.357 132.635 105.039 136.291C99.4024 139.108 93.897 148.737 87.2972 146.411C84.6521 145.478 81.2504 142.952 80.5724 140.246C80.0403 138.122 80.3463 135.47 80.175 133.274C79.9624 130.556 79.6389 127.848 79.3302 125.139C78.2983 116.08 77.4975 107.109 77.2654 98C76.5762 98 75.0468 108.707 74.7659 110.286C73.7221 116.152 72.5258 122.03 72.1376 127.985C71.7385 134.105 72.2149 140.167 73.4696 146.163C74.0687 149.028 74.7685 151.876 75.5189 154.704C76.3527 157.847 75.199 163.966 75.5723 167.192C76.2788 173.296 79.1543 185.2 82.3833 190.451C83.9441 192.989 85.7735 194.574 87.8165 196.619C89.7826 198.588 90.6039 201.64 92.7261 203.737C96.682 207.645 102.446 209.971 108.366 210.543C113.677 215.05 122.506 218 132.5 218C142.495 218 151.323 215.05 156.635 210.543C162.554 209.971 168.318 207.645 172.274 203.737C174.396 201.64 175.217 198.588 177.184 196.619C179.226 194.574 181.056 192.989 182.617 190.451C185.846 185.2 188.721 173.296 189.428 167.192C189.801 163.966 188.647 157.847 189.481 154.704C190.232 151.876 190.931 149.028 191.531 146.163C192.785 140.167 193.261 134.105 192.863 127.985Z" fill="white"/>
</mask>
<g mask="url(#mask8_3538_8148)">
<path d="M280 72H16V316H280V72Z" fill="#4A312C"/>
</g>
</g>
</g>
</g>
<defs>
<clipPath id="clip0_3538_8148">
<rect width="264" height="280" fill="white"/>
</clipPath>
</defs>
</svg>
